<svg width="57" height="64" viewBox="0 0 57 64" fill="none" xmlns="http://www.w3.org/2000/svg">
<path d="M28.1815 64L5.13576 57.6022L0 0H56.4321L51.291 57.5934L28.1815 64V64Z" fill="#264DE4"/>
<path d="M46.8899 53.926L51.2831 4.70972H28.2163V59.1029L46.8899 53.926V53.926Z" fill="#2965F1"/>
<path d="M11.7735 26.0737L12.4066 33.1384H28.216V26.0737H11.7735ZM10.5011 11.7747L11.1433 18.8393H28.216V11.7747H10.5011V11.7747ZM28.216 44.4215L28.185 44.4297L20.3172 42.3052L19.8141 36.6708H12.7222L13.7119 47.7635L28.1835 51.7806L28.216 51.7717V44.4215Z" fill="#EBEBEB"/>
<path d="M44.6136 26.0737L45.8889 11.7747H28.1919V18.8393H38.1466L37.5038 26.0737H28.1919V33.1384H36.8913L36.071 42.3008L28.1917 44.4274V51.7773L42.6747 47.7635L42.7809 46.5698L44.4413 27.9708L44.6136 26.0737V26.0737Z" fill="white"/>
</svg>
