<svg width="89" height="64" viewBox="0 0 89 64" fill="none" xmlns="http://www.w3.org/2000/svg">
<path d="M86.7343 24.3882C84.74 23.0044 80.1697 22.4854 76.5967 23.1773C76.1816 19.7179 74.2702 16.6912 70.9464 14.0101L69.0354 12.6263L67.7056 14.6155C66.044 17.2101 65.213 20.8426 65.4621 24.302C65.5451 25.5125 65.9606 27.6746 67.2071 29.5773C66.044 30.2692 63.6341 31.1341 60.4767 31.1341H0.399718L0.233664 31.826C-0.348218 35.2851 -0.348218 46.0956 6.46553 54.3979C11.6174 60.7111 19.2621 63.9111 29.3163 63.9111C51.0867 63.9111 67.2071 53.4462 74.7688 34.5067C77.7602 34.5932 84.1584 34.5067 87.3992 28.0202C87.4823 27.8473 87.6483 27.5013 88.2299 26.2044L88.5623 25.5125L86.7343 24.3882ZM48.4277 0H39.2878V8.6483H48.4277V0ZM48.4277 10.378H39.2878V19.0263H48.4277V10.3777V10.378ZM37.6256 10.378H28.4857V19.0263H37.6256V10.3777V10.378ZM26.8234 10.378H17.6832V19.0263H26.8234V10.3777V10.378ZM16.0213 20.7561H6.88101V29.4044H16.0209V20.7557L16.0213 20.7561ZM26.8234 20.7561H17.6832V29.4044H26.8234V20.7557V20.7561ZM37.6256 20.7561H28.4857V29.4044H37.6256V20.7557V20.7561ZM48.4281 20.7561H39.2875V29.4044H48.4281V20.7557V20.7561ZM59.2302 20.7561H50.0897V29.4044H59.2302V20.7557V20.7561Z" fill="#2396ED"/>
</svg>
