<svg width="43" height="64" viewBox="0 0 43 64" fill="none" xmlns="http://www.w3.org/2000/svg">
<path d="M10.6667 64C16.5547 64 21.3333 59.2213 21.3333 53.3333V42.6666H10.6667C4.77867 42.6666 0 47.4453 0 53.3333C0 59.2213 4.77867 64 10.6667 64Z" fill="#0ACF83"/>
<path d="M0 32C0 26.112 4.77867 21.3334 10.6667 21.3334H21.3333V42.6667H10.6667C4.77867 42.6667 0 37.888 0 32Z" fill="#A259FF"/>
<path d="M0 10.6667C0 4.77867 4.77867 0 10.6667 0H21.3333V21.3333H10.6667C4.77867 21.3333 0 16.5547 0 10.6667Z" fill="#F24E1E"/>
<path d="M21.3333 0H31.9999C37.8879 0 42.6666 4.77867 42.6666 10.6667C42.6666 16.5547 37.8879 21.3333 31.9999 21.3333H21.3333V0Z" fill="#FF7262"/>
<path d="M42.6666 32C42.6666 37.888 37.8879 42.6667 31.9999 42.6667C26.1119 42.6667 21.3333 37.888 21.3333 32C21.3333 26.112 26.1119 21.3334 31.9999 21.3334C37.8879 21.3334 42.6666 26.112 42.6666 32Z" fill="#1ABCFE"/>
</svg>
