<svg width="47" height="64" viewBox="0 0 47 64" fill="none" xmlns="http://www.w3.org/2000/svg">
<path d="M0 51.6009L0.3871 51.059L18.6944 16.3214L18.733 15.9536L10.663 0.794716C9.98655 -0.475073 8.08296 -0.153979 7.86124 1.26751L0 51.6009Z" fill="#FFC24A"/>
<path d="M24.6162 27.4197L30.6251 21.2659L24.6144 9.79145C24.0439 8.70527 22.4508 8.70199 21.8863 9.79145L18.6748 15.9156V16.4371L24.616 27.4197H24.6162Z" fill="#F4BD62"/>
<path d="M0 51.6008L0.175407 51.4243L0.812855 51.1654L24.2389 27.8264L24.5357 27.0184L18.6918 15.8824L0 51.6008Z" fill="#F6820C"/>
<path d="M25.3668 63.3711L46.5679 51.5472L40.5136 14.2603C40.3242 13.0937 38.893 12.6326 38.0579 13.469L0 51.6008L21.0795 63.3702C21.7347 63.736 22.4726 63.9281 23.223 63.9283C23.9735 63.9285 24.7114 63.7366 25.3668 63.3711" fill="#FDE068"/>
<path d="M46.3778 51.4479L40.3695 14.4443C40.1817 13.2864 38.9914 12.8074 38.1627 13.6376L0.235107 51.5282L21.0832 63.1809C21.7335 63.544 22.4657 63.7346 23.2104 63.7348C23.9551 63.735 24.6875 63.5447 25.3379 63.182L46.378 51.4478L46.3778 51.4479Z" fill="#FCCA3F"/>
<path d="M25.3667 63.0226C24.7113 63.3881 23.9734 63.5799 23.223 63.5798C22.4726 63.5796 21.7348 63.3875 21.0796 63.0217L0.169817 51.4215L0.000244141 51.6007L21.0796 63.3702C21.7348 63.736 22.4727 63.9281 23.2231 63.9282C23.9735 63.9284 24.7115 63.7366 25.3669 63.3711L46.568 51.5471L46.516 51.2277L25.3669 63.0228L25.3667 63.0226Z" fill="#EEAB37"/>
</svg>
