<svg width="57" height="64" viewBox="0 0 57 64" fill="none" xmlns="http://www.w3.org/2000/svg">
<path d="M5.44606 57.6023L0.310059 0H56.7443L51.6015 57.5931L28.4929 64L5.44606 57.6023Z" fill="#E44F26"/>
<path d="M28.5271 59.104L47.2014 53.9268L51.5945 4.71082H28.5271V59.104Z" fill="#F1662A"/>
<path d="M28.5272 26.0731H19.1786L18.534 18.8388H28.5272V11.7737H10.8129L10.982 13.6708L12.7169 33.1383H28.5272V26.0731V26.0731ZM28.5272 44.4205L28.4952 44.4297L20.6277 42.3063L20.1249 36.672H13.0323L14.022 47.7623L28.4952 51.7805L28.5272 51.7714V44.4205Z" fill="#EBEBEB"/>
<path d="M28.5021 26.0731V33.1383H37.2015L36.3832 42.3017L28.5021 44.4274V51.7783L42.9866 47.7623L43.0918 46.5691L44.7512 27.9703L44.9249 26.0731H28.5021V26.0731ZM28.5021 11.7737V18.8388H45.5672L45.7089 17.2525L46.0312 13.6708L46.2004 11.7737H28.5021V11.7737Z" fill="white"/>
</svg>
