<svg width="145" height="64" viewBox="0 0 145 64" fill="none" xmlns="http://www.w3.org/2000/svg">
<path d="M26.8848 18.0351H26.9511C19.0721 18.0351 13.7751 22.5737 13.7751 31.5042V36.9474C14.5881 36.5943 15.4584 36.3915 16.3437 36.3488C17.2426 36.3126 18.1346 36.5194 18.9258 36.9474V31.5042C18.9258 25.7544 22.1068 22.7202 26.9113 22.7202C31.7159 22.7202 34.8968 25.7544 34.8968 31.5042V45.4256H40.0475V31.5042C40.0475 22.5734 34.7238 18.0351 26.8848 18.0351V18.0351ZM42.8956 32.1031H42.8425C42.8425 23.9312 48.7383 18.0351 57.2163 18.0351C65.6945 18.0351 71.444 23.971 71.444 32.1031V33.9262H48.286C48.8883 38.3403 52.767 41.5599 57.2163 41.3397C60.7033 41.3397 63.1259 40.2882 64.643 38.0122H70.2861C68.1699 43.0033 63.3253 46.184 57.1231 46.184C48.7917 46.184 42.8956 40.2882 42.8956 32.1031V32.1031ZM66.2002 29.4411C65.2272 25.3532 61.4651 22.55 57.2696 22.7866C53.1109 22.5579 49.3985 25.3746 48.4989 29.4411H66.2002V29.4411ZM74.2789 32.1031C74.2789 24.1023 80.0377 18.2271 88.2977 18.0396L88.706 18.0351C90.5883 17.9606 92.466 18.271 94.2242 18.9475C95.9823 19.6239 97.5839 20.6521 98.9308 21.9692C100.278 23.2862 101.342 24.8642 102.057 26.6068C102.773 28.3493 103.126 30.2196 103.093 32.1031C103.093 40.2882 97.1839 46.184 88.706 46.184C80.228 46.184 74.2789 40.2882 74.2789 32.1031V32.1031ZM97.7297 32.1031C97.8013 30.8731 97.6117 29.642 97.1735 28.4905C96.7353 27.3391 96.0584 26.2934 95.1872 25.4222C94.316 24.5511 93.2704 23.8741 92.1189 23.4359C90.9674 22.9977 89.7363 22.8082 88.5063 22.8797C87.2815 22.8311 86.0598 23.0363 84.918 23.4825C83.7763 23.9286 82.7391 24.606 81.8717 25.4722C81.0043 26.3383 80.3254 27.3745 79.8776 28.5157C79.4298 29.6568 79.2229 30.8782 79.2697 32.1031C79.1982 33.3348 79.3881 34.5676 79.8269 35.7207C80.2658 36.8738 80.9437 37.9209 81.8161 38.7933C82.6885 39.6657 83.7357 40.3436 84.8887 40.7825C86.0418 41.2214 87.2747 41.4112 88.5063 41.3397C94.1096 41.4992 97.7297 37.5598 97.7297 32.1031V32.1031ZM142.755 19.8453V45.2655C142.755 51.9206 140.173 55.2608 133.518 55.2608H132.453V50.8824H133.066C136.393 50.8824 137.604 49.365 137.604 45.5586V19.8453H142.755ZM125.493 14.6545C126.774 15.0652 127.891 15.874 128.68 16.9631C129.47 18.0523 129.892 19.365 129.885 20.7104V37.1072H132.906V41.6458H129.885V48.0075H124.734V41.6458H111.717C110.52 41.6986 109.332 41.4149 108.287 40.8268C107.243 40.2387 106.384 39.3698 105.808 38.3185C105.333 37.3446 105.151 36.2531 105.286 35.1776C105.42 34.102 105.866 33.0891 106.567 32.2626L118.199 16.9704C119.002 15.8487 120.146 15.0171 121.461 14.5996C122.775 14.1822 124.19 14.2015 125.493 14.6545V14.6545ZM123.802 19.5392H123.35C123.136 19.5483 122.928 19.6087 122.743 19.7152C122.557 19.8218 122.401 19.9714 122.285 20.1514L110.812 35.1375C110.617 35.3419 110.507 35.6135 110.506 35.8962C110.506 36.2492 110.646 36.5876 110.896 36.8372C111.146 37.0867 111.484 37.2269 111.837 37.2269H124.707V20.7502C124.707 19.8453 124.108 19.5389 123.802 19.5389L123.802 19.5392Z" fill="black"/>
<path d="M140.173 8C137.747 8 135.781 9.96631 135.781 12.392C135.781 14.8177 137.747 16.784 140.173 16.784C142.598 16.784 144.565 14.8177 144.565 12.392C144.565 9.96659 142.599 8 140.173 8ZM16.0511 38.9174C15.1051 38.8682 14.1777 39.1933 13.4693 39.8223L8.62468 36.6546C8.75503 36.2649 8.80929 35.8538 8.78449 35.4436C8.78712 34.5744 8.53176 33.7239 8.05076 32.9999C7.56976 32.2759 6.88475 31.7109 6.08245 31.3764C5.28015 31.042 4.39665 30.9531 3.54382 31.1211C2.69098 31.2891 1.90716 31.7063 1.2916 32.32C0.676039 32.9337 0.256422 33.7163 0.0858774 34.5686C-0.0846672 35.4209 0.00153064 36.3047 0.333557 37.108C0.665584 37.9113 1.22851 38.598 1.95105 39.0812C2.6736 39.5644 3.52327 39.8223 4.39249 39.8223C4.85924 39.8493 5.32669 39.7831 5.76765 39.6278C6.20861 39.4724 6.61428 39.2309 6.96106 38.9174L11.8057 42.2446C11.6857 42.6365 11.6363 43.0465 11.6591 43.4559C11.6348 43.865 11.6845 44.2753 11.8057 44.6669L6.96106 48.0074C6.23533 47.4162 5.32858 47.092 4.39249 47.0892C3.52383 47.0892 2.67469 47.3468 1.95243 47.8294C1.23017 48.312 0.667231 48.9979 0.334811 49.8005C0.00239127 50.603 -0.084585 51.4861 0.0848813 52.3381C0.254348 53.19 0.672645 53.9726 1.28688 54.5868C1.90111 55.2011 2.68369 55.6194 3.53565 55.7888C4.38762 55.9583 5.2707 55.8713 6.07324 55.5389C6.87577 55.2065 7.56171 54.6436 8.0443 53.9213C8.5269 53.199 8.78449 52.3499 8.78449 51.4812C8.81018 51.071 8.75626 50.6596 8.62468 50.2699L13.4693 46.9427C14.1998 47.533 15.1119 47.8527 16.0511 47.8476C16.6273 47.8477 17.1978 47.734 17.73 47.5131C18.2621 47.2923 18.7454 46.9685 19.1522 46.5605C19.559 46.1525 19.8813 45.6682 20.1006 45.1354C20.3199 44.6026 20.4319 44.0318 20.4301 43.4556C20.4454 41.0048 18.5014 38.9896 16.0511 38.9174" fill="#018BFF"/>
</svg>
