<svg width="105" height="64" viewBox="0 0 105 64" fill="none" xmlns="http://www.w3.org/2000/svg">
<path d="M51.6427 64C51.2999 64 50.957 63.902 50.6468 63.7388L47.512 61.8775C47.0385 61.6162 47.2671 61.5183 47.4303 61.4693C48.0508 61.257 48.1814 61.2081 48.8508 60.8162C48.9161 60.7836 49.0141 60.7999 49.0794 60.8325L51.4958 62.2693C51.5774 62.3183 51.708 62.3183 51.7897 62.2693L61.2268 56.8161C61.3084 56.7671 61.3737 56.6691 61.3737 56.5548V45.6646C61.3737 45.5503 61.3247 45.4524 61.2268 45.4034L51.7897 39.9665C51.708 39.9175 51.5937 39.9175 51.4958 39.9665L42.0587 45.4034C41.9607 45.4524 41.9118 45.5667 41.9118 45.6646V56.5548C41.9118 56.6528 41.9771 56.7508 42.0587 56.7997L44.6384 58.2855C46.0425 58.9876 46.9079 58.1549 46.9079 57.3385V46.5789C46.9079 46.432 47.0221 46.3014 47.1854 46.3014H48.3773C48.5242 46.3014 48.6549 46.4157 48.6549 46.5789V57.3385C48.6549 59.2162 47.6426 60.2774 45.8629 60.2774C45.3241 60.2774 44.8833 60.2774 43.6914 59.6896L41.2097 58.2692C40.6056 57.91 40.2137 57.2569 40.2137 56.5548V45.6646C40.2137 44.9626 40.5893 44.2932 41.2097 43.9503L50.6468 38.497C51.2509 38.1541 52.0346 38.1541 52.6224 38.497L62.0594 43.9503C62.6635 44.3095 63.0554 44.9626 63.0554 45.6646V56.5548C63.0554 57.2569 62.6799 57.9263 62.0594 58.2692L52.6224 63.7224C52.3448 63.902 52.0019 64 51.6427 64ZM59.2675 53.2567C59.2675 51.2159 57.896 50.6771 54.9898 50.2852C52.0509 49.8934 51.757 49.6974 51.757 49.0117C51.757 48.4402 52.0019 47.6892 54.1734 47.6892C56.1164 47.6892 56.8348 48.1137 57.1286 49.4199C57.1613 49.5505 57.2593 49.6321 57.3899 49.6321H58.6144C58.6961 49.6321 58.7614 49.5995 58.8103 49.5505C58.8593 49.4852 58.892 49.4199 58.8757 49.3382C58.6797 47.0851 57.194 46.0401 54.1734 46.0401C51.4795 46.0401 49.8794 47.183 49.8794 49.077C49.8794 51.1505 51.4795 51.7057 54.0591 51.9669C57.145 52.2771 57.3899 52.7179 57.3899 53.3221C57.3899 54.3833 56.5409 54.8241 54.549 54.8241C52.0509 54.8241 51.4958 54.2037 51.3162 52.9629C51.2999 52.8322 51.1856 52.7343 51.0386 52.7343H49.8141C49.6671 52.7343 49.5365 52.8486 49.5365 53.0118C49.5365 54.5956 50.4019 56.4895 54.5326 56.4895C57.5532 56.4895 59.2675 55.314 59.2675 53.2567ZM68.1658 45.0768C68.1658 46.0728 67.3494 46.8892 66.3535 46.8892C65.3575 46.8892 64.5412 46.0728 64.5412 45.0768C64.5412 44.0482 65.3902 43.2645 66.3535 43.2645C67.3331 43.2482 68.1658 44.0482 68.1658 45.0768ZM67.8719 45.0768C67.8719 44.2278 67.1862 43.5584 66.3372 43.5584C65.5045 43.5584 64.8187 44.2278 64.8187 45.0768C64.8187 45.9259 65.5045 46.6116 66.3372 46.6116C67.1862 46.5953 67.8719 45.9095 67.8719 45.0768ZM67.1372 46.0891H66.7127C66.6963 45.9912 66.631 45.4687 66.631 45.4524C66.5984 45.3381 66.5657 45.2728 66.4188 45.2728H66.0596V46.0891H65.6677V44.0482H66.3698C66.6147 44.0482 67.0882 44.0482 67.0882 44.587C67.0882 44.9626 66.8433 45.0442 66.6963 45.0932C66.9739 45.1095 66.9902 45.2891 67.0392 45.5503C67.0555 45.7136 67.0882 45.9912 67.1372 46.0891ZM66.68 44.6523C66.68 44.3748 66.4841 44.3748 66.3861 44.3748H66.0596V44.9462H66.3698C66.631 44.9462 66.68 44.7666 66.68 44.6523ZM22.4172 21.3862C22.4172 20.9453 22.1886 20.5535 21.8131 20.3412L11.8045 14.5778C11.6412 14.4798 11.4453 14.4308 11.2494 14.4145H11.1514C10.9555 14.4145 10.7759 14.4798 10.5963 14.5778L0.604104 20.3412C0.22858 20.5535 0 20.9617 0 21.3862L0.0163271 36.897C0.0163271 37.1092 0.130617 37.3051 0.310216 37.4194C0.489814 37.5337 0.718394 37.5337 0.91432 37.4194L6.8574 34.007C7.23292 33.7785 7.4615 33.3866 7.4615 32.9621V25.7129C7.4615 25.2884 7.69008 24.8802 8.0656 24.6679L10.5963 23.2148C10.7922 23.1005 10.9882 23.0515 11.2004 23.0515C11.4127 23.0515 11.6249 23.1005 11.8045 23.2148L14.3352 24.6679C14.7107 24.8802 14.9393 25.2884 14.9393 25.7129V32.9621C14.9393 33.3866 15.1679 33.7948 15.5434 34.007L21.4865 37.4194C21.6661 37.5337 21.911 37.5337 22.0906 37.4194C22.2702 37.3215 22.3845 37.1092 22.3845 36.897L22.4172 21.3862ZM77.1457 4.45494V33.256C77.1457 33.6805 76.9171 34.0887 76.5416 34.3009L66.5331 40.0807C66.1576 40.293 65.7004 40.293 65.3249 40.0807L55.3163 34.3009C54.9408 34.0887 54.7122 33.6805 54.7122 33.256V21.6964C54.7122 21.2719 54.9408 20.8637 55.3163 20.6515L65.3249 14.8716C65.7004 14.6594 66.1576 14.6594 66.5331 14.8716L69.0311 16.3084C69.3087 16.4717 69.6679 16.2595 69.6679 15.9492V0.601733C69.6679 0.144573 70.1577 -0.149315 70.5659 0.0792645L76.5253 3.41C76.9008 3.60593 77.1457 4.0141 77.1457 4.45494ZM69.6352 25.5006C69.6352 25.3863 69.5699 25.2884 69.4883 25.2394L66.0596 23.2475C65.9616 23.1985 65.8473 23.1985 65.7494 23.2475L62.3207 25.2394C62.2227 25.2884 62.1737 25.3863 62.1737 25.5006V29.4681C62.1737 29.5824 62.239 29.6804 62.3207 29.7293L65.7494 31.7049C65.8473 31.7539 65.9616 31.7539 66.0433 31.7049L69.472 29.7293C69.5699 29.6804 69.6189 29.5824 69.6189 29.4681V25.5006H69.6352ZM103.89 25.3863C104.265 25.1741 104.494 24.7659 104.494 24.3414V21.5494C104.494 21.1249 104.265 20.7168 103.89 20.5045L93.9463 14.7247C93.5708 14.5125 93.1137 14.5125 92.7381 14.7247L82.7296 20.5045C82.3541 20.7168 82.1255 21.1249 82.1255 21.5494V33.1091C82.1255 33.5499 82.3541 33.9417 82.7296 34.154L92.6728 39.8195C93.032 40.0318 93.4892 40.0318 93.8647 39.8195L99.8731 36.4724C100.281 36.2439 100.281 35.6561 99.8731 35.4275L89.7992 29.6477C89.6033 29.5334 89.489 29.3375 89.489 29.1252V25.5006C89.489 25.2884 89.6033 25.0924 89.7992 24.9781L92.9341 23.1658C93.1137 23.0515 93.3586 23.0515 93.5382 23.1658L96.673 24.9781C96.8526 25.0924 96.9832 25.2884 96.9832 25.5006V28.3415C96.9832 28.7987 97.4893 29.0926 97.8975 28.864L103.89 25.3863ZM91.2687 25.9578C91.2034 26.0068 91.1544 26.0721 91.1544 26.1537V28.3742C91.1544 28.4558 91.2034 28.5375 91.2687 28.5701L93.1953 29.6804C93.2606 29.7293 93.3586 29.7293 93.4239 29.6804L95.3505 28.5701C95.4158 28.5211 95.4648 28.4558 95.4648 28.3742V26.1537C95.4648 26.0721 95.4158 25.9904 95.3505 25.9578L93.4239 24.8475C93.3586 24.7985 93.2606 24.7985 93.1953 24.8475L91.2687 25.9578ZM49.7651 33.0601V21.5658C49.7651 21.1413 49.5039 20.7331 49.1284 20.5208L39.1525 14.7737C38.8096 14.5778 38.3361 14.5451 37.9443 14.7737L27.9684 20.5208C27.5929 20.7331 27.3316 21.1249 27.3316 21.5658V33.0601C27.3316 33.5172 27.6418 33.9091 27.9847 34.105L37.9769 39.8522C38.3688 40.0807 38.8259 40.0644 39.1851 39.8522L49.1447 34.105C49.4386 33.9417 49.6508 33.6642 49.7325 33.3376C49.7488 33.256 49.7651 33.158 49.7651 33.0601ZM37.634 12.6675L37.5034 12.7491H37.683L37.634 12.6675ZM50.0753 33.9254L50.01 33.8111V33.9581L50.0753 33.9254Z" fill="#047857"/>
</svg>
