<svg width="64" height="66" viewBox="0 0 64 66" fill="none" xmlns="http://www.w3.org/2000/svg">
<path d="M63.752 39.5214C63.3683 38.3592 62.363 37.5497 61.063 37.3554C60.45 37.2639 59.748 37.3029 58.9173 37.4742C57.4693 37.7729 56.395 37.8867 55.611 37.9087C58.5703 32.9124 60.9765 27.2149 62.3618 21.8517C64.6018 13.1794 63.4048 9.2287 62.006 7.4417C58.3043 2.7117 52.9035 0.170697 46.388 0.0929469C42.9123 0.0504469 39.861 0.736697 38.2693 1.2302C36.7873 0.968697 35.1938 0.822697 33.5218 0.795697C30.3875 0.745697 27.6183 1.42895 25.252 2.8332C23.942 2.3902 21.8395 1.7657 19.4115 1.3672C13.701 0.429697 9.09853 1.1602 5.73203 3.53845C1.65553 6.41795 -0.234222 11.4209 0.115278 18.4084C0.226278 20.6269 1.46728 27.3769 3.42128 33.7784C4.54428 37.4579 5.74178 40.5134 6.98053 42.8609C8.73728 46.1897 10.617 48.1499 12.7273 48.8539C13.91 49.2479 16.059 49.5239 18.3193 47.6414C18.6058 47.9884 18.988 48.3332 19.4953 48.6534C20.1395 49.0597 20.9273 49.3917 21.714 49.5884C24.5493 50.2972 27.205 50.1199 29.4708 49.1264C29.4848 49.5294 29.4955 49.9144 29.5045 50.2469C29.5195 50.7862 29.5345 51.3149 29.5543 51.8094C29.6885 55.1529 29.916 57.7527 30.59 59.5717C30.627 59.6717 30.6768 59.8242 30.7293 59.9859C31.0655 61.0154 31.6278 62.7389 33.0583 64.0887C34.5395 65.4869 36.3313 65.9157 37.9723 65.9157C38.7953 65.9157 39.5805 65.8077 40.2693 65.6602C42.7243 65.1339 45.5125 64.3324 47.5295 61.4604C49.4365 58.7454 50.3635 54.6562 50.5313 48.2129C50.553 48.0307 50.573 47.8567 50.5923 47.6909L50.6323 47.3504L51.0815 47.3899L51.1973 47.3977C53.6978 47.5117 56.7553 46.9814 58.633 46.1092C60.1168 45.4207 64.8715 42.9104 63.752 39.5214" fill="black"/>
<path d="M59.4765 40.1805C52.0415 41.7142 51.5302 39.197 51.5302 39.197C59.3802 27.5487 62.662 12.763 59.8302 9.14421C52.1042 -0.727043 38.7305 3.94146 38.5072 4.06246L38.4355 4.07546C36.9665 3.77046 35.3227 3.58896 33.475 3.55871C30.111 3.50371 27.559 4.44071 25.6225 5.90921C25.6225 5.90921 1.76496 -3.91929 2.87471 18.2702C3.11071 22.9907 9.64071 53.9885 17.4292 44.6257C20.276 41.202 23.0267 38.3072 23.0267 38.3072C24.3927 39.2147 26.0282 39.6777 27.7427 39.5115L27.876 39.3985C27.8345 39.8235 27.8535 40.2392 27.9292 40.7315C25.9227 42.9732 26.5125 43.3667 22.5015 44.1925C18.4427 45.029 20.827 46.518 22.3837 46.9075C24.271 47.3792 28.637 48.0477 31.587 43.918L31.4695 44.3892C32.2555 45.019 32.8075 48.485 32.715 51.6272C32.6225 54.7692 32.5607 56.9265 33.18 58.6115C33.7997 60.2965 34.417 64.0877 39.69 62.958C44.0957 62.0137 46.379 59.567 46.6967 55.4855C46.922 52.584 47.4322 53.013 47.4642 50.4187L47.8735 49.1907C48.3452 45.2575 47.9485 43.9885 50.6627 44.5787L51.3227 44.6367C53.3202 44.7275 55.9352 44.3152 57.47 43.602C60.7745 42.0685 62.7345 39.5077 59.476 40.1805H59.4765" fill="#336791"/>
<path d="M27.0191 20.3812C26.3491 20.288 25.7423 20.3742 25.4353 20.6067C25.2628 20.7375 25.2093 20.889 25.1948 20.9932C25.1563 21.2695 25.3498 21.575 25.4688 21.7325C25.8053 22.1785 26.2968 22.485 26.7833 22.5525C26.8538 22.5625 26.9241 22.567 26.9938 22.567C27.8051 22.567 28.5428 21.9352 28.6078 21.469C28.6891 20.885 27.8413 20.4957 27.0191 20.3815M49.2151 20.3997C49.1511 19.942 48.3366 19.8115 47.5636 19.919C46.7916 20.0265 46.0431 20.375 46.1056 20.8337C46.1556 21.1905 46.7998 21.7995 47.5623 21.7995C47.6268 21.7995 47.6918 21.7952 47.7573 21.786C48.2663 21.7155 48.6398 21.3922 48.8173 21.206C49.0873 20.922 49.2438 20.6055 49.2151 20.3997" fill="white"/>
<path d="M61.9505 40.0063C61.667 39.149 60.7545 38.8733 59.2385 39.1863C54.7372 40.1153 53.1252 39.4718 52.596 39.082C56.0947 33.752 58.973 27.309 60.5257 21.2978C61.2612 18.4503 61.6675 15.8058 61.7007 13.6503C61.7375 11.2845 61.3345 9.54602 60.5035 8.48402C57.153 4.20277 52.2355 1.90627 46.283 1.84327C42.1907 1.79727 38.7332 2.84452 38.063 3.13902C36.6515 2.78802 35.1127 2.57252 33.4375 2.54502C30.3655 2.49527 27.71 3.23077 25.5115 4.73002C24.5565 4.37452 22.0885 3.52727 19.0702 3.04102C13.8522 2.20102 9.70573 2.83752 6.74673 4.93377C3.21598 7.43527 1.58598 11.9068 1.90173 18.2238C2.00798 20.349 3.21898 26.887 5.12998 33.1483C7.64548 41.3893 10.38 46.0545 13.257 47.0143C13.5937 47.1265 13.982 47.205 14.4102 47.205C15.4597 47.205 16.7465 46.732 18.0852 45.1225C19.7181 43.1637 21.4072 41.2524 23.1505 39.391C24.2815 39.998 25.524 40.337 26.7947 40.371C26.7972 40.4043 26.8005 40.4375 26.8035 40.4705C26.5847 40.7314 26.3705 40.996 26.161 41.2643C25.2805 42.382 25.0972 42.6148 22.263 43.1983C21.4567 43.3648 19.3155 43.806 19.284 45.307C19.25 46.947 21.8152 47.6358 22.1075 47.7088C23.126 47.9638 24.1072 48.0895 25.043 48.0895C27.3187 48.0895 29.3215 47.3415 30.922 45.8943C30.8727 51.7408 31.1165 57.5018 31.8185 59.257C32.3935 60.694 33.798 64.2058 38.2345 64.2055C38.8855 64.2055 39.602 64.1298 40.3902 63.9608C45.0205 62.9683 47.0312 60.9218 47.809 56.41C48.2252 53.9988 48.9395 48.241 49.2755 45.1525C49.9845 45.3738 50.8972 45.475 51.884 45.4748C53.942 45.4748 56.3167 45.0375 57.806 44.3463C59.479 43.5693 62.498 41.6628 61.9505 40.0063V40.0063ZM50.924 19.1363C50.9087 20.048 50.7832 20.8758 50.6502 21.7398C50.507 22.669 50.359 23.6298 50.3217 24.796C50.285 25.931 50.4267 27.111 50.5637 28.2523C50.8407 30.5573 51.125 32.9303 50.0247 35.2718C49.842 34.9479 49.6792 34.6132 49.5372 34.2695C49.4005 33.938 49.1035 33.4055 48.6922 32.6685C47.0925 29.7995 43.3462 23.081 45.264 20.3395C45.8352 19.5235 47.285 18.6845 50.924 19.1363V19.1363ZM46.513 3.68952C51.8465 3.80727 56.0655 5.80252 59.0525 9.61952C61.3435 12.5473 58.8207 25.869 51.5175 37.3618C51.444 37.2684 51.3702 37.1753 51.296 37.0825L51.2035 36.967C53.0907 33.8503 52.7217 30.7665 52.3932 28.0325C52.2582 26.9105 52.1307 25.8508 52.1632 24.8553C52.1967 23.8003 52.3362 22.8953 52.4712 22.0203C52.637 20.942 52.8057 19.8263 52.7592 18.511C52.794 18.373 52.808 18.21 52.7897 18.0165C52.671 16.7553 51.231 12.9805 48.296 9.56402C46.6905 7.69527 44.3492 5.60402 41.1525 4.19352C42.5275 3.90852 44.4077 3.64277 46.513 3.68952V3.68952ZM16.6685 43.9445C15.1935 45.718 14.175 45.378 13.84 45.2665C11.6575 44.5385 9.12498 39.9255 6.89223 32.6105C4.96023 26.281 3.83123 19.9163 3.74173 18.1315C3.45973 12.487 4.82798 8.55327 7.80873 6.43927C12.6597 2.99927 20.6352 5.05827 23.84 6.10252C23.794 6.14802 23.746 6.19052 23.7005 6.23677C18.4415 11.5478 18.5662 20.6218 18.5792 21.1765C18.5787 21.3905 18.5967 21.6935 18.6212 22.1103C18.7117 23.6365 18.8802 26.477 18.4302 29.6938C18.0122 32.683 18.9337 35.6088 20.958 37.721C21.1657 37.9374 21.3841 38.1433 21.6122 38.338C20.7112 39.303 18.753 41.437 16.6685 43.9445V43.9445ZM22.2882 36.4463C20.6567 34.7438 19.9157 32.3758 20.255 29.9488C20.73 26.5508 20.5547 23.5913 20.4605 22.0013C20.4472 21.7788 20.4355 21.5838 20.4287 21.43C21.197 20.7488 24.7572 18.8413 27.2962 19.423C28.4547 19.6883 29.1607 20.4773 29.4542 21.8343C30.9732 28.86 29.6552 31.7883 28.5962 34.1415C28.378 34.6263 28.1717 35.0845 27.9957 35.5585L27.8592 35.925C27.5137 36.8515 27.1922 37.713 26.993 38.531C25.2585 38.526 23.5712 37.785 22.2882 36.446V36.4463ZM22.5545 45.9213C22.048 45.7948 21.5925 45.575 21.3252 45.3928C21.5485 45.2878 21.9457 45.1448 22.6347 45.0028C25.969 44.3165 26.484 43.832 27.6085 42.4043C27.8662 42.0768 28.1585 41.7058 28.5632 41.2538L28.5637 41.2533C29.1665 40.5783 29.4422 40.6928 29.9422 40.9003C30.3475 41.0678 30.7422 41.5758 30.9022 42.1348C30.978 42.3988 31.063 42.8998 30.7847 43.2898C28.4357 46.5788 25.0127 46.5365 22.5545 45.9213V45.9213ZM40.0042 62.1593C35.9252 63.0333 34.481 60.952 33.5292 58.5728C32.915 57.0368 32.613 50.1103 32.8272 42.461C32.83 42.3593 32.8155 42.261 32.7875 42.1685C32.7624 41.9859 32.7243 41.8052 32.6735 41.628C32.355 40.515 31.5787 39.584 30.6475 39.198C30.2775 39.0448 29.5985 38.7635 28.7825 38.9723C28.9565 38.2553 29.2582 37.4455 29.5855 36.5688L29.7227 36.2C29.8772 35.7843 30.0712 35.3535 30.2762 34.8975C31.3845 32.4355 32.9022 29.0633 31.255 21.445C30.638 18.5915 28.5775 17.198 25.454 17.5218C23.5815 17.7155 21.8682 18.471 21.0137 18.9043C20.83 18.9973 20.662 19.0873 20.505 19.1748C20.7435 16.2998 21.6445 10.9268 25.015 7.52727C27.1372 5.38727 29.9635 4.33027 33.407 4.38727C40.192 4.49827 44.543 7.98027 46.9985 10.882C49.1145 13.3823 50.2602 15.901 50.7175 17.2595C47.2787 16.9098 44.94 17.5885 43.7545 19.2835C41.1752 22.9705 45.1655 30.1265 47.0832 33.5658C47.435 34.196 47.7385 34.7408 47.834 34.9723C48.4585 36.4858 49.267 37.4963 49.8572 38.2338C50.0382 38.4598 50.2137 38.679 50.3472 38.8705C49.3057 39.1708 47.435 39.8645 47.6055 43.3323C47.468 45.0723 46.4902 53.2188 45.9935 56.097C45.3377 59.8995 43.9385 61.3158 40.0042 62.1595V62.1593ZM57.0302 42.6753C55.9652 43.1695 54.183 43.5403 52.49 43.62C50.62 43.7075 49.668 43.4105 49.444 43.2278C49.339 41.0668 50.1432 40.841 50.9945 40.602C51.1282 40.5645 51.2587 40.5278 51.3847 40.4838C51.463 40.5475 51.5487 40.6108 51.6427 40.6728C53.1457 41.6648 55.8265 41.7718 59.6112 40.9905L59.6527 40.9823C59.1422 41.4595 58.2687 42.1 57.0302 42.6753Z" fill="white"/>
</svg>
