<svg width="170" height="64" viewBox="0 0 170 64" fill="none" xmlns="http://www.w3.org/2000/svg">
<path d="M124.955 52.4747L129.86 40.0716H144.022L137.301 21.2566L145.707 0L169.782 63.9234H152.027L147.913 52.4747H124.955Z" fill="#3D3D3D"/>
<path d="M109.808 63.9237L135.581 0L118.494 0.000331606L100.864 41.3088L88.3269 0.000331606H75.193L61.7314 41.3088L52.2379 22.4856L43.647 48.9534L52.3695 63.9237H69.1853L81.3496 26.8787L92.9479 63.9237H109.808Z" fill="#5A0FC8"/>
<path d="M16.2195 41.9797H26.744C29.9321 41.9797 32.771 41.6239 35.2607 40.9119L37.9825 32.5266L45.5896 9.09065C45.0053 8.16575 44.3411 7.29383 43.6046 6.48489C39.6986 2.16141 33.9843 0 26.4605 0H0V63.9237H16.2195V41.9797V41.9797ZM30.1503 14.7061C31.676 16.2414 32.4387 18.2964 32.4387 20.8706C32.4387 23.4645 31.7679 25.5217 30.4262 27.0422C28.9555 28.7317 26.2473 29.5763 22.3018 29.5763H16.2195V12.4034H22.3463C26.0238 12.4034 28.6249 13.1711 30.1503 14.7064V14.7061Z" fill="#3D3D3D"/>
</svg>
