<svg width="72" height="64" viewBox="0 0 72 64" fill="none" xmlns="http://www.w3.org/2000/svg">
<path d="M35.9621 38.3574C39.5087 38.3574 42.3839 35.4822 42.3839 31.9356C42.3839 28.3889 39.5087 25.5138 35.9621 25.5138C32.4154 25.5138 29.5403 28.3889 29.5403 31.9356C29.5403 35.4822 32.4154 38.3574 35.9621 38.3574Z" fill="#00D8FF"/>
<path d="M35.962 46.6595C28.2434 46.8462 20.5441 45.8058 13.1518 43.5771C9.73704 42.4946 6.55212 40.7893 3.75803 38.5475C2.69184 37.7817 1.80394 36.7942 1.15526 35.653C0.506583 34.5117 0.112483 33.2436 0 31.9356C0 27.6896 4.66479 23.5282 12.4788 20.8054C20.0687 18.3927 27.9988 17.2234 35.962 17.3428C43.819 17.233 51.6429 18.3812 59.137 20.7437C62.4257 21.7922 65.5026 23.415 68.2251 25.537C69.2731 26.2671 70.1477 27.2188 70.7869 28.3245C71.4261 29.4303 71.8144 30.6631 71.9241 31.9356C71.9241 36.3487 66.7096 40.8208 58.3099 43.6002C51.0608 45.7563 43.5239 46.7881 35.962 46.6595V46.6595ZM35.962 20.415C28.3435 20.3131 20.7574 21.4247 13.4883 23.708C6.29593 26.2177 3.07219 29.6495 3.07219 31.9279C3.07219 34.3117 6.53739 38.0595 14.1459 40.6616C21.2178 42.783 28.5811 43.7705 35.962 43.5874C43.1966 43.7167 50.4083 42.7378 57.3466 40.6847C65.2454 38.0672 68.8416 34.3143 68.8416 31.9356C68.712 31.1194 68.4146 30.3389 67.968 29.6434C67.5214 28.9479 66.9355 28.3526 66.2472 27.8951C63.8114 26.0126 61.0628 24.5743 58.1275 23.6464C50.9583 21.3956 43.4755 20.3047 35.962 20.415V20.415Z" fill="#00D8FF"/>
<path d="M21.3718 63.9648C20.1735 63.9923 18.9893 63.7016 17.94 63.1223C14.2616 61.0005 12.9875 54.8819 14.5313 46.7519C16.2334 38.9715 19.1827 31.5176 23.2649 24.6789C27.0942 17.8181 31.9965 11.6142 37.7859 6.30227C40.337 3.97682 43.28 2.12179 46.4784 0.823195C47.6353 0.281039 48.8972 0 50.1748 0C51.4524 0 52.7143 0.281039 53.8712 0.823195C57.696 3.02715 58.9624 9.77774 57.1771 18.442C55.4224 25.8003 52.5497 32.846 48.6593 39.3334C44.9648 46.1132 40.2169 52.2631 34.593 57.5533C31.9492 59.9699 28.881 61.8763 25.5434 63.1762C24.2072 63.6722 22.7968 63.9388 21.3718 63.9648V63.9648ZM25.9261 26.2047C22.0322 32.7532 19.2055 39.8798 17.5521 47.317C16.1316 54.8048 17.4956 59.3078 19.4786 60.4534C21.5336 61.6427 26.5221 60.5151 32.5791 55.2235C37.9478 50.1553 42.4795 44.2684 46.0058 37.7819C49.7328 31.5798 52.4884 24.8436 54.1769 17.8076C55.8568 9.65188 54.4055 4.65829 52.3454 3.47154C51.5733 3.17569 50.7481 3.04326 49.9222 3.08261C49.0963 3.12196 48.2875 3.33224 47.547 3.70016C44.7001 4.87495 42.0827 6.54278 39.8152 8.62696C34.2839 13.715 29.6012 19.6543 25.9441 26.2201L25.9261 26.2047Z" fill="#00D8FF"/>
<path d="M50.5447 63.9983C47.0641 63.9983 42.6433 61.892 38.0402 57.9336C32.1493 52.5734 27.1642 46.2957 23.2777 39.3438C19.2467 32.5992 16.3208 25.2532 14.6109 17.5841C13.8693 14.2101 13.7319 10.7313 14.205 7.30928C14.3144 6.03984 14.701 4.80985 15.3374 3.70604C15.9739 2.60224 16.8447 1.65151 17.8886 0.92088C21.7083 -1.29079 28.1891 0.982529 34.8036 6.85462C40.3022 12.049 44.9716 18.056 48.649 24.6661C52.6775 31.2532 55.6341 38.4384 57.4083 45.9531C58.1818 49.4509 58.3011 53.0617 57.7602 56.603C57.6315 57.9089 57.2219 59.1716 56.5595 60.3044C55.8971 61.4373 54.9976 62.4134 53.9225 63.166C52.8903 63.7381 51.7245 64.0254 50.5447 63.9983V63.9983ZM25.9364 37.7974C29.6647 44.4412 34.4267 50.4492 40.0438 55.596C45.8208 60.5665 50.4034 61.6351 52.3736 60.4766C54.4286 59.2821 55.9441 54.4067 54.3823 46.5182C52.6713 39.3436 49.8354 32.485 45.9801 26.1971C42.4708 19.8706 38.0138 14.1186 32.764 9.14078C26.5374 3.6129 21.4874 2.37734 19.4298 3.56923C18.7885 4.09037 18.2622 4.73883 17.8842 5.47364C17.5062 6.20846 17.2847 7.01367 17.2336 7.83844C16.8251 10.8903 16.9582 13.9903 17.6266 16.9959C19.2713 24.33 22.0775 31.3541 25.9389 37.8025L25.9364 37.7974Z" fill="#00D8FF"/>
</svg>
