<svg width="75" height="64" viewBox="0 0 75 64" fill="none" xmlns="http://www.w3.org/2000/svg">
<path d="M71.5549 49.147C67.5805 51.2186 46.9923 59.6838 42.6092 61.9689C38.226 64.2543 35.7911 64.2321 32.3284 62.5769C28.866 60.9216 6.95651 52.0716 3.00975 50.185C1.03738 49.2425 0 48.4465 0 47.6948V40.1673C0 40.1673 28.5236 33.9578 33.1284 32.3057C37.7329 30.6537 39.3306 30.594 43.2492 32.0294C47.1683 33.4653 70.5999 37.6928 74.4727 39.1113L74.471 46.5324C74.4716 47.2765 73.5779 48.0928 71.5549 49.147" fill="#912626"/>
<path d="M71.5534 41.664C67.5793 43.7347 46.9916 52.2002 42.6085 54.485C38.2257 56.7707 35.7908 56.7483 32.3284 55.093C28.8657 53.4389 6.95703 44.5874 3.01055 42.702C-0.93592 40.8155 -1.01854 39.5171 2.85812 37.9992C6.73477 36.4806 28.5233 27.9323 33.1287 26.2802C37.7332 24.6287 39.3306 24.5685 43.2491 26.0044C47.1679 27.4397 67.6328 35.5855 71.5051 37.0037C75.3788 38.4236 75.5275 39.5928 71.5534 41.664" fill="#C6302B"/>
<path d="M71.5549 36.9669C67.5805 39.0388 46.9923 47.5037 42.6092 49.7896C38.226 52.0741 35.7911 52.052 32.3284 50.3968C28.8657 48.7424 6.95651 39.8914 3.00975 38.0049C1.03738 37.0624 0 36.2676 0 35.5156V27.9872C0 27.9872 28.5236 21.778 33.1284 20.1259C37.7329 18.4739 39.3306 18.4139 43.2492 19.8496C47.1686 21.2852 70.6001 25.5118 74.4727 26.9306L74.471 34.3525C74.4716 35.0964 73.5779 35.9127 71.5549 36.9669Z" fill="#912626"/>
<path d="M71.5534 29.484C67.5793 31.5552 46.9916 40.0201 42.6085 42.3058C38.2257 44.5906 35.7908 44.5682 32.3284 42.9129C28.8657 41.2588 6.95703 32.4076 3.01055 30.5219C-0.93592 28.636 -1.01854 27.3373 2.85812 25.8188C6.73477 24.3011 28.5236 15.7522 33.1287 14.1004C37.7332 12.4486 39.3306 12.3887 43.2491 13.8243C47.1679 15.2597 67.6328 23.4048 71.5051 24.8236C75.3788 26.2432 75.5275 27.4127 71.5534 29.484" fill="#C6302B"/>
<path d="M71.5549 24.3354C67.5805 26.4066 46.9923 34.8721 42.6092 37.1581C38.226 39.4429 35.7911 39.4205 32.3284 37.7652C28.8657 36.1108 6.95651 27.2596 3.00975 25.3739C1.03738 24.4305 0 23.6354 0 22.8843V15.3556C0 15.3556 28.5236 9.14671 33.1284 7.49493C37.7329 5.84257 39.3306 5.78322 43.2492 7.21857C47.1686 8.6542 70.6001 12.8808 74.4727 14.2996L74.471 21.7213C74.4716 22.4645 73.5779 23.2808 71.5549 24.3354Z" fill="#912626"/>
<path d="M71.5535 16.8524C67.5794 18.9237 46.9917 27.3891 42.6086 29.6739C38.2258 31.9587 35.7909 31.9363 32.3285 30.2819C28.8661 28.6266 6.95712 19.776 3.01094 17.8901C-0.935821 16.0044 -1.01815 14.7055 2.85822 13.1872C6.73487 11.6693 28.5237 3.12148 33.1288 1.46912C37.7333 -0.182957 39.3307 -0.242302 43.2492 1.19333C47.168 2.62897 67.6329 10.7741 71.5052 12.1929C75.3789 13.6114 75.5276 14.7811 71.5535 16.8524" fill="#C6302B"/>
<path d="M46.3369 9.52933L39.934 10.1941L38.5007 13.6431L36.1856 9.79435L28.7922 9.12992L34.309 7.14039L32.6537 4.08643L37.8188 6.1065L42.688 4.51232L41.372 7.67013L46.3369 9.52933M38.1184 26.2618L26.1688 21.3056L43.2917 18.6773L38.1184 26.2618M21.5512 11.4464C26.6057 11.4464 30.7032 13.0348 30.7032 14.9938C30.7032 16.9533 26.6057 18.5414 21.5512 18.5414C16.4966 18.5414 12.3992 16.953 12.3992 14.9938C12.3992 13.0348 16.4966 11.4464 21.5512 11.4464" fill="white"/>
<path d="M53.9041 10.4721L64.0382 14.4767L53.9128 18.4776L53.9041 10.4718" fill="#621B1C"/>
<path d="M42.6924 14.9071L53.904 10.4722L53.9127 18.4777L52.8134 18.9077L42.6924 14.9071Z" fill="#9A2928"/>
</svg>
