<svg width="107" height="64" viewBox="0 0 107 64" fill="none" xmlns="http://www.w3.org/2000/svg">
<path d="M53.1948 0C39.0097 0 30.1436 7.09278 26.5974 21.2779C31.9169 14.1851 38.1228 11.5254 45.2156 13.2987C49.2621 14.3102 52.1546 17.2463 55.3563 20.4958C60.5718 25.7899 66.6078 31.9169 79.7922 31.9169C93.9774 31.9169 102.843 24.8241 106.39 10.639C101.07 17.7317 94.8642 20.3915 87.7714 18.6182C83.7249 17.6066 80.8324 14.6705 77.6308 11.4211C72.4152 6.12696 66.3792 0 53.1948 0ZM26.5974 31.9169C12.4123 31.9169 3.54618 39.0097 0 53.1948C5.31948 46.102 11.5254 43.4423 18.6182 45.2156C22.6647 46.2271 25.5572 49.1632 28.7589 52.4127C33.9744 57.7068 40.0104 63.8338 53.1948 63.8338C67.3799 63.8338 76.246 56.741 79.7922 42.5558C74.4727 49.6486 68.2668 52.3084 61.174 50.5351C57.1275 49.5235 54.235 46.5874 51.0334 43.338C45.8178 38.0438 39.7818 31.9169 26.5974 31.9169Z" fill="url(#paint0_linear_81_215)"/>
<defs>
<linearGradient id="paint0_linear_81_215" x1="-2.9555" y1="20.4268" x2="88.9293" y2="73.406" gradientUnits="userSpaceOnUse">
<stop stop-color="#2298BD"/>
<stop offset="1" stop-color="#0ED7B5"/>
</linearGradient>
</defs>
</svg>
