<svg width="71" height="64" viewBox="0 0 71 64" fill="none" xmlns="http://www.w3.org/2000/svg">
<path d="M38.0787 8.85339C38.4845 8.85341 38.8743 9.01197 39.1649 9.29527C39.4555 9.57857 39.6239 9.96419 39.6342 10.3699L39.6348 10.4094V28.2209C39.6348 28.6268 39.4763 29.0167 39.193 29.3073C38.9097 29.598 38.524 29.7664 38.1183 29.7767L38.0787 29.7773H23.5548C23.1489 29.7773 22.759 29.6188 22.4684 29.3354C22.1777 29.052 22.0093 28.6663 21.9991 28.2605L21.9988 28.2209V10.4094C21.9989 10.0036 22.1574 9.61385 22.4407 9.32323C22.724 9.03261 23.1096 8.86412 23.5153 8.85367L23.5548 8.85339H38.0787ZM38.0787 9.54558H23.5548C23.331 9.54564 23.1159 9.63243 22.9547 9.78773C22.7935 9.94302 22.6988 10.1547 22.6904 10.3784L22.6896 10.4094V28.2209C22.6899 28.4449 22.777 28.6601 22.9325 28.8213C23.088 28.9825 23.2999 29.0773 23.5238 29.0856L23.5548 29.0862H38.0787C38.3027 29.0858 38.5178 28.9987 38.6789 28.8432C38.8401 28.6876 38.9347 28.4758 38.9431 28.252L38.9437 28.2209V10.4094C38.9433 10.1802 38.852 9.96048 38.6898 9.79852C38.5275 9.63655 38.3077 9.54558 38.0784 9.54558H38.0787ZM25.6292 25.4544V26.491H24.5915V25.4544H25.6292ZM37.2151 25.4544V26.491H26.1486V25.4544H37.2146H37.2151ZM25.6292 20.9587V21.9954H24.5915V20.9587H25.6292ZM37.2151 20.9587V21.9954H26.1486V20.9587H37.2146H37.2151ZM25.6292 16.6358V17.6722H24.5915V16.6358H25.6292V16.6358ZM37.2151 16.6358V17.6722H26.1486V16.6358H37.2146H37.2151ZM37.2151 12.6585V13.6962H24.5912V12.6582H37.2146L37.2151 12.6585ZM38.0787 33.4063V33.4173C38.4828 33.4172 38.871 33.5744 39.1614 33.8554C39.4517 34.1365 39.6212 34.5195 39.6342 34.9234L39.6348 34.9626V52.7741C39.6348 53.18 39.4763 53.5699 39.193 53.8605C38.9097 54.1512 38.524 54.3196 38.1183 54.3299L38.0787 54.3305H23.5548C23.1503 54.3305 22.7616 54.173 22.4713 53.8914C22.1809 53.6097 22.0116 53.226 21.9993 52.8217L21.9988 52.7741V34.9626C21.9989 34.5568 22.1574 34.167 22.4407 33.8764C22.724 33.5858 23.1096 33.4173 23.5153 33.4069L23.5548 33.4066H38.0787V33.4063ZM38.0787 34.0988H23.5548C23.331 34.0988 23.1159 34.1856 22.9547 34.3409C22.7935 34.4962 22.6988 34.7079 22.6904 34.9316L22.6896 34.9626V52.7741C22.6899 52.9981 22.777 53.2133 22.9325 53.3745C23.088 53.5357 23.2999 53.6305 23.5238 53.6388L23.5548 53.6394H38.0787C38.3018 53.639 38.5162 53.5527 38.6772 53.3982C38.8382 53.2438 38.9334 53.0333 38.9431 52.8104L38.9437 52.7796V34.9681C38.9433 34.7443 38.8563 34.5293 38.7008 34.3684C38.5453 34.2074 38.3334 34.1129 38.1097 34.1048L38.0787 34.1043V34.0988ZM25.6292 50.0114V51.0494H24.5915V50.0114H25.6292ZM37.2151 50.0197V51.0415H26.1486V50.0197H37.2146H37.2151ZM25.6292 45.5158V46.5535H24.5915V45.5158H25.6292ZM37.2151 45.5237V46.5455H26.1486V45.5237H37.2146H37.2151ZM25.6292 41.194V42.2306H24.5915V41.194H25.6292ZM37.2151 41.2022V42.2227H26.1486V41.2017H37.2146L37.2151 41.2022ZM37.2151 37.2167V38.2544H24.5912V37.2167H37.2146H37.2151ZM42.2673 19.3153V20.1789H47.454V43.6724H42.2673V44.5374H48.319V19.3153H47.454H42.2673Z" fill="#8E8F8F"/>
<path d="M5.31008 4.06383C6.3327 2.38637 8.01758 1.40797 9.71948 0.839935L9.95159 0.764948L10.1834 0.694905C10.2993 0.66112 10.415 0.628982 10.5303 0.598768L10.7602 0.540261C10.7987 0.530922 10.8369 0.521583 10.8748 0.512793L11.1028 0.460605L11.2157 0.436158L11.4403 0.390287L11.6626 0.348536L11.8818 0.310081L12.0979 0.275472L12.3102 0.243884L12.5187 0.215866L12.7228 0.190871L12.9222 0.168622L13.1167 0.14912L13.398 0.124399L13.6658 0.105171L13.919 0.0908879L14.1943 0.0790768L14.4461 0.0719351L14.6 0.069463L14.7417 0.0683643H14.8711L15.0405 0.0705617L15.1361 0.0724845L15.3106 0.0785274L15.3875 0.0823729V4.23386C11.7156 3.88447 10.0771 4.99362 9.35471 6.17556L9.28961 6.28653C9.19982 6.44645 9.12223 6.61292 9.05751 6.78452L9.01851 6.89329C9.01219 6.91115 9.00615 6.929 9.00038 6.94713L8.96714 7.05425L8.93748 7.15945L8.91166 7.26273C8.90754 7.27976 8.90342 7.29679 8.89985 7.31355L8.8787 7.41381L8.86936 7.46325L8.85288 7.55939L8.83859 7.65278L8.82733 7.74315L8.81442 7.87224L8.80591 7.99283L8.80179 8.08732L8.79986 8.17494V8.2546L8.80124 8.32601L8.80398 8.38919L8.80865 8.4661L8.81744 8.55674V10.082L8.80838 13.1961L8.79739 15.4402L8.78476 17.3278L8.77102 18.9228L8.75729 20.1789L8.74136 21.4018L8.72488 22.4442L8.704 23.5487L8.69109 24.1241L8.67708 24.668L8.65895 25.2737L8.65264 25.4632L8.65209 25.8137L8.65016 26.0282L8.64769 26.1732L8.6422 26.3924L8.63341 26.6045L8.62627 26.7336L8.61803 26.8632L8.60759 26.9934L8.58891 27.189L8.57408 27.3197L8.55677 27.4508L8.53727 27.5818L8.52656 27.6471L8.50321 27.7779L8.49057 27.8433L8.46311 27.9737L8.43289 28.1039L8.39966 28.2339C8.38785 28.277 8.37576 28.3201 8.36285 28.363L8.32275 28.4921L8.27935 28.6198L8.2321 28.747C7.70033 30.1212 6.49614 31.3449 3.76996 31.9115C6.42225 32.4623 7.63385 33.6338 8.18733 34.9605L8.23787 35.0874C8.28676 35.2148 8.32989 35.3434 8.36779 35.4727L8.40433 35.6024C8.4274 35.6889 8.44827 35.776 8.4675 35.8633L8.49442 35.9941L8.50678 36.0597L8.52985 36.1907L8.55045 36.322L8.56831 36.4533L8.58424 36.5846L8.59797 36.7156L8.60951 36.8464L8.6194 36.9769L8.63121 37.1716L8.63725 37.3007L8.64467 37.5172L8.64797 37.66L8.65044 37.802L8.65209 38.0121L8.65264 38.361L8.67131 38.9691L8.68779 39.6113L8.70318 40.2996L8.71691 41.0286L8.73202 41.9224L8.75234 43.3988L8.76608 44.65L8.77322 45.3537L8.78778 47.1518L8.80371 49.8194L8.8147 52.7066L8.81882 52.7041V55.2649L8.8147 55.3012L8.80975 55.3556L8.80673 55.4045L8.80261 55.4954L8.80124 55.5671V55.6467L8.80316 55.7344L8.80728 55.8288L8.81552 55.9481L8.82349 56.0318L8.83942 56.1642L8.85315 56.2565L8.86936 56.3513L8.88858 56.4488L8.89902 56.4982L8.92264 56.5993L8.93583 56.6504L8.9644 56.7542L8.99681 56.8594C9.0023 56.8773 9.00834 56.8951 9.01439 56.9127L9.05257 57.0198C9.06575 57.0558 9.08003 57.0921 9.09459 57.1283L9.14129 57.2371C9.71811 58.5303 11.239 59.927 15.1732 59.6068L15.3888 59.5875V63.7393L15.2787 63.7448L15.0743 63.7506L14.9062 63.7533H14.7065L14.5568 63.7519L14.3948 63.7486L14.2212 63.7437L13.9954 63.7346L13.8361 63.7267L13.6707 63.7168L13.4988 63.705L13.3213 63.6912L13.1384 63.6747L12.9502 63.6563L12.7572 63.6352L12.5597 63.6113L12.358 63.5847C12.324 63.5799 12.2899 63.5751 12.2559 63.5701L12.0488 63.5388L11.9438 63.5223L11.7318 63.486C11.696 63.4798 11.6603 63.4733 11.6247 63.4668L11.4085 63.4251C11.3721 63.4179 11.3358 63.4105 11.2994 63.4031L11.0797 63.3564L10.8586 63.3053C10.7844 63.2877 10.7102 63.2696 10.6358 63.2504L10.4117 63.1913C8.35433 62.6304 6.19262 61.5218 5.081 59.3494C5.32216 56.679 6.42033 54.4024 8.39279 52.9854C8.48563 52.92 8.57957 52.8563 8.67488 52.795L8.78256 52.7266C8.64906 52.809 8.51777 52.8964 8.38894 52.9881C6.42033 54.4024 5.32216 56.679 5.081 59.3387C4.58603 58.3393 4.32668 57.2399 4.32288 56.1247L4.29816 54.9801L4.26603 53.5924L4.22592 51.9685L4.17099 49.8985L4.121 48.1032L4.05178 45.7528L3.97377 43.2351L3.84302 39.2732L3.81143 38.3544C3.73425 36.2745 2.8995 35.2615 2.0307 34.7726L1.92824 34.7174C1.91129 34.7086 1.89426 34.7 1.87715 34.6915L1.7747 34.6432C1.74096 34.628 1.70698 34.6134 1.67279 34.5992L1.57143 34.5597C1.53819 34.5471 1.50467 34.5352 1.4709 34.524L1.37147 34.4916C1.33851 34.4817 1.30609 34.4723 1.27368 34.4633L1.19595 34.4427L1.11959 34.4243L1.04433 34.4078L0.970712 34.3932L0.863313 34.3746L0.79382 34.3644L0.726524 34.3556L0.629562 34.3449L0.543863 34.3443L0.368893 34.3424C0.277522 34.3411 0.186135 34.3411 0.0947639 34.3424L0 34.3449V29.4795C0.227708 29.4878 0.431245 29.4836 0.629562 29.4729L0.726524 29.4619L0.79382 29.4534L0.863313 29.443L0.970712 29.4243L1.04433 29.4098L1.11959 29.3933L1.19595 29.3749L1.27368 29.3545L1.37147 29.326L1.4709 29.2938L1.57143 29.2581C2.58115 28.8804 3.72052 27.91 3.81143 25.4632L3.92954 21.9446L4.02101 19.0703L4.07045 17.4393L4.14627 14.8227L4.19571 13.0027L4.23169 11.6164L4.27701 9.76038L4.30338 8.60673L4.32288 7.69178C4.3531 6.25 4.70853 5.07959 5.27245 4.12975L5.31035 4.06685L5.31008 4.06383V4.06383ZM54.9288 4.16546V0.0142527L55.0403 0.00875916L55.1952 0.00408963L55.2957 0.00216689L55.4732 0.000244141H55.6086L55.7569 0.00189221L55.9854 0.00656174L56.2774 0.0169995L56.4337 0.0244158L56.5963 0.0337549L56.8521 0.0510596L57.0298 0.0653429L57.2127 0.0818235L57.4009 0.101051L57.5934 0.122476L57.7906 0.146648L57.9917 0.173566L58.1966 0.203781L58.4051 0.236742L58.5103 0.254596L58.7232 0.292776L58.9385 0.334527L59.1561 0.379575L59.3758 0.429017L59.5966 0.481755C59.7076 0.509223 59.8191 0.538613 59.9306 0.569103L60.1542 0.632828C62.2445 1.24673 64.3933 2.44351 65.4028 4.76042C65.7869 5.6661 65.9881 6.63881 65.9947 7.62256L66.0194 8.76715L66.0516 10.1548L66.0741 11.0832L66.1098 12.4731L66.159 14.3033L66.1966 15.6448L66.2658 17.9955L66.3438 20.5132L66.4746 24.4752L66.5062 25.394C66.5847 27.5084 67.4461 28.5198 68.3303 28.9991L68.4325 29.0521L68.4836 29.0768L68.5852 29.1235L68.6868 29.1653C68.7036 29.1722 68.7206 29.1785 68.7374 29.1848L68.8376 29.2211L68.8873 29.2375L68.986 29.268L69.0346 29.282L69.1791 29.3191L69.2733 29.3403L69.365 29.3581L69.4543 29.3735L69.5238 29.3839L69.5911 29.3927L69.688 29.4034C69.8581 29.4125 70.035 29.4169 70.2228 29.4128L70.3176 29.41V34.2768C70.1077 34.2696 69.8977 34.2718 69.688 34.2836L69.624 34.2902L69.5576 34.2985L69.4543 34.3133L69.3469 34.332L69.2733 34.3465L69.198 34.363L69.1216 34.3814L69.0439 34.4018L68.9953 34.4155L68.8964 34.4457L68.8467 34.4622L68.7462 34.4982C68.7293 34.5044 68.7124 34.5109 68.6956 34.5174L68.594 34.5594C67.6252 34.9767 66.5924 35.9685 66.5064 38.2931L66.3878 41.8098L66.2966 44.6843L66.2471 46.3156L66.1713 48.9325L66.1219 50.7525L66.0859 52.1388L66.0406 53.9948L66.0142 55.1485L65.9947 56.0631C65.9871 56.9187 65.8351 57.7668 65.5453 58.5718L65.5107 58.666L65.5124 58.6748C64.4774 61.3488 61.9729 62.606 59.6606 63.191L59.4338 63.2465L59.3211 63.2726L59.0967 63.3221L58.9855 63.3449L58.7646 63.3883L58.655 63.4086L58.438 63.4465L58.3309 63.4641L58.1189 63.497L57.9107 63.5264L57.7066 63.5528L57.5066 63.5761L57.3116 63.597L57.1218 63.6151L56.8471 63.6377L56.6713 63.65L56.42 63.6649L56.1838 63.6753L55.8953 63.6841L55.7311 63.6868L55.58 63.6879H55.4432L55.321 63.6866L55.2144 63.6846L55.0845 63.6808L54.9719 63.6761L54.9326 63.6739V59.5224C58.7767 59.8883 60.3921 58.6556 61.0612 57.4143L61.1189 57.303C61.137 57.2662 61.1546 57.2289 61.1711 57.1921L61.2192 57.0817C61.2343 57.0451 61.2488 57.0083 61.2626 56.9718L61.3018 56.8633L61.337 56.7556L61.3532 56.7023L61.3829 56.5971L61.4087 56.4936L61.4315 56.3922L61.451 56.2933L61.4675 56.1972L61.4815 56.1038L61.493 56.0132L61.5059 55.8841L61.512 55.8027L61.5186 55.669L61.5205 55.5816V55.502L61.5191 55.43L61.5164 55.3671L61.5136 55.3135L61.507 55.2358L61.5029 55.1996V52.9227L61.5092 50.8031L61.5197 48.6158L61.532 46.7724L61.5482 44.8906L61.5669 43.2016L61.5801 42.2196L61.5924 41.4288L61.6089 40.5219L61.6205 39.9478L61.6334 39.4017L61.6468 38.8867L61.665 38.2917L61.6655 37.9429L61.6674 37.7303L61.6696 37.5869L61.6732 37.4424L61.6809 37.2238L61.688 37.0771L61.696 36.9464L61.7056 36.8154L61.7166 36.6838L61.7303 36.5519L61.7454 36.4201L61.763 36.2877L61.7729 36.2218L61.7941 36.0897L61.818 35.9578L61.8446 35.826L61.8743 35.6941C61.9105 35.5411 61.9531 35.3887 62.0028 35.2376L62.0476 35.1085C62.1097 34.9371 62.1816 34.7679 62.2654 34.6014L62.3302 34.4773C62.9581 33.3242 64.1777 32.3348 66.5476 31.842C63.5586 31.2215 62.3995 29.813 61.9495 28.2819L61.9133 28.1523C61.8902 28.0658 61.8693 27.9787 61.8501 27.8913L61.8232 27.7606L61.8108 27.6952L61.7877 27.5639L61.7671 27.4326L61.7493 27.3013L61.7334 27.1703L61.7196 27.0393L61.7081 26.9085L61.6982 26.7781L61.6864 26.5833L61.6803 26.4542L61.6729 26.2378L61.6696 26.0949L61.6672 25.9532L61.6655 25.7428L61.665 25.394L61.6521 24.9883L61.638 24.4724L61.6221 23.8085L61.6076 23.1015L61.5938 22.3571L61.5779 21.3169L61.5589 19.821L61.5447 18.4232L61.5315 16.804L61.5142 13.9245L61.5029 10.8042C61.7391 10.674 61.9679 10.5309 62.1885 10.3757C63.2883 9.58788 64.1167 8.52598 64.6752 7.27674L64.7136 7.18939C64.1544 8.47654 63.3128 9.57003 62.1847 10.3773C62.0006 10.5064 61.8111 10.6273 61.6161 10.7396L61.4988 10.8055V8.4889L61.5029 8.45264L61.5078 8.39798L61.5109 8.34909L61.515 8.25844L61.5164 8.18675V8.10709L61.5144 8.0192L61.5103 7.92471L61.5054 7.84642L61.4944 7.72172L61.4782 7.58933L61.4644 7.49731L61.4482 7.40227L61.429 7.30476C61.4256 7.28826 61.4222 7.27178 61.4186 7.25532L61.395 7.15451C61.3907 7.13736 61.3863 7.12024 61.3818 7.10315L61.3532 6.99932L61.3208 6.89412C61.3153 6.87654 61.3093 6.85868 61.3032 6.84083L61.265 6.7337C61.2518 6.698 61.2376 6.66174 61.223 6.62548L61.1763 6.51643C60.5995 5.22352 59.0786 3.82678 55.1444 4.14678L54.9288 4.16601V4.16546Z" fill="#FE0902"/>
<path d="M8.56178 9.91368C8.60298 9.9439 8.64583 9.97219 8.68868 9.99993L8.8175 10.0823V8.55705L8.81338 8.52079L8.80871 8.46613L8.80542 8.41724L8.8013 8.32632L8.79992 8.2549V8.17497L8.80184 8.08735L8.80596 7.99286L8.81118 7.9132L8.81805 7.82997L8.82739 7.74318L8.83865 7.65281L8.85266 7.55942L8.86914 7.46328L8.88892 7.36412L8.8999 7.31358L8.92408 7.2114L8.95182 7.10702L8.9672 7.05401L9.00016 6.94716L9.01857 6.89332L9.05757 6.78455C9.11965 6.62057 9.19601 6.45329 9.28967 6.28656L9.35477 6.17559C10.0772 4.99365 11.7156 3.88477 15.3878 4.23389V0.0824034L15.3109 0.0785579L15.1788 0.0738884L15.0903 0.0714163L14.8711 0.0686695H14.742L14.6 0.0694936L14.3649 0.0738884L14.1501 0.0807554L13.9191 0.0909185L13.6658 0.105476L13.398 0.124704L13.2118 0.140361L12.9223 0.168652L12.7229 0.190627L12.5188 0.215897L12.3103 0.243914L12.098 0.275502L11.8818 0.310112L11.6626 0.348567L11.4404 0.390318L11.2157 0.436189C11.178 0.444285 11.1402 0.452525 11.1025 0.46091L10.8748 0.512824C10.8369 0.521614 10.7988 0.530953 10.7603 0.540292L10.5304 0.598798C10.415 0.629013 10.2997 0.66115 10.1835 0.694936L9.95165 0.764979L9.71954 0.839966C8.01764 1.408 6.33276 2.3864 5.31014 4.06386C5.64085 6.51317 6.72033 8.60127 8.56178 9.91368V9.91368ZM15.3889 63.7396V59.5878C11.3728 59.9699 9.78931 58.6072 9.17623 57.313L9.12596 57.2023C9.10231 57.1479 9.07997 57.0929 9.05894 57.0375L9.01994 56.9284C9.01376 56.9105 9.00772 56.8926 9.00181 56.8746L8.96857 56.7675L8.93891 56.6625L8.91282 56.559L8.89029 56.4576L8.87079 56.3587L8.85403 56.2626L8.8403 56.1692L8.82876 56.0786L8.81585 55.9495L8.80734 55.8289L8.80322 55.7344L8.8013 55.6468V55.5671L8.80267 55.4957L8.80542 55.4325L8.80816 55.379L8.81475 55.3012L8.81887 55.2628V52.7041C8.67412 52.7934 8.53211 52.8873 8.39312 52.9854C6.42039 54.4025 5.32222 56.679 5.08105 59.3497C6.19295 61.5219 8.35412 62.6305 10.4117 63.1913L10.6359 63.2504C10.71 63.2696 10.7845 63.2878 10.8586 63.3053L11.08 63.3562L11.2995 63.4031L11.5168 63.4462C11.553 63.4534 11.5887 63.46 11.6247 63.4666L11.8381 63.5045L11.9439 63.5221L12.1526 63.555L12.2559 63.5701L12.4595 63.5984L12.5597 63.6113L12.7575 63.6352L12.9503 63.6564L13.1385 63.6748L13.3214 63.6913L13.4988 63.705L13.6708 63.7168L13.8361 63.7267L14.0724 63.7382L14.2212 63.7437L14.3951 63.7487L14.5572 63.752L14.7066 63.7533L14.9063 63.7531L15.0744 63.7506L15.209 63.747L15.3889 63.7393V63.7396ZM65.4028 4.76017C64.3288 2.29576 61.9663 1.09871 59.7563 0.522163L59.5357 0.466678L59.3165 0.415039L59.2077 0.390592L58.9913 0.344721L58.8836 0.323296L58.6705 0.282918L58.4601 0.245837L58.2524 0.212052L58.0481 0.181288L57.8473 0.15382L57.6503 0.129099L57.4578 0.10685L57.2696 0.0873476L57.0864 0.0700429L56.8213 0.048618L56.5689 0.0318627L56.3305 0.0189528L56.1069 0.00988841L55.9668 0.00576824L55.7979 0.00219742L55.6416 0H55.4993L55.371 0.000824034L55.2579 0.0024721L55.1172 0.00604292L55.014 0.00988841L54.9288 0.0140086V4.16577C58.9449 3.78342 60.5284 5.14609 61.1415 6.44038L61.1917 6.55135C61.2156 6.60628 61.2379 6.66149 61.2588 6.71615L61.2978 6.82493C61.3041 6.84306 61.3101 6.86091 61.3159 6.87904L61.3491 6.98589L61.3788 7.09109L61.4049 7.19437L61.4274 7.296L61.4469 7.39488L61.4637 7.49102L61.4774 7.58441L61.489 7.67506L61.5019 7.80415L61.5104 7.92446L61.5145 8.01923L61.5164 8.10658V8.18623L61.515 8.25792L61.5123 8.3211L61.5079 8.39801L61.4988 8.4892V10.8056C61.735 10.6751 61.9639 10.532 62.1847 10.3771C63.9698 9.09926 65.0386 7.10537 65.4028 4.76017V4.76017ZM62.3613 53.4488C62.0875 53.254 61.8007 53.0782 61.503 52.9225V55.1993L61.5071 55.2356L61.5117 55.29L61.515 55.3389L61.5192 55.4298L61.5205 55.5015V55.5811L61.5186 55.6687L61.512 55.8025L61.506 55.8838L61.4931 56.0129L61.4815 56.1036L61.4678 56.1969L61.451 56.2931L61.4315 56.392L61.4087 56.4936L61.3829 56.5969L61.3533 56.7021L61.3371 56.7554L61.3019 56.863L61.2626 56.9718C61.2489 57.0081 61.2343 57.0449 61.2192 57.0817L61.1714 57.1918C61.1547 57.2289 61.1371 57.266 61.1187 57.3028L61.0613 57.414C60.3922 58.6556 58.7768 59.8881 54.9327 59.5222V63.6737L54.9942 63.677L55.1711 63.6833L55.3883 63.6871L55.5202 63.688L55.7454 63.6866L55.9124 63.6836L56.0924 63.6784L56.3154 63.6696L56.5533 63.6572L56.7197 63.6465L56.9804 63.6273L57.1608 63.6113L57.3465 63.5932L57.5369 63.5726L57.7319 63.5493L57.9308 63.5234L58.1338 63.4943L58.3398 63.4625C58.3747 63.457 58.4093 63.4512 58.4441 63.4451L58.6551 63.4083L58.8685 63.368L58.9762 63.3465L59.1932 63.3009L59.3022 63.2768L59.522 63.2251C61.8721 62.6555 64.4566 61.4021 65.5127 58.6745C65.0947 56.4955 64.0421 54.6527 62.3613 53.4488V53.4488Z" fill="#FFAB00"/>
</svg>
