<svg width="64" height="64" viewBox="0 0 64 64" fill="none" xmlns="http://www.w3.org/2000/svg">
<path d="M53.3332 10.6666H10.6666C7.73325 10.6666 5.35992 13.0666 5.35992 16L5.33325 48C5.33325 50.9333 7.73325 53.3333 10.6666 53.3333H53.3332C56.2666 53.3333 58.6666 50.9333 58.6666 48V16C58.6666 13.0666 56.2666 10.6666 53.3332 10.6666ZM52.2666 22L33.4132 33.7866C32.5599 34.32 31.4399 34.32 30.5866 33.7866L11.7333 22C11.4659 21.8499 11.2317 21.6471 11.045 21.4038C10.8582 21.1606 10.7228 20.882 10.6468 20.5849C10.5708 20.2879 10.5559 19.9785 10.603 19.6754C10.6501 19.3724 10.7581 19.0821 10.9207 18.8221C11.0832 18.5621 11.2968 18.3377 11.5485 18.1626C11.8003 17.9875 12.0849 17.8653 12.3852 17.8034C12.6856 17.7415 12.9953 17.7412 13.2958 17.8025C13.5963 17.8638 13.8812 17.9854 14.1333 18.16L31.9999 29.3333L49.8666 18.16C50.1187 17.9854 50.4036 17.8638 50.704 17.8025C51.0045 17.7412 51.3143 17.7415 51.6146 17.8034C51.9149 17.8653 52.1996 17.9875 52.4513 18.1626C52.703 18.3377 52.9166 18.5621 53.0792 18.8221C53.2417 19.0821 53.3498 19.3724 53.3968 19.6754C53.4439 19.9785 53.429 20.2879 53.353 20.5849C53.2771 20.882 53.1416 21.1606 52.9549 21.4038C52.7681 21.6471 52.534 21.8499 52.2666 22V22Z" fill="#EAB308"/>
</svg>
