<svg width="64" height="64" viewBox="0 0 64 64" fill="none" xmlns="http://www.w3.org/2000/svg">
<path d="M54.5308 54.5318H45.048V39.681C45.048 36.1398 44.9848 31.581 40.116 31.581C35.177 31.581 34.4213 35.4395 34.4213 39.4233V54.5308H24.9388V23.9918H34.042V28.1653H34.1695C35.0805 26.6075 36.397 25.3261 37.9787 24.4573C39.5604 23.5886 41.3482 23.1651 43.1515 23.232C52.7628 23.232 54.5348 29.554 54.5348 37.7785L54.5308 54.5318V54.5318ZM14.2388 19.8175C11.1995 19.818 8.73526 17.3545 8.73476 14.3153C8.73426 11.276 11.1975 8.81179 14.2368 8.81129C17.276 8.81054 19.7403 11.274 19.7408 14.3133C19.741 15.7728 19.1615 17.1726 18.1297 18.2049C17.0979 19.2371 15.6983 19.8172 14.2388 19.8175M18.9803 54.532H9.48751V23.9918H18.98V54.5318L18.9803 54.532ZM59.2583 0.0045359H4.72251C2.14501 -0.0244641 0.0312559 2.04029 -0.000244141 4.61779V59.381C0.0302559 61.9598 2.14376 64.0265 4.72226 63.9995H59.2583C61.8423 64.0315 63.964 61.9648 63.9998 59.381V4.61354C63.963 2.03104 61.841 -0.0334641 59.2583 0.000285903" fill="#38BDF8"/>
</svg>
