<svg width="64" height="64" viewBox="0 0 64 64" fill="none" xmlns="http://www.w3.org/2000/svg">
<path d="M50.6588 53.3333C27.9094 53.3653 10.6428 35.8933 10.6668 13.3413C10.6668 11.8666 11.8614 10.6666 13.3334 10.6666H20.3734C21.6934 10.6666 22.8161 11.6373 23.0108 12.944C23.475 16.0774 24.3866 19.1281 25.7174 22.0026L25.9921 22.5946C26.1766 22.993 26.2163 23.4433 26.1043 23.8678C25.9924 24.2923 25.7358 24.6644 25.3788 24.92C23.1974 26.4773 22.3654 29.6106 24.0641 32.0533C26.2027 35.1288 28.872 37.799 31.9468 39.9386C34.3921 41.6346 37.5254 40.8026 39.0801 38.624C39.3354 38.2659 39.7078 38.0083 40.1329 37.8959C40.5581 37.7834 41.0091 37.823 41.4081 38.008L41.9974 38.28C44.8721 39.6133 47.9228 40.5253 51.0561 40.9893C52.3628 41.184 53.3334 42.3066 53.3334 43.6293V50.6666C53.3334 51.017 53.2644 51.364 53.1302 51.6877C52.996 52.0114 52.7994 52.3055 52.5514 52.5532C52.3035 52.8008 52.0093 52.9972 51.6854 53.1311C51.3616 53.2649 51.0145 53.3336 50.6641 53.3333H50.6588Z" fill="#A78BFA"/>
</svg>
