<svg width="64" height="64" viewBox="0 0 64 64" fill="none" xmlns="http://www.w3.org/2000/svg">
<path d="M24.688 2.88794C24.4252 2.88747 24.1648 2.93881 23.9219 3.03902C23.6789 3.13922 23.4581 3.28634 23.272 3.47194L3.47198 23.2719C3.09704 23.647 2.88641 24.1556 2.88641 24.6859C2.88641 25.2163 3.09704 25.7249 3.47198 26.0999C5.39198 28.0199 7.75998 28.4519 9.48398 28.4519C10.192 28.4519 10.824 28.3799 11.324 28.2959L23.86 40.8319C23.53 42.1616 23.3158 43.5173 23.22 44.8839C23.036 47.6919 23.348 51.6319 26.1 54.3839C26.475 54.7589 26.9837 54.9695 27.514 54.9695C28.0443 54.9695 28.5529 54.7589 28.928 54.3839L40.244 43.0719L52.972 55.7999C53.752 56.5799 57.848 59.4079 58.628 58.6279C59.408 57.8479 56.58 53.7479 55.8 52.9719L43.072 40.2439L54.384 28.9279C54.7589 28.5529 54.9696 28.0443 54.9696 27.5139C54.9696 26.9836 54.7589 26.475 54.384 26.0999C51.632 23.3479 47.692 23.0319 44.884 23.2199C43.5174 23.3157 42.1616 23.5298 40.832 23.8599L28.296 11.3279C28.4006 10.7188 28.4541 10.102 28.456 9.48394C28.456 7.76394 28.024 5.39594 26.1 3.47194C25.7252 3.09807 25.2174 2.88806 24.688 2.88794V2.88794Z" fill="#DC2626"/>
</svg>
