<svg width="57" height="64" viewBox="0 0 57 64" fill="none" xmlns="http://www.w3.org/2000/svg">
<path d="M56.886 18.7978C56.8856 17.7229 56.6556 16.7729 56.1904 15.9576C55.734 15.1558 55.0498 14.4838 54.1324 13.9524C46.5591 9.58556 38.978 5.232 31.4071 0.860668C29.366 -0.317776 27.3871 -0.274888 25.3609 0.920668C22.3464 2.69845 7.25422 11.3451 2.75667 13.95C0.904667 15.0222 0.00333333 16.6631 0.00288889 18.7956C0 27.578 0.00288889 36.36 0 45.1424C0 46.1936 0.220667 47.1253 0.665111 47.9284C1.122 48.7544 1.81556 49.4449 2.75422 49.9882C7.252 52.5931 22.3462 61.2393 25.36 63.0173C27.3869 64.2133 29.366 64.2562 31.4078 63.0773C38.9789 58.7058 46.5602 54.3524 54.1349 49.9856C55.0736 49.4424 55.7671 48.7516 56.224 47.9262C56.6678 47.1231 56.8889 46.1916 56.8889 45.1398C56.8889 45.1398 56.8889 27.5802 56.886 18.7978" fill="#649AD2"/>
<path d="M28.5315 31.8835L0.664795 47.9284C1.12191 48.7544 1.81546 49.4449 2.75413 49.9882C7.25191 52.5931 22.3461 61.2393 25.3599 63.0173C27.3868 64.2133 29.3659 64.2562 31.4077 63.0773C38.9788 58.7058 46.5601 54.3524 54.1348 49.9855C55.0735 49.4424 55.767 48.7515 56.2239 47.9262L28.5315 31.8835" fill="#004482"/>
<path d="M20.2778 36.6362C21.8994 39.4669 24.9476 41.3762 28.4445 41.3762C31.9629 41.3762 35.0285 39.4429 36.6418 36.5815L28.5316 31.8835L20.2778 36.6362Z" fill="#1A4674"/>
<path d="M56.8859 18.7977C56.8855 17.7229 56.6555 16.7729 56.1904 15.9575L28.5315 31.8835L56.2239 47.9262C56.6677 47.1231 56.8884 46.1915 56.8888 45.1397C56.8888 45.1397 56.8888 27.5802 56.8859 18.7977" fill="#01589C"/>
<path d="M55.3634 33.0303H53.1994V35.1947H51.0349V33.0303H48.8712V30.8667H51.0349V28.7027H53.1994V30.8667H55.3634V33.0305V33.0303ZM28.4445 13.0771C35.3634 13.0771 41.4129 16.7971 44.7045 22.3458L44.8032 22.5145L36.5807 27.2494C34.9512 24.4474 31.9189 22.5618 28.4445 22.5618C23.2489 22.5618 19.0372 26.7736 19.0372 31.9689C19.0354 33.6064 19.4632 35.2158 20.2778 36.6363C21.8994 39.4669 24.9476 41.3763 28.4445 41.3763C31.9243 41.3763 34.9612 39.4851 36.5883 36.6756L36.6418 36.5816L44.8523 41.3385C41.5967 47.0267 35.4683 50.8609 28.4445 50.8609C21.4336 50.8609 15.3147 47.042 12.0547 41.3705C10.4632 38.6018 9.55249 35.3918 9.55249 31.9689C9.55249 21.5356 18.0105 13.0771 28.4445 13.0771V13.0771ZM45.3034 28.7025V30.8665H47.4672V33.0303H45.3034V35.1947H43.1394V33.0303H40.9754V30.8667H43.1394V28.7027H45.3034V28.7025Z" fill="white"/>
</svg>
