<svg width="48" height="64" viewBox="0 0 48 64" fill="none" xmlns="http://www.w3.org/2000/svg">
<path d="M15.2701 49.4747C15.2701 49.4747 12.8288 50.8944 17.0075 51.3747C22.07 51.9522 24.6572 51.8695 30.2361 50.8135C30.2361 50.8135 31.7029 51.7332 33.7511 52.5299C21.245 57.8898 5.447 52.2193 15.2701 49.4747M13.7418 42.4802C13.7418 42.4802 11.0037 44.5071 15.1855 44.9396C20.5934 45.4975 24.864 45.5432 32.2539 44.1202C32.2539 44.1202 33.2761 45.1564 34.8833 45.7231C19.7625 50.1447 2.92066 46.0718 13.7418 42.4802" fill="#5382A1"/>
<path d="M26.625 30.6155C29.7066 34.1633 25.8154 37.3559 25.8154 37.3559C25.8154 37.3559 33.6399 33.3166 30.0464 28.2584C26.6903 23.5417 24.1165 21.1977 38.0498 13.1171C38.0498 13.1171 16.1792 18.5793 26.625 30.6153" fill="#E76F00"/>
<path d="M43.1657 54.6482C43.1657 54.6482 44.9723 56.1367 41.176 57.2883C33.9573 59.4752 11.1307 60.1356 4.78957 57.3754C2.51017 56.384 6.78485 55.0078 8.12941 54.7189C9.53167 54.4148 10.3332 54.4716 10.3332 54.4716C7.79812 52.6857 -6.05214 57.9781 3.29796 59.4935C28.7968 63.6288 49.7797 57.6316 43.1657 54.6482ZM16.444 35.2333C16.444 35.2333 4.83322 37.9912 12.3325 38.9925C15.4988 39.4164 21.811 39.3206 27.6907 38.8278C32.4958 38.4227 37.3208 37.5608 37.3208 37.5608C37.3208 37.5608 35.6265 38.2864 34.4007 39.1234C22.6099 42.2245 -0.167843 40.7819 6.38957 37.6098C11.9352 34.9292 16.4442 35.2333 16.4442 35.2333M37.2729 46.8757C49.259 40.6474 43.7171 34.6621 39.849 35.4686C38.9008 35.6657 38.4782 35.8367 38.4782 35.8367C38.4782 35.8367 38.8302 35.2854 39.5024 35.0468C47.1546 32.3564 53.0398 42.9815 37.0321 47.1896C37.0321 47.1898 37.2176 47.0241 37.2729 46.8757Z" fill="#5382A1"/>
<path d="M30.0465 0.0686664C30.0465 0.0686664 36.6846 6.70913 23.7507 16.9197C13.3791 25.1106 21.3856 29.7808 23.7464 35.1166C17.6923 29.6544 13.2493 24.8459 16.2301 20.3707C20.6049 13.8011 32.7247 10.6161 30.0465 0.0684814" fill="#E76F00"/>
<path d="M17.6218 63.7531C29.1268 64.4897 46.794 63.3445 47.2124 57.9006C47.2124 57.9006 46.4081 59.9645 37.7041 61.6034C27.8844 63.4512 15.7732 63.2356 8.58984 62.0512C8.59003 62.0512 10.0604 63.2683 17.622 63.7531" fill="#5382A1"/>
</svg>
