<svg width="64" height="64" viewBox="0 0 64 64" fill="none" xmlns="http://www.w3.org/2000/svg">
<path d="M4 4H60V60H4V4Z" fill="#F5DE19"/>
<path d="M41.6179 47.75C42.095 48.7192 42.8363 49.5339 43.7564 50.1C44.6764 50.6662 45.7377 50.9609 46.8179 50.9501C48.9979 50.9501 50.3919 49.86 50.3919 48.35C50.3919 46.55 48.9599 45.906 46.5599 44.856L45.2439 44.2921C41.4439 42.6741 38.9239 40.648 38.9239 36.364C38.9239 32.418 41.9239 29.4121 46.6299 29.4121C48.1533 29.302 49.6754 29.643 51.0063 30.3924C52.3372 31.1418 53.418 32.2664 54.1139 33.626L49.9999 36.2561C49.7319 35.5819 49.2654 35.0051 48.6621 34.6022C48.0588 34.1993 47.3473 33.9893 46.6219 34.0001C46.3054 33.9684 45.9858 34.003 45.6834 34.1016C45.3811 34.2003 45.1026 34.3608 44.8657 34.5731C44.6288 34.7853 44.4387 35.0446 44.3076 35.3343C44.1764 35.6241 44.107 35.938 44.1039 36.2561C44.1039 37.8341 45.0819 38.4741 47.3399 39.4561L48.6559 40.0201C53.1279 41.9381 55.6559 43.892 55.6559 48.286C55.6559 53.024 51.9339 55.62 46.9359 55.62C44.9885 55.7441 43.0468 55.302 41.3451 54.347C39.6435 53.392 38.2545 51.9649 37.3459 50.238L41.6179 47.75ZM23.0279 48.2061C23.8539 49.6721 24.6059 50.912 26.4139 50.912C28.1419 50.912 29.2339 50.236 29.2339 47.606V29.7121H34.4959V47.676C34.4959 53.124 31.2959 55.604 26.6379 55.604C24.9914 55.694 23.3562 55.2837 21.9473 54.427C20.5383 53.5703 19.4216 52.3073 18.7439 50.8041L23.0279 48.2061Z" fill="black"/>
</svg>
