<svg width="64" height="64" viewBox="0 0 64 64" xmlns="http://www.w3.org/2000/svg">
<path fill="white" d="M48 42V18H44V46H60V42H48ZM36 18H28C26.9391 18 25.9217 18.4214 25.1716 19.1716C24.4214 19.9217 24 20.9391 24 22V42C24 43.0609 24.4214 44.0783 25.1716 44.8284C25.9217 45.5786 26.9391 46 28 46H30V50C30 51.0609 30.4214 52.0783 31.1716 52.8284C31.9217 53.5786 32.9391 54 34 54H38V50H34V46H36C37.0609 46 38.0783 45.5786 38.8284 44.8284C39.5786 44.0783 40 43.0609 40 42V22C40 20.9391 39.5786 19.9217 38.8284 19.1716C38.0783 18.4214 37.0609 18 36 18ZM28 42V22H36V42H28ZM16 46H4V42H16V34H8C6.93913 34 5.92172 33.5786 5.17157 32.8284C4.42143 32.0783 4 31.0609 4 30V22C4 20.9391 4.42143 19.9217 5.17157 19.1716C5.92172 18.4214 6.93913 18 8 18H20V22H8V30H16C17.0609 30 18.0783 30.4214 18.8284 31.1716C19.5786 31.9217 20 32.9391 20 34V42C20 43.0609 19.5786 44.0783 18.8284 44.8284C18.0783 45.5786 17.0609 46 16 46Z"/>
</svg>
