<svg width="458" height="352" viewBox="0 0 458 352" fill="none" xmlns="http://www.w3.org/2000/svg">
<path d="M9.95527 2.01745L450.013 2.98249C453.322 2.98975 456 5.67391 456 8.98248V268C456 271.314 453.314 274 450 274H8.05818C4.72748 274 2.0342 271.287 2.05834 267.957L3.94227 7.97399C3.9662 4.67219 6.65341 2.01021 9.95527 2.01745Z" stroke="black" stroke-width="4"/>
<path d="M183.02 274.04L275.02 274.96C276.117 274.971 277 275.863 277 276.96V292C277 293.105 276.105 294 275 294H183C181.895 294 181 293.105 181 292V276.04C181 274.928 181.908 274.029 183.02 274.04Z" stroke="black" stroke-width="4"/>
<path d="M179 89L118 140.592L179 200" stroke="black" stroke-width="8" stroke-linecap="round"/>
<path d="M297 200L358 148.408L297 89" stroke="black" stroke-width="8" stroke-linecap="round"/>
<path d="M99.1293 297.121C100.269 295.776 101.943 295 103.707 295H355.293C357.057 295 358.731 295.776 359.871 297.121L396.311 340.121C399.615 344.02 396.844 350 391.734 350H67.266C62.1557 350 59.3847 344.02 62.6887 340.121L99.1293 297.121Z" stroke="black" stroke-width="4"/>
</svg>
