<svg width="185" height="24" viewBox="0 0 185 24" fill="none" xmlns="http://www.w3.org/2000/svg">
<path d="M6.456 18.776H13.624V23H0.984V0.535999H6.456V18.776ZM33.066 13.784C33.066 14.296 33.034 14.8293 32.97 15.384H20.586C20.6713 16.4933 21.0233 17.3467 21.642 17.944C22.282 18.52 23.0607 18.808 23.978 18.808C25.3433 18.808 26.2927 18.232 26.826 17.08H32.65C32.3513 18.2533 31.8073 19.3093 31.018 20.248C30.25 21.1867 29.2793 21.9227 28.106 22.456C26.9327 22.9893 25.6207 23.256 24.17 23.256C22.4207 23.256 20.8633 22.8827 19.498 22.136C18.1327 21.3893 17.066 20.3227 16.298 18.936C15.53 17.5493 15.146 15.928 15.146 14.072C15.146 12.216 15.5193 10.5947 16.266 9.208C17.034 7.82133 18.1007 6.75467 19.466 6.008C20.8313 5.26133 22.3993 4.888 24.17 4.888C25.898 4.888 27.434 5.25067 28.778 5.976C30.122 6.70133 31.1673 7.736 31.914 9.08C32.682 10.424 33.066 11.992 33.066 13.784ZM27.466 12.344C27.466 11.4053 27.146 10.6587 26.506 10.104C25.866 9.54933 25.066 9.272 24.106 9.272C23.1887 9.272 22.41 9.53867 21.77 10.072C21.1513 10.6053 20.7673 11.3627 20.618 12.344H27.466ZM34.8648 14.04C34.8648 12.2053 35.2061 10.5947 35.8888 9.208C36.5928 7.82133 37.5421 6.75467 38.7368 6.008C39.9314 5.26133 41.2648 4.888 42.7368 4.888C43.9954 4.888 45.0941 5.144 46.0328 5.656C46.9928 6.168 47.7288 6.84 48.2408 7.672V5.144H53.7128V23H48.2408V20.472C47.7074 21.304 46.9608 21.976 46.0008 22.488C45.0621 23 43.9634 23.256 42.7048 23.256C41.2541 23.256 39.9314 22.8827 38.7368 22.136C37.5421 21.368 36.5928 20.2907 35.8888 18.904C35.2061 17.496 34.8648 15.8747 34.8648 14.04ZM48.2408 14.072C48.2408 12.7067 47.8568 11.6293 47.0888 10.84C46.3421 10.0507 45.4248 9.656 44.3368 9.656C43.2488 9.656 42.3208 10.0507 41.5528 10.84C40.8061 11.608 40.4328 12.6747 40.4328 14.04C40.4328 15.4053 40.8061 16.4933 41.5528 17.304C42.3208 18.0933 43.2488 18.488 44.3368 18.488C45.4248 18.488 46.3421 18.0933 47.0888 17.304C47.8568 16.5147 48.2408 15.4373 48.2408 14.072ZM63.1435 8.12C63.7835 7.13867 64.5835 6.37067 65.5435 5.816C66.5035 5.24 67.5702 4.952 68.7435 4.952V10.744H67.2395C65.8742 10.744 64.8502 11.0427 64.1675 11.64C63.4848 12.216 63.1435 13.24 63.1435 14.712V23H57.6715V5.144H63.1435V8.12ZM82.239 4.952C84.3297 4.952 85.9937 5.63467 87.231 7C88.4897 8.344 89.119 10.2 89.119 12.568V23H83.679V13.304C83.679 12.1093 83.3697 11.1813 82.751 10.52C82.1323 9.85867 81.3003 9.528 80.255 9.528C79.2097 9.528 78.3777 9.85867 77.759 10.52C77.1403 11.1813 76.831 12.1093 76.831 13.304V23H71.359V5.144H76.831V7.512C77.3857 6.72267 78.1323 6.104 79.071 5.656C80.0097 5.18667 81.0657 4.952 82.239 4.952ZM122.487 4.952C124.705 4.952 126.465 5.624 127.767 6.968C129.089 8.312 129.751 10.1787 129.751 12.568V23H124.311V13.304C124.311 12.152 124.001 11.2667 123.383 10.648C122.785 10.008 121.953 9.688 120.887 9.688C119.82 9.688 118.977 10.008 118.359 10.648C117.761 11.2667 117.463 12.152 117.463 13.304V23H112.023V13.304C112.023 12.152 111.713 11.2667 111.095 10.648C110.497 10.008 109.665 9.688 108.599 9.688C107.532 9.688 106.689 10.008 106.071 10.648C105.473 11.2667 105.175 12.152 105.175 13.304V23H99.7028V5.144H105.175V7.384C105.729 6.63733 106.455 6.05067 107.351 5.624C108.247 5.176 109.26 4.952 110.391 4.952C111.735 4.952 112.929 5.24 113.975 5.816C115.041 6.392 115.873 7.21333 116.471 8.28C117.089 7.29867 117.932 6.49867 118.999 5.88C120.065 5.26133 121.228 4.952 122.487 4.952ZM141.706 23.256C139.956 23.256 138.378 22.8827 136.97 22.136C135.583 21.3893 134.484 20.3227 133.674 18.936C132.884 17.5493 132.49 15.928 132.49 14.072C132.49 12.2373 132.895 10.6267 133.706 9.24C134.516 7.832 135.626 6.75467 137.034 6.008C138.442 5.26133 140.02 4.888 141.77 4.888C143.519 4.888 145.098 5.26133 146.506 6.008C147.914 6.75467 149.023 7.832 149.834 9.24C150.644 10.6267 151.05 12.2373 151.05 14.072C151.05 15.9067 150.634 17.528 149.802 18.936C148.991 20.3227 147.871 21.3893 146.442 22.136C145.034 22.8827 143.455 23.256 141.706 23.256ZM141.706 18.52C142.751 18.52 143.636 18.136 144.362 17.368C145.108 16.6 145.482 15.5013 145.482 14.072C145.482 12.6427 145.119 11.544 144.394 10.776C143.69 10.008 142.815 9.624 141.77 9.624C140.703 9.624 139.818 10.008 139.114 10.776C138.41 11.5227 138.058 12.6213 138.058 14.072C138.058 15.5013 138.399 16.6 139.082 17.368C139.786 18.136 140.66 18.52 141.706 18.52ZM159.425 8.12C160.065 7.13867 160.865 6.37067 161.825 5.816C162.785 5.24 163.851 4.952 165.025 4.952V10.744H163.521C162.155 10.744 161.131 11.0427 160.449 11.64C159.766 12.216 159.425 13.24 159.425 14.712V23H153.953V5.144H159.425V8.12ZM184.472 13.784C184.472 14.296 184.44 14.8293 184.376 15.384H171.992C172.078 16.4933 172.43 17.3467 173.048 17.944C173.688 18.52 174.467 18.808 175.384 18.808C176.75 18.808 177.699 18.232 178.232 17.08H184.056C183.758 18.2533 183.214 19.3093 182.424 20.248C181.656 21.1867 180.686 21.9227 179.512 22.456C178.339 22.9893 177.027 23.256 175.576 23.256C173.827 23.256 172.27 22.8827 170.904 22.136C169.539 21.3893 168.472 20.3227 167.704 18.936C166.936 17.5493 166.552 15.928 166.552 14.072C166.552 12.216 166.926 10.5947 167.672 9.208C168.44 7.82133 169.507 6.75467 170.872 6.008C172.238 5.26133 173.806 4.888 175.576 4.888C177.304 4.888 178.84 5.25067 180.184 5.976C181.528 6.70133 182.574 7.736 183.32 9.08C184.088 10.424 184.472 11.992 184.472 13.784ZM178.872 12.344C178.872 11.4053 178.552 10.6587 177.912 10.104C177.272 9.54933 176.472 9.272 175.512 9.272C174.595 9.272 173.816 9.53867 173.176 10.072C172.558 10.6053 172.174 11.3627 172.024 12.344H178.872Z" fill="white"/>
</svg>
