<svg width="375" height="252" viewBox="0 0 375 252" fill="none" xmlns="http://www.w3.org/2000/svg">
<rect x="2" y="2" width="371" height="248" rx="6" stroke="white" stroke-width="4"/>
<path d="M134.342 3.80647C134.342 3.80643 134.345 3.80542 134.353 3.80356C134.346 3.80558 134.342 3.80651 134.342 3.80647ZM135.703 3.62744C136.471 3.55437 137.491 3.48042 138.746 3.40708C141.92 3.22161 146.474 3.047 151.961 2.89191C162.929 2.5819 177.562 2.3516 192.199 2.2657C206.839 2.1798 221.465 2.23846 232.422 2.50531C237.906 2.63887 242.442 2.82395 245.593 3.06615C246.916 3.1679 247.955 3.27686 248.702 3.3891C248.013 9.36216 242.939 14 236.781 14H147.594C141.518 14 136.497 9.48509 135.703 3.62744Z" stroke="white" stroke-width="4"/>
<path d="M144.141 85L91.4062 123.113L144.141 167" stroke="white" stroke-width="8" stroke-linecap="round"/>
<path d="M239.062 167L292.08 128.887L239.062 85" stroke="white" stroke-width="8" stroke-linecap="round"/>
<path d="M195.875 8C195.875 9.51397 194.379 11 192.188 11C189.996 11 188.5 9.51397 188.5 8C188.5 6.48603 189.996 5 192.188 5C194.379 5 195.875 6.48603 195.875 8Z" stroke="white" stroke-width="2"/>
</svg>
