<svg width="64" height="64" viewBox="0 0 64 64" fill="none" xmlns="http://www.w3.org/2000/svg">
<path d="M22.6666 38.6667L13.3333 58.6667M21.3333 16C21.3333 16 23.9999 13.1707 23.9999 10.6667C23.9999 7.11204 21.3333 5.33337 21.3333 5.33337M31.9999 16C31.9999 16 34.6666 13.1707 34.6666 10.6667C34.6666 7.11204 31.9999 5.33337 31.9999 5.33337M42.6666 16C42.6666 16 45.3333 13.1707 45.3333 10.6667C45.3333 7.11204 42.6666 5.33337 42.6666 5.33337" stroke="black" stroke-width="4" stroke-linecap="round" stroke-linejoin="round"/>
<path d="M44 46.6667H20" stroke="black" stroke-width="4" stroke-linejoin="round"/>
<path d="M41.3333 38.6667L46.9333 50.6667M49.3333 58.6667C50.3941 58.6667 51.4115 58.2453 52.1617 57.4952C52.9118 56.745 53.3333 55.7276 53.3333 54.6667C53.3333 53.6059 52.9118 52.5885 52.1617 51.8383C51.4115 51.0882 50.3941 50.6667 49.3333 50.6667C48.2724 50.6667 47.255 51.0882 46.5048 51.8383C45.7547 52.5885 45.3333 53.6059 45.3333 54.6667C45.3333 55.7276 45.7547 56.745 46.5048 57.4952C47.255 58.2453 48.2724 58.6667 49.3333 58.6667Z" stroke="black" stroke-width="4" stroke-linecap="round" stroke-linejoin="round"/>
<path d="M32 40.0001C36.6741 40.0006 41.1783 38.2476 44.6223 35.0875C48.0662 31.9274 50.1994 27.5903 50.6 22.9334C50.6138 22.7254 50.584 22.5168 50.5127 22.3209C50.4414 22.125 50.3301 21.9461 50.1859 21.7956C50.0416 21.645 49.8676 21.5262 49.6749 21.4467C49.4822 21.3671 49.2751 21.3285 49.0667 21.3334H14.9333C14.7249 21.3285 14.5178 21.3671 14.3251 21.4467C14.1324 21.5262 13.9584 21.645 13.8141 21.7956C13.6699 21.9461 13.5586 22.125 13.4873 22.3209C13.416 22.5168 13.3862 22.7254 13.4 22.9334C13.8006 27.5903 15.9338 31.9274 19.3777 35.0875C22.8217 38.2476 27.3259 40.0006 32 40.0001V40.0001Z" stroke="black" stroke-width="4"/>
</svg>
