<svg width="64" height="64" viewBox="0 0 64 64" fill="none" xmlns="http://www.w3.org/2000/svg">
<path fill-rule="evenodd" clip-rule="evenodd" d="M29.7151 4.80005C32.3103 4.80005 34.4108 6.96261 34.4108 9.55781C34.4108 12.1524 32.3103 14.3149 29.7151 14.3149C27.1199 14.3149 24.9574 12.1524 24.9574 9.55781C24.9574 6.96261 27.1206 4.80005 29.7151 4.80005V4.80005ZM30.0242 14.7476C31.8098 14.6919 33.1903 15.8029 33.9167 16.9722L38.8594 25.1898L47.5097 28.8352C49.9807 29.8848 48.807 33.1597 46.0268 32.4186C45.9273 32.351 45.8241 32.289 45.7177 32.233L39.9097 45.0842C39.9097 45.0842 41.7631 49.3479 44.1113 54.1677C46.3974 59.0484 40.8364 61.1495 38.7974 56.6388L36.759 52.0666L33.7932 58.5543L32.5574 57.9981L36.0172 50.4602L30.2092 37.7946C29.9622 37.856 29.7151 37.7946 29.406 37.7946C29.406 37.7946 22.6713 53.1169 20.8172 57.1335C19.0258 61.1495 13.7126 58.7399 15.5039 54.7847C17.2959 50.8308 25.8226 31.6154 25.8226 31.6154L19.4847 31.7191C18.5247 31.7274 18.295 31.5744 18.2342 30.8551C18.1362 28.9543 17.9686 24.482 18.4082 22.409C18.9753 19.737 19.3138 16.7962 21.1884 15.9213C23.0636 15.0464 26.3167 17.4663 26.3167 17.4663C26.8108 15.8599 28.3558 14.7476 30.0242 14.7476V14.7476ZM33.8546 24.386V31.8016L39.1686 43.4176L44.4818 31.7396L36.759 28.5268C36.3878 28.3412 36.0793 28.0941 35.8316 27.7236L33.8546 24.386Z" fill="black"/>
</svg>
