<svg version="1.1" xmlns="http://www.w3.org/2000/svg" viewBox="0 0 297.0168980307799 90.00427026048601"
    class="group w-full max-w-md fill-indigo-300">
<!-- svg-source:excalidraw -->
<!-- 762.7901000976562, 319.5270080566406, 772.5712280273438 -->
<g 
    transform="translate(53.00262316001272 25.00091505581804) rotate(0 19.001159070703352 23.001403085588663)" 
    class="text-indigo-300 group-hover:animate-draw"
    stroke-dasharray="762.7901000976562"
    stroke-dashoffset="762.7901000976562"
>
    <path d="M -2.54,-0.63 Q -2.54,-0.63 -2.27,-1.78 -2.00,-2.94 -3.55,-3.83 -5.11,-4.72 -7.04,-5.16 -8.96,-5.61 -11.41,-5.64 -13.87,-5.66 -15.60,-5.63 -17.34,-5.59 -18.56,-5.11 -19.78,-4.62 -21.57,-3.92 -23.37,-3.22 -25.15,-1.94 -26.93,-0.66 -27.98,0.27 -29.03,1.21 -30.61,2.87 -32.20,4.53 -33.44,6.31 -34.69,8.09 -36.10,10.55 -37.52,13.01 -38.39,15.13 -39.27,17.26 -39.94,19.30 -40.61,21.33 -40.89,24.09 -41.16,26.84 -41.23,28.63 -41.29,30.42 -41.09,32.50 -40.89,34.57 -40.26,36.52 -39.64,38.47 -38.81,40.46 -37.99,42.44 -37.05,44.10 -36.12,45.75 -35.15,46.92 -34.18,48.08 -33.05,48.69 -31.92,49.29 -30.29,50.20 -28.67,51.11 -27.57,51.75 -26.48,52.38 -25.22,52.51 -23.97,52.63 -22.54,52.71 -21.10,52.78 -19.63,52.80 -18.17,52.82 -16.88,52.55 -15.60,52.28 -13.63,51.73 -11.67,51.19 -9.93,50.63 -8.19,50.06 -6.80,49.10 -5.41,48.13 -3.85,47.09 -2.30,46.05 -0.88,44.63 0.53,43.20 1.33,41.79 2.14,40.38 3.11,38.83 4.08,37.29 4.69,36.08 5.30,34.88 5.44,33.75 5.58,32.61 5.34,31.28 5.10,29.95 4.00,28.76 2.90,27.57 1.24,27.65 -0.40,27.73 -1.43,29.31 -2.45,30.88 -3.14,32.60 -3.84,34.32 -3.88,35.58 -3.93,36.83 -3.98,38.01 -4.03,39.19 -3.82,40.28 -3.61,41.38 -2.70,43.10 -1.80,44.81 -1.22,45.85 -0.64,46.89 1.26,47.86 3.17,48.82 5.07,48.77 6.97,48.72 7.93,48.21 8.89,47.69 9.84,46.97 10.78,46.25 12.18,44.16 13.57,42.07 14.27,41.02 14.97,39.96 15.15,37.31 15.32,34.66 14.93,33.28 14.53,31.90 13.60,31.33 12.66,30.75 11.68,29.63 10.69,28.51 9.14,28.04 7.60,27.58 7.97,26.36 8.35,25.14 9.66,25.46 10.96,25.79 12.28,25.51 13.59,25.24 14.84,25.10 16.09,24.95 18.07,24.50 20.06,24.05 21.17,23.79 22.28,23.52 24.93,22.92 27.58,22.33 29.38,21.60 31.18,20.88 32.86,20.31 34.53,19.75 36.29,19.41 38.06,19.07 39.44,19.54 40.82,20.02 41.63,20.95 42.43,21.89 42.80,23.45 43.16,25.01 43.21,26.41 43.26,27.81 43.23,29.01 43.20,30.21 43.36,31.62 43.52,33.03 43.53,35.05 43.54,37.08 43.47,39.07 43.39,41.07 43.42,42.48 43.45,43.89 43.49,45.07 43.53,46.25 43.62,47.66 43.71,49.07 43.67,49.39 43.64,49.72 43.52,50.02 43.41,50.33 43.22,50.60 43.04,50.87 42.79,51.09 42.55,51.31 42.26,51.46 41.97,51.62 41.65,51.70 41.34,51.78 41.01,51.78 40.68,51.78 40.36,51.70 40.04,51.63 39.75,51.47 39.46,51.32 39.22,51.11 38.97,50.89 38.78,50.62 38.60,50.36 38.48,50.05 38.36,49.74 38.32,49.42 38.28,49.09 39.20,48.17 40.11,47.25 40.43,45.44 40.75,43.63 41.67,42.24 42.59,40.86 44.41,38.35 46.24,35.84 47.35,34.37 48.46,32.91 49.57,31.60 50.68,30.29 51.84,29.30 52.99,28.30 55.03,27.10 57.08,25.90 58.59,26.01 60.11,26.12 61.22,26.60 62.33,27.09 63.33,28.13 64.33,29.17 64.98,30.19 65.63,31.21 66.72,32.64 67.81,34.06 68.92,34.60 70.03,35.13 71.14,35.13 72.25,35.13 73.34,34.66 74.43,34.19 76.67,32.02 78.92,29.85 79.32,29.57 79.71,29.30 80.18,29.16 80.64,29.03 81.13,29.05 81.61,29.07 82.06,29.24 82.51,29.42 82.89,29.73 83.26,30.03 83.51,30.45 83.77,30.86 83.88,31.33 83.98,31.80 83.94,32.28 83.89,32.76 83.69,33.21 83.49,33.65 83.17,34.00 82.84,34.36 82.41,34.59 81.99,34.82 81.51,34.90 81.03,34.99 80.56,34.91 80.08,34.84 79.65,34.62 79.22,34.40 78.88,34.05 78.54,33.70 78.34,33.27 78.13,32.83 78.07,32.35 78.01,31.87 78.11,31.39 78.21,30.92 78.45,30.50 78.70,30.09 79.06,29.77 79.43,29.45 79.88,29.27 80.32,29.08 80.81,29.05 81.29,29.02 81.76,29.14 82.23,29.27 82.63,29.54 83.03,29.80 83.33,30.18 83.63,30.57 83.79,31.02 83.95,31.48 83.95,31.96 83.96,32.45 83.81,32.91 83.66,33.37 83.37,33.76 83.08,34.15 83.08,34.15 83.08,34.14 81.44,35.72 79.80,37.29 78.00,38.69 76.20,40.08 74.99,40.44 73.78,40.80 72.07,40.67 70.37,40.53 68.28,39.82 66.19,39.11 65.15,38.27 64.12,37.42 62.03,35.04 59.95,32.67 59.13,31.78 58.32,30.89 57.17,31.49 56.02,32.08 55.16,32.71 54.30,33.33 53.37,34.48 52.43,35.62 51.45,37.22 50.46,38.82 49.52,40.38 48.59,41.94 47.40,43.72 46.21,45.50 45.87,46.52 45.54,47.54 44.62,48.30 43.71,49.07 43.67,49.39 43.64,49.72 43.52,50.02 43.41,50.33 43.22,50.60 43.04,50.87 42.79,51.09 42.55,51.31 42.26,51.46 41.97,51.62 41.65,51.70 41.34,51.78 41.01,51.78 40.68,51.78 40.36,51.70 40.04,51.63 39.75,51.48 39.46,51.32 39.22,51.11 38.97,50.89 38.78,50.62 38.60,50.36 38.48,50.05 38.36,49.74 38.32,49.42 38.28,49.09 38.36,47.69 38.44,46.29 38.46,45.13 38.48,43.97 38.46,42.58 38.45,41.20 38.27,39.32 38.09,37.44 37.86,35.75 37.62,34.06 37.20,32.15 36.78,30.25 36.75,29.06 36.71,27.87 36.73,26.60 36.75,25.33 34.97,25.88 33.18,26.43 32.05,26.86 30.91,27.30 28.67,27.90 26.42,28.49 25.16,29.00 23.90,29.50 21.70,30.02 19.50,30.54 17.36,31.06 15.22,31.57 13.69,31.93 12.15,32.28 10.80,32.12 9.45,31.97 8.13,31.48 6.81,31.00 5.30,29.79 3.80,28.58 3.74,26.76 3.69,24.95 5.05,23.97 6.41,22.99 7.67,22.73 8.92,22.48 9.87,23.01 10.82,23.53 12.69,24.27 14.56,25.00 15.09,25.95 15.62,26.91 16.59,27.74 17.56,28.58 18.14,29.61 18.72,30.64 19.19,32.33 19.65,34.02 20.05,36.85 20.45,39.68 19.10,42.09 17.74,44.51 16.78,46.26 15.82,48.01 14.81,49.14 13.80,50.27 12.45,51.25 11.09,52.24 9.33,53.02 7.57,53.80 5.25,54.06 2.93,54.32 0.81,53.32 -1.31,52.32 -3.22,51.19 -5.13,50.06 -5.77,49.04 -6.40,48.01 -7.33,46.61 -8.25,45.22 -8.72,43.85 -9.19,42.47 -9.53,40.77 -9.86,39.06 -9.85,37.70 -9.83,36.34 -9.71,35.22 -9.59,34.09 -8.88,32.30 -8.18,30.52 -7.64,29.10 -7.11,27.68 -6.24,26.39 -5.37,25.10 -4.30,24.06 -3.22,23.01 -1.06,22.57 1.09,22.14 2.66,22.25 4.23,22.35 5.80,23.56 7.37,24.76 8.06,25.61 8.75,26.47 9.16,27.65 9.58,28.84 9.55,31.15 9.53,33.46 9.08,35.09 8.62,36.72 7.83,37.96 7.04,39.19 6.07,40.68 5.09,42.17 4.03,43.84 2.97,45.51 1.35,47.27 -0.25,49.04 -1.79,50.09 -3.33,51.14 -5.14,52.39 -6.96,53.65 -8.71,54.24 -10.46,54.84 -12.65,55.67 -14.85,56.50 -16.57,56.76 -18.30,57.02 -19.86,56.93 -21.43,56.85 -23.06,56.68 -24.68,56.50 -26.59,56.05 -28.50,55.59 -29.41,54.86 -30.33,54.13 -32.09,53.17 -33.85,52.21 -35.27,51.13 -36.70,50.04 -37.68,48.59 -38.66,47.14 -39.61,45.33 -40.56,43.53 -41.46,41.44 -42.35,39.35 -43.08,37.12 -43.81,34.90 -44.08,32.56 -44.35,30.23 -44.18,28.40 -44.00,26.57 -43.71,23.51 -43.42,20.46 -42.77,18.30 -42.12,16.13 -41.23,13.80 -40.34,11.46 -38.96,8.83 -37.57,6.20 -36.29,4.12 -35.01,2.05 -33.35,0.04 -31.70,-1.95 -30.54,-2.87 -29.38,-3.78 -27.31,-5.52 -25.25,-7.25 -23.41,-8.22 -21.56,-9.19 -19.64,-9.93 -17.71,-10.68 -16.10,-10.83 -14.49,-10.99 -12.24,-11.35 -9.98,-11.72 -8.66,-11.52 -7.34,-11.33 -6.24,-11.04 -5.13,-10.75 -3.14,-10.10 -1.14,-9.45 -0.22,-8.92 0.69,-8.39 1.65,-7.26 2.62,-6.13 3.00,-5.07 3.38,-4.00 3.26,-2.83 3.15,-1.65 2.84,-0.51 2.54,0.63 2.42,0.93 2.31,1.22 2.13,1.48 1.95,1.74 1.71,1.95 1.48,2.16 1.20,2.30 0.92,2.45 0.61,2.52 0.30,2.60 -0.00,2.60 -0.32,2.60 -0.63,2.52 -0.93,2.44 -1.21,2.29 -1.49,2.15 -1.73,1.94 -1.96,1.73 -2.14,1.47 -2.32,1.21 -2.43,0.91 -2.54,0.61 -2.58,0.30 -2.62,-0.00 -2.58,-0.32 -2.54,-0.63 -2.54,-0.63 L -2.54,-0.63 Z"></path>
</g>
<g 
    transform="translate(160.00915055818405 18.000488029769258) rotate(0 -3.5002135130243914 21.50131158000704)" 
    class="text-indigo-300 group-hover:animate-draw"
    stroke-dasharray="319.5270080566406"
    stroke-dashoffset="319.5270080566406"
>
    <path d="M -2.19,0 Q -2.19,0 -2.25,-0.57 -2.32,-1.15 -2.28,-1.42 -2.25,-1.70 -2.15,-1.96 -2.05,-2.22 -1.89,-2.45 -1.73,-2.68 -1.52,-2.87 -1.31,-3.06 -1.07,-3.19 -0.82,-3.32 -0.55,-3.38 -0.27,-3.45 0.00,-3.45 0.27,-3.45 0.55,-3.38 0.82,-3.32 1.07,-3.19 1.31,-3.06 1.52,-2.87 1.73,-2.68 1.89,-2.45 2.05,-2.22 2.15,-1.96 2.25,-1.70 2.28,-1.42 2.32,-1.14 1.12,-0.01 -0.06,1.11 -0.74,2.07 -1.42,3.03 -2.55,4.83 -3.68,6.64 -4.68,7.83 -5.68,9.02 -6.92,11.18 -8.15,13.35 -9.33,15.99 -10.51,18.63 -11.92,22.06 -13.34,25.50 -13.94,27.45 -14.54,29.40 -14.81,32.13 -15.07,34.86 -15.20,36.91 -15.33,38.95 -14.79,40.45 -14.26,41.94 -12.54,41.92 -10.82,41.90 -9.88,39.94 -8.95,37.97 -8.43,36.66 -7.92,35.35 -8.01,34.00 -8.10,32.66 -8.38,31.22 -8.67,29.78 -9.07,28.32 -9.48,26.86 -10.13,25.54 -10.79,24.22 -12.00,22.90 -13.21,21.58 -14.33,20.77 -15.46,19.97 -17.06,18.65 -18.66,17.33 -19.91,16.59 -21.16,15.85 -22.27,15.30 -23.37,14.75 -24.41,13.97 -25.44,13.19 -25.24,11.44 -25.03,9.69 -22.94,9.47 -20.85,9.24 -18.54,9.34 -16.24,9.44 -14.51,9.79 -12.78,10.14 -10.02,10.39 -7.26,10.65 -3.45,10.82 0.34,10.98 3.69,11.09 7.04,11.19 10.19,11.27 13.34,11.34 15.67,11.39 18.00,11.44 18.25,11.48 18.50,11.52 18.72,11.64 18.94,11.76 19.11,11.94 19.29,12.13 19.39,12.36 19.49,12.58 19.52,12.83 19.55,13.08 19.49,13.33 19.44,13.58 19.31,13.79 19.18,14.01 18.99,14.17 18.79,14.33 18.56,14.42 18.33,14.51 18.07,14.53 17.82,14.54 17.58,14.47 17.34,14.40 17.13,14.26 16.92,14.12 16.77,13.92 16.62,13.72 16.54,13.48 16.46,13.24 16.46,12.99 16.46,12.74 16.54,12.50 16.63,12.26 16.78,12.06 16.93,11.86 17.14,11.72 17.35,11.58 17.59,11.52 17.83,11.45 18.08,11.46 18.34,11.48 18.57,11.57 18.80,11.67 18.99,11.83 19.18,11.99 19.31,12.21 19.44,12.43 19.50,12.67 19.55,12.92 19.52,13.17 19.49,13.42 19.39,13.64 19.28,13.87 19.11,14.05 18.93,14.24 18.71,14.35 18.49,14.47 18.24,14.51 17.99,14.55 17.99,14.55 17.99,14.55 15.66,14.59 13.33,14.63 10.18,14.68 7.02,14.73 3.65,14.79 0.29,14.85 -3.58,14.90 -7.45,14.96 -10.59,14.95 -13.73,14.95 -15.06,14.69 -16.39,14.42 -18.06,14.40 -19.73,14.38 -21.29,13.69 -22.85,13.00 -22.08,12.06 -21.31,11.13 -20.18,11.85 -19.05,12.57 -17.74,13.47 -16.42,14.38 -14.70,15.57 -12.99,16.77 -11.71,17.82 -10.44,18.87 -8.71,20.57 -6.97,22.26 -6.13,23.98 -5.28,25.71 -4.84,27.34 -4.41,28.97 -4.08,30.75 -3.75,32.53 -3.74,34.69 -3.73,36.85 -4.35,38.39 -4.96,39.93 -5.75,41.43 -6.54,42.93 -7.81,44.27 -9.07,45.60 -10.91,46.16 -12.74,46.73 -14.26,46.22 -15.78,45.71 -16.54,44.29 -17.31,42.88 -17.83,40.87 -18.36,38.87 -18.29,36.73 -18.21,34.60 -17.99,31.56 -17.77,28.52 -17.24,26.36 -16.72,24.21 -15.46,20.68 -14.21,17.15 -13.17,14.24 -12.14,11.33 -10.87,8.54 -9.60,5.76 -8.77,4.77 -7.94,3.79 -7.15,2.58 -6.36,1.37 -4.94,-0.16 -3.52,-1.70 -2.30,-2.47 -1.08,-3.23 -1.70,-2.19 -2.32,-1.14 -2.28,-1.42 -2.25,-1.70 -2.15,-1.96 -2.05,-2.22 -1.89,-2.45 -1.73,-2.68 -1.52,-2.87 -1.31,-3.06 -1.07,-3.19 -0.82,-3.32 -0.55,-3.38 -0.27,-3.45 -0.00,-3.45 0.27,-3.45 0.55,-3.38 0.82,-3.32 1.07,-3.19 1.31,-3.06 1.52,-2.87 1.73,-2.68 1.89,-2.45 2.05,-2.22 2.15,-1.96 2.25,-1.70 2.28,-1.42 2.32,-1.15 2.25,-0.57 2.19,0 2.16,0.26 2.13,0.52 2.04,0.77 1.94,1.02 1.79,1.23 1.64,1.45 1.44,1.63 1.24,1.80 1.01,1.93 0.77,2.05 0.52,2.11 0.26,2.18 -0.00,2.18 -0.26,2.18 -0.52,2.11 -0.77,2.05 -1.01,1.93 -1.24,1.80 -1.44,1.63 -1.64,1.45 -1.79,1.23 -1.94,1.02 -2.04,0.77 -2.13,0.52 -2.16,0.26 -2.19,-0.00 -2.19,-0.00 L -2.19,0 Z"></path>
</g>
<g 
    transform="translate(177.01018762144486 49.002379145127634) rotate(0 46.50283667303711 -10.50064053907272)" 
    class="text-indigo-300 group-hover:animate-draw"
    stroke-dasharray="772.5712280273438"
    stroke-dashoffset="772.5712280273438"
>
    <path d="M -2.43,0 Q -2.43,0 -2.42,-0.69 -2.41,-1.39 -3.42,-0.15 -4.42,1.07 -5.96,1.68 -7.50,2.30 -8.55,3.02 -9.60,3.74 -11.14,5.85 -12.67,7.96 -13.22,9.25 -13.77,10.53 -13.75,12.15 -13.74,13.76 -12.86,14.40 -11.99,15.04 -10.57,14.28 -9.16,13.51 -7.95,12.55 -6.74,11.59 -5.72,10.47 -4.70,9.35 -3.25,7.76 -1.80,6.17 -0.97,4.55 -0.14,2.93 0.48,1.53 1.11,0.13 1.04,-1.33 0.96,-2.81 1.06,-3.08 1.16,-3.34 1.32,-3.58 1.48,-3.81 1.69,-4.00 1.90,-4.19 2.15,-4.32 2.40,-4.46 2.67,-4.52 2.95,-4.59 3.23,-4.60 3.51,-4.60 3.79,-4.53 4.06,-4.47 4.31,-4.34 4.57,-4.21 4.78,-4.02 4.99,-3.83 5.15,-3.60 5.32,-3.37 5.42,-3.11 5.52,-2.84 5.56,-2.56 5.59,-2.28 5.56,-2.00 5.53,-1.72 5.00,-0.49 4.46,0.74 4.54,1.92 4.63,3.10 4.59,4.49 4.56,5.87 4.98,7.26 5.41,8.65 6.02,9.66 6.63,10.66 8.68,11.00 10.73,11.35 12.76,10.22 14.79,9.10 16.21,8.25 17.64,7.40 19.78,6.26 21.91,5.11 23.67,4.08 25.43,3.05 27.32,1.81 29.22,0.56 30.22,-0.32 31.23,-1.21 32.57,-2.20 33.92,-3.19 35.52,-4.40 37.11,-5.60 37.87,-6.40 38.63,-7.20 39.39,-8.06 40.15,-8.92 40.46,-8.99 40.77,-9.07 41.09,-9.07 41.41,-9.07 41.72,-9.00 42.03,-8.92 42.31,-8.78 42.59,-8.63 42.83,-8.42 43.07,-8.21 43.26,-7.95 43.44,-7.69 43.55,-7.39 43.67,-7.09 43.71,-6.77 43.75,-6.46 43.71,-6.14 43.67,-5.83 43.56,-5.53 43.45,-5.23 43.27,-4.96 43.09,-4.70 42.85,-4.49 42.61,-4.28 42.33,-4.13 42.05,-3.98 40.25,-3.45 38.44,-2.93 36.94,-2.34 35.44,-1.76 34.06,-0.82 32.68,0.11 31.11,1.15 29.53,2.18 28.47,3.51 27.41,4.84 26.64,5.85 25.87,6.85 25.70,8.75 25.53,10.65 25.79,11.79 26.05,12.94 27.48,13.83 28.90,14.71 30.43,14.70 31.95,14.70 33.40,14.66 34.84,14.63 36.40,14.41 37.97,14.19 39.85,13.16 41.74,12.12 44.35,10.29 46.97,8.45 49.49,6.02 52.00,3.59 53.70,1.96 55.40,0.33 57.20,-2.24 59.00,-4.83 60.36,-7.08 61.72,-9.33 62.56,-11.11 63.39,-12.90 64.33,-15.34 65.27,-17.79 65.58,-19.37 65.88,-20.94 66.67,-23.40 67.46,-25.85 67.74,-27.65 68.01,-29.45 68.44,-31.44 68.87,-33.43 68.93,-34.53 68.99,-35.62 68.64,-37.06 68.29,-38.49 68.34,-38.74 68.39,-38.98 68.50,-39.21 68.60,-39.44 68.76,-39.64 68.92,-39.83 69.12,-39.98 69.32,-40.14 69.55,-40.24 69.78,-40.34 70.03,-40.38 70.28,-40.42 70.53,-40.40 70.78,-40.39 71.02,-40.31 71.26,-40.23 71.47,-40.10 71.68,-39.96 71.86,-39.78 72.04,-39.60 72.16,-39.39 72.29,-39.17 72.36,-38.93 72.43,-38.69 72.45,-38.44 72.46,-38.19 71.77,-37.15 71.07,-36.11 70.52,-34.80 69.97,-33.50 69.36,-31.79 68.75,-30.09 68.21,-28.45 67.67,-26.80 67.10,-24.50 66.52,-22.20 65.98,-20.27 65.44,-18.34 65.28,-16.78 65.12,-15.22 64.76,-13.55 64.41,-11.88 64.19,-9.92 63.98,-7.97 63.56,-4.76 63.15,-1.54 62.66,1.00 62.17,3.55 62.05,5.16 61.93,6.77 61.62,7.98 61.30,9.19 60.91,10.28 60.52,11.36 59.26,13.19 58.01,15.03 56.83,15.25 55.65,15.48 54.47,15.14 53.29,14.81 51.99,13.89 50.69,12.97 49.92,11.67 49.14,10.36 48.92,8.79 48.71,7.23 49.40,5.76 50.09,4.29 51.59,3.34 53.09,2.40 54.94,1.84 56.79,1.28 58.92,0.66 61.05,0.03 64.99,-0.79 68.94,-1.62 71.71,-2.21 74.49,-2.79 77.67,-3.58 80.85,-4.36 83.37,-4.97 85.90,-5.57 88.67,-6.38 91.44,-7.19 93.88,-7.55 96.32,-7.91 100.17,-8.61 104.02,-9.32 106.88,-9.84 109.74,-10.36 109.97,-10.37 110.19,-10.37 110.41,-10.31 110.62,-10.24 110.81,-10.11 110.99,-9.98 111.12,-9.79 111.25,-9.61 111.32,-9.39 111.38,-9.18 111.38,-8.95 111.37,-8.73 111.29,-8.52 111.21,-8.31 111.07,-8.13 110.93,-7.96 110.74,-7.84 110.55,-7.71 110.33,-7.66 110.11,-7.61 109.89,-7.63 109.66,-7.65 109.45,-7.73 109.25,-7.82 109.08,-7.98 108.91,-8.13 108.80,-8.32 108.69,-8.52 108.65,-8.74 108.61,-8.96 108.64,-9.19 108.67,-9.41 108.77,-9.61 108.87,-9.81 109.03,-9.97 109.19,-10.13 109.40,-10.23 109.60,-10.33 109.82,-10.36 110.04,-10.39 110.27,-10.34 110.49,-10.30 110.68,-10.19 110.88,-10.08 111.03,-9.91 111.18,-9.74 111.27,-9.53 111.35,-9.33 111.37,-9.10 111.39,-8.88 111.33,-8.66 111.28,-8.44 111.16,-8.25 111.03,-8.06 110.86,-7.92 110.68,-7.78 110.47,-7.70 110.26,-7.63 110.26,-7.63 110.26,-7.63 107.40,-7.07 104.55,-6.52 100.66,-5.77 96.77,-5.01 94.55,-4.65 92.32,-4.28 89.51,-3.38 86.70,-2.48 84.22,-1.78 81.74,-1.08 78.55,-0.14 75.37,0.79 72.63,1.56 69.90,2.33 66.29,3.33 62.68,4.33 60.56,5.31 58.45,6.29 57.09,6.80 55.72,7.31 54.88,8.21 54.03,9.10 55.41,9.40 56.79,9.70 57.70,8.03 58.62,6.37 58.87,4.70 59.13,3.02 59.52,0.56 59.90,-1.90 60.20,-5.07 60.49,-8.24 60.60,-10.50 60.71,-12.76 61.11,-14.23 61.51,-15.69 61.79,-17.47 62.06,-19.24 62.54,-21.10 63.01,-22.95 63.47,-25.50 63.93,-28.04 64.48,-29.68 65.03,-31.32 65.63,-33.27 66.23,-35.23 67.26,-36.86 68.29,-38.49 68.34,-38.74 68.39,-38.98 68.50,-39.21 68.60,-39.44 68.76,-39.63 68.92,-39.83 69.12,-39.98 69.32,-40.14 69.55,-40.24 69.78,-40.34 70.03,-40.38 70.28,-40.42 70.53,-40.40 70.78,-40.39 71.02,-40.31 71.26,-40.23 71.47,-40.10 71.68,-39.97 71.86,-39.79 72.03,-39.61 72.16,-39.39 72.29,-39.17 72.36,-38.93 72.43,-38.69 72.45,-38.44 72.46,-38.19 72.62,-37.84 72.79,-37.49 72.63,-36.28 72.47,-35.07 72.18,-33.92 71.88,-32.78 71.47,-30.86 71.05,-28.94 70.69,-26.96 70.33,-24.98 69.63,-22.59 68.93,-20.20 68.43,-18.49 67.94,-16.79 66.99,-14.22 66.04,-11.65 65.14,-9.75 64.24,-7.84 62.87,-5.48 61.51,-3.12 59.59,-0.26 57.67,2.58 56.04,4.29 54.41,5.99 51.80,8.70 49.18,11.40 46.49,13.52 43.80,15.64 41.32,17.16 38.83,18.68 36.88,19.06 34.93,19.44 33.52,19.46 32.10,19.48 29.61,19.59 27.12,19.71 24.63,18.03 22.14,16.36 21.66,15.38 21.17,14.40 21.04,12.22 20.90,10.04 21.12,8.79 21.35,7.54 21.93,5.90 22.51,4.27 23.35,3.34 24.20,2.40 25.58,0.52 26.97,-1.35 28.44,-2.46 29.90,-3.57 31.63,-4.96 33.37,-6.36 35.11,-7.22 36.86,-8.07 38.51,-8.50 40.15,-8.92 40.46,-8.99 40.77,-9.07 41.09,-9.07 41.41,-9.07 41.72,-9.00 42.03,-8.92 42.31,-8.78 42.59,-8.63 42.83,-8.42 43.07,-8.21 43.26,-7.95 43.44,-7.69 43.55,-7.39 43.67,-7.09 43.71,-6.77 43.75,-6.46 43.71,-6.14 43.67,-5.83 43.56,-5.53 43.45,-5.23 43.27,-4.97 43.09,-4.70 42.85,-4.49 42.61,-4.28 42.33,-4.13 42.05,-3.98 42.77,-4.82 43.48,-5.67 42.02,-4.07 40.56,-2.48 39.30,-1.91 38.04,-1.34 37.10,-0.68 36.16,-0.03 34.85,0.85 33.54,1.73 32.37,2.55 31.20,3.37 29.31,4.78 27.43,6.20 25.71,7.38 24.00,8.56 22.02,9.91 20.03,11.26 18.54,12.23 17.05,13.19 15.49,14.06 13.93,14.92 12.13,15.43 10.34,15.94 8.28,15.64 6.22,15.35 4.59,14.39 2.95,13.42 1.93,11.78 0.91,10.13 0.20,8.00 -0.49,5.88 -0.48,4.39 -0.47,2.90 -0.36,1.27 -0.26,-0.34 0.35,-1.58 0.96,-2.81 1.06,-3.08 1.16,-3.34 1.32,-3.58 1.48,-3.81 1.69,-4.00 1.90,-4.19 2.15,-4.32 2.40,-4.46 2.67,-4.52 2.95,-4.59 3.23,-4.60 3.51,-4.60 3.79,-4.53 4.06,-4.47 4.31,-4.34 4.57,-4.21 4.78,-4.02 4.99,-3.83 5.15,-3.60 5.32,-3.37 5.42,-3.11 5.52,-2.84 5.56,-2.56 5.59,-2.28 5.56,-2.00 5.53,-1.72 5.64,-1.34 5.75,-0.95 5.35,0.48 4.95,1.93 4.27,3.28 3.60,4.64 2.71,6.80 1.82,8.95 0.58,10.83 -0.66,12.70 -2.70,14.92 -4.74,17.13 -5.76,17.76 -6.79,18.39 -8.49,19.19 -10.19,19.99 -11.98,20.07 -13.77,20.14 -14.79,19.61 -15.82,19.08 -16.84,17.99 -17.86,16.89 -18.30,15.68 -18.74,14.46 -18.86,12.69 -18.97,10.93 -18.59,9.80 -18.21,8.67 -17.40,6.72 -16.59,4.77 -15.75,3.76 -14.90,2.75 -13.79,1.18 -12.68,-0.37 -11.21,-1.43 -9.75,-2.50 -7.18,-3.69 -4.62,-4.88 -3.43,-5.23 -2.25,-5.58 -0.46,-4.88 1.32,-4.19 1.87,-3.12 2.41,-2.05 2.42,-1.02 2.43,0 2.39,0.29 2.36,0.58 2.25,0.85 2.15,1.13 1.98,1.37 1.82,1.61 1.60,1.80 1.38,2.00 1.12,2.13 0.86,2.27 0.57,2.34 0.29,2.41 -0.00,2.41 -0.29,2.41 -0.57,2.34 -0.86,2.27 -1.12,2.13 -1.38,2.00 -1.60,1.80 -1.82,1.61 -1.98,1.37 -2.15,1.13 -2.25,0.85 -2.36,0.58 -2.39,0.29 -2.43,-0.00 -2.43,-0.00 L -2.43,0 Z">
</path></g></svg>