<svg 
    version="1.1" 
    xmlns="http://www.w3.org/2000/svg" 
    viewBox="0 0 326.0186671386954 121.00616137584439"     
    class="group w-full max-w-md fill-indigo-300">
<!-- svg-source:excalidraw -->
<!-- 895.0477294921875, 50.00272750854492, 448.5486755371094, 100.89921569824219, 299.59332275390625, 131.73440551757812 debugger eval code:7:13 -->

<g 
    transform="translate(10 90.00488029769804) rotate(0 60.50369072513422 -19.00115907070267)"
    class="text-indigo-300 group-hover:animate-draw"
    stroke-dasharray="895.0477294921875"
    stroke-dashoffset="895.0477294921875"
    >
    <path d="M 2.56,-0.64 Q 2.56,-0.64 2.86,0.50 3.17,1.64 3.96,3.46 4.76,5.28 5.64,6.34 6.52,7.40 7.77,7.57 9.03,7.73 10.19,7.39 11.34,7.06 13.28,5.79 15.21,4.52 15.92,3.66 16.62,2.81 18.33,1.27 20.04,-0.26 21.86,-2.47 23.67,-4.69 25.68,-7.10 27.69,-9.51 29.36,-12.15 31.04,-14.79 32.96,-17.69 34.89,-20.58 36.25,-23.16 37.61,-25.75 39.10,-28.33 40.58,-30.91 41.47,-32.81 42.37,-34.70 43.02,-36.61 43.67,-38.52 44.18,-39.80 44.68,-41.07 45.12,-42.17 45.56,-43.26 46.00,-44.90 46.43,-46.54 47.48,-47.78 48.52,-49.02 49.68,-48.31 50.84,-47.60 51.12,-46.53 51.41,-45.46 51.03,-44.43 50.64,-43.41 50.74,-41.78 50.84,-40.16 50.83,-38.13 50.81,-36.09 50.72,-34.34 50.63,-32.59 50.52,-30.69 50.42,-28.80 50.43,-27.42 50.44,-26.04 50.41,-23.35 50.39,-20.67 50.36,-19.04 50.34,-17.41 50.60,-16.07 50.86,-14.72 51.37,-12.61 51.88,-10.50 52.09,-9.24 52.30,-7.98 52.86,-6.29 53.41,-4.61 53.59,-5.72 53.76,-6.84 54.55,-7.93 55.34,-9.02 56.71,-10.59 58.07,-12.17 58.83,-13.34 59.60,-14.51 60.96,-16.18 62.33,-17.85 63.08,-19.07 63.84,-20.30 65.49,-23.66 67.15,-27.01 68.03,-28.50 68.91,-29.99 69.49,-31.35 70.07,-32.70 70.63,-34.60 71.19,-36.50 71.61,-38.27 72.03,-40.05 72.48,-41.22 72.94,-42.40 73.47,-44.28 74.01,-46.15 74.02,-47.37 74.04,-48.59 74.13,-48.93 74.21,-49.28 74.38,-49.59 74.54,-49.91 74.78,-50.17 75.01,-50.43 75.30,-50.64 75.60,-50.84 75.93,-50.96 76.26,-51.09 76.61,-51.13 76.96,-51.17 77.31,-51.13 77.66,-51.08 78.00,-50.96 78.33,-50.83 78.62,-50.63 78.91,-50.43 79.14,-50.16 79.38,-49.90 79.54,-49.59 79.71,-49.27 79.79,-48.93 79.87,-48.58 79.87,-48.23 79.87,-47.88 79.28,-46.75 78.68,-45.62 78.41,-43.89 78.14,-42.15 78.17,-40.57 78.20,-38.98 77.83,-37.49 77.46,-35.99 77.28,-34.60 77.10,-33.21 76.99,-31.71 76.87,-30.21 76.75,-28.43 76.62,-26.65 76.64,-24.29 76.66,-21.93 76.64,-20.52 76.62,-19.11 77.03,-16.68 77.45,-14.25 77.73,-12.99 78.02,-11.72 78.53,-10.03 79.04,-8.34 79.58,-6.85 80.11,-5.35 80.70,-4.22 81.28,-3.09 82.59,-3.09 83.90,-3.10 84.39,-3.14 84.89,-3.18 85.28,-3.18 85.67,-3.17 86.05,-3.08 86.43,-2.98 86.77,-2.80 87.12,-2.62 87.41,-2.36 87.70,-2.09 87.92,-1.77 88.14,-1.45 88.28,-1.08 88.41,-0.72 88.46,-0.33 88.50,0.05 88.45,0.44 88.41,0.83 88.26,1.19 88.12,1.55 87.90,1.87 87.68,2.20 87.38,2.45 87.09,2.71 86.74,2.89 86.39,3.07 86.01,3.16 85.63,3.25 85.19,0.03 84.74,-3.18 85.13,-3.18 85.52,-3.17 85.89,-3.08 86.27,-2.98 86.61,-2.80 86.96,-2.62 87.25,-2.36 87.53,-2.10 87.75,-1.78 87.97,-1.46 88.11,-1.10 88.24,-0.73 88.29,-0.35 88.33,0.03 88.28,0.41 88.23,0.80 88.09,1.16 87.95,1.52 87.73,1.84 87.51,2.16 87.22,2.42 86.92,2.67 86.58,2.85 86.24,3.03 85.86,3.12 85.48,3.21 84.44,0.18 83.40,-2.84 84.39,-3.37 85.38,-3.91 86.45,-5.13 87.52,-6.36 88.72,-7.52 89.93,-8.68 90.72,-9.43 91.51,-10.17 92.95,-11.93 94.40,-13.69 95.34,-14.36 96.29,-15.04 97.05,-16.12 97.80,-17.20 99.16,-18.70 100.52,-20.20 100.46,-20.13 100.40,-20.06 100.60,-20.41 100.80,-20.75 101.08,-21.04 101.36,-21.33 101.70,-21.55 102.04,-21.77 102.42,-21.89 102.80,-22.02 103.20,-22.06 103.60,-22.09 104.00,-22.03 104.40,-21.96 104.77,-21.80 105.14,-21.65 105.46,-21.41 105.78,-21.17 106.03,-20.86 106.29,-20.55 106.46,-20.18 106.64,-19.82 106.72,-19.43 106.80,-19.03 106.78,-18.63 106.77,-18.23 106.66,-17.84 106.55,-17.46 104.17,-16.68 101.79,-15.90 101.09,-14.71 100.40,-13.52 99.41,-12.50 98.43,-11.48 98.50,-9.94 98.58,-8.39 98.50,-6.55 98.42,-4.71 98.60,-3.54 98.78,-2.37 99.77,-1.22 100.76,-0.07 102.01,0.64 103.26,1.35 104.51,1.27 105.77,1.18 106.98,0.56 108.19,-0.06 109.14,-0.57 110.09,-1.07 111.47,-2.36 112.84,-3.64 113.81,-4.89 114.77,-6.13 115.19,-7.24 115.60,-8.35 116.05,-9.52 116.51,-10.69 117.05,-12.29 117.60,-13.88 117.36,-15.06 117.12,-16.25 115.04,-16.96 112.95,-17.67 111.81,-17.61 110.67,-17.54 109.32,-17.56 107.97,-17.58 107.24,-16.78 106.51,-15.99 105.63,-15.34 104.75,-14.68 105.53,-13.76 106.32,-12.83 107.79,-13.17 109.25,-13.51 110.51,-14.55 111.77,-15.60 113.07,-17.31 114.38,-19.02 114.78,-19.38 115.17,-19.75 115.66,-19.97 116.14,-20.19 116.68,-20.24 117.21,-20.30 117.73,-20.18 118.25,-20.06 118.71,-19.78 119.16,-19.50 119.51,-19.09 119.85,-18.68 120.04,-18.18 120.24,-17.68 120.26,-17.15 120.29,-16.61 120.14,-16.10 119.99,-15.58 119.69,-15.14 119.39,-14.70 118.96,-14.38 118.53,-14.06 118.02,-13.89 117.51,-13.73 116.98,-13.73 116.44,-13.74 115.93,-13.91 115.43,-14.09 115.00,-14.41 114.58,-14.74 114.28,-15.19 113.99,-15.63 113.85,-16.15 113.71,-16.67 113.74,-17.20 113.78,-17.73 113.98,-18.23 114.18,-18.73 114.53,-19.13 114.88,-19.54 115.34,-19.81 115.80,-20.08 116.33,-20.19 116.85,-20.30 117.38,-20.24 117.91,-20.18 118.40,-19.95 118.88,-19.72 119.27,-19.35 119.65,-18.98 119.90,-18.50 120.15,-18.03 120.23,-17.50 120.31,-16.97 120.22,-16.44 120.13,-15.91 119.87,-15.44 119.62,-14.97 119.62,-14.97 119.62,-14.97 117.17,-12.12 114.73,-9.26 112.60,-7.83 110.47,-6.39 109.15,-6.00 107.82,-5.60 105.80,-5.89 103.79,-6.19 102.13,-7.59 100.48,-9.00 99.89,-9.98 99.30,-10.96 98.92,-12.97 98.55,-14.99 98.87,-16.58 99.19,-18.16 100.08,-19.15 100.97,-20.13 101.84,-21.23 102.71,-22.34 103.88,-22.90 105.04,-23.46 106.28,-23.94 107.51,-24.41 108.64,-24.43 109.77,-24.44 110.84,-24.41 111.91,-24.38 113.27,-24.22 114.63,-24.06 116.29,-23.43 117.95,-22.80 118.94,-22.26 119.93,-21.72 120.78,-20.87 121.64,-20.01 122.30,-18.93 122.95,-17.85 123.13,-16.35 123.31,-14.84 123.08,-12.91 122.84,-10.98 122.29,-8.93 121.74,-6.87 121.34,-5.49 120.93,-4.12 119.74,-2.47 118.54,-0.81 117.00,0.71 115.47,2.24 113.60,3.82 111.74,5.40 110.76,6.00 109.79,6.59 108.62,7.07 107.45,7.54 105.96,7.85 104.46,8.15 102.26,7.65 100.06,7.14 99.03,6.59 98.01,6.04 96.91,5.27 95.81,4.50 94.67,3.12 93.52,1.75 92.95,0.71 92.38,-0.31 91.99,-2.54 91.61,-4.77 91.60,-6.76 91.59,-8.76 91.67,-10.20 91.75,-11.64 92.35,-13.26 92.94,-14.87 94.23,-16.14 95.52,-17.40 96.56,-18.40 97.61,-19.40 98.98,-20.51 100.35,-21.62 102.48,-21.75 104.61,-21.89 102.51,-20.97 100.40,-20.06 100.60,-20.41 100.80,-20.75 101.08,-21.04 101.36,-21.33 101.70,-21.55 102.04,-21.77 102.42,-21.89 102.80,-22.02 103.20,-22.06 103.60,-22.09 104.00,-22.03 104.40,-21.96 104.77,-21.81 105.14,-21.65 105.46,-21.41 105.78,-21.17 106.03,-20.86 106.29,-20.55 106.46,-20.18 106.64,-19.82 106.72,-19.43 106.80,-19.03 106.78,-18.63 106.77,-18.23 106.66,-17.84 106.55,-17.46 105.96,-17.07 105.37,-16.69 104.50,-15.37 103.64,-14.05 102.68,-13.01 101.72,-11.98 100.42,-10.72 99.12,-9.47 98.44,-8.64 97.76,-7.81 96.96,-6.66 96.17,-5.51 94.86,-4.19 93.54,-2.86 92.24,-1.94 90.94,-1.02 89.39,0.34 87.85,1.70 86.29,-0.73 84.74,-3.18 85.13,-3.18 85.52,-3.17 85.89,-3.08 86.27,-2.98 86.61,-2.80 86.96,-2.62 87.24,-2.36 87.53,-2.10 87.75,-1.78 87.97,-1.46 88.11,-1.10 88.24,-0.73 88.29,-0.35 88.33,0.03 88.28,0.41 88.23,0.80 88.09,1.16 87.95,1.52 87.73,1.84 87.51,2.16 87.22,2.42 86.93,2.67 86.58,2.85 86.24,3.03 85.86,3.12 85.48,3.21 85.19,0.01 84.89,-3.18 85.28,-3.18 85.67,-3.17 86.05,-3.08 86.43,-2.98 86.77,-2.80 87.12,-2.62 87.41,-2.36 87.70,-2.09 87.92,-1.77 88.14,-1.45 88.28,-1.08 88.41,-0.72 88.46,-0.33 88.50,0.05 88.45,0.44 88.41,0.83 88.26,1.19 88.12,1.55 87.90,1.87 87.68,2.19 87.38,2.45 87.09,2.71 86.74,2.89 86.39,3.07 86.01,3.16 85.63,3.25 84.87,3.26 84.10,3.26 82.17,2.96 80.24,2.66 79.02,1.90 77.80,1.15 76.99,0.28 76.17,-0.58 75.51,-1.89 74.85,-3.21 74.39,-4.85 73.92,-6.48 73.45,-8.51 72.97,-10.53 72.58,-12.15 72.19,-13.77 72.10,-14.94 72.00,-16.12 71.69,-17.60 71.38,-19.08 71.37,-20.51 71.35,-21.94 71.36,-23.27 71.36,-24.59 71.40,-25.65 71.44,-26.71 71.36,-28.56 71.28,-30.40 71.28,-32.03 71.27,-33.66 71.35,-35.58 71.42,-37.49 71.68,-39.12 71.94,-40.74 72.03,-42.12 72.11,-43.50 72.58,-44.76 73.05,-46.02 73.54,-47.30 74.04,-48.59 74.13,-48.93 74.21,-49.28 74.38,-49.59 74.54,-49.90 74.78,-50.17 75.01,-50.43 75.30,-50.64 75.60,-50.84 75.93,-50.96 76.26,-51.09 76.61,-51.13 76.96,-51.17 77.31,-51.13 77.66,-51.08 78.00,-50.96 78.33,-50.83 78.62,-50.63 78.91,-50.43 79.14,-50.16 79.38,-49.90 79.54,-49.59 79.71,-49.27 79.79,-48.93 79.87,-48.58 79.87,-48.23 79.87,-47.88 79.68,-46.64 79.49,-45.41 78.91,-44.19 78.34,-42.97 77.62,-40.75 76.91,-38.52 76.55,-37.45 76.18,-36.37 75.49,-34.68 74.79,-32.99 74.41,-31.98 74.03,-30.96 73.32,-29.39 72.61,-27.81 71.81,-26.47 71.02,-25.13 69.89,-22.49 68.76,-19.84 68.28,-18.85 67.81,-17.87 66.97,-16.51 66.12,-15.15 65.09,-13.44 64.06,-11.73 63.24,-10.36 62.42,-9.00 61.41,-7.31 60.40,-5.62 59.67,-4.45 58.94,-3.27 58.02,-2.52 57.11,-1.78 55.71,-0.74 54.31,0.28 52.08,0.07 49.85,-0.13 49.15,-1.09 48.45,-2.05 48.23,-3.39 48.01,-4.73 47.56,-6.98 47.11,-9.23 46.70,-11.55 46.29,-13.87 45.97,-15.64 45.66,-17.40 45.63,-19.04 45.61,-20.67 45.58,-23.35 45.56,-26.04 45.57,-27.42 45.58,-28.80 45.48,-30.70 45.37,-32.59 45.28,-34.35 45.20,-36.11 45.21,-38.21 45.22,-40.31 45.38,-41.93 45.54,-43.55 46.24,-44.98 46.95,-46.41 48.69,-45.62 50.43,-44.83 49.64,-43.22 48.86,-41.61 48.24,-40.60 47.62,-39.58 46.98,-38.60 46.34,-37.61 45.65,-35.56 44.96,-33.51 44.06,-31.49 43.15,-29.47 41.74,-26.91 40.34,-24.35 38.97,-21.59 37.60,-18.84 35.80,-15.92 34.00,-13.01 32.32,-10.11 30.65,-7.21 28.83,-4.70 27.00,-2.20 25.22,0.39 23.44,2.98 22.10,4.63 20.76,6.29 19.70,7.53 18.64,8.78 17.02,10.16 15.41,11.54 12.78,12.36 10.15,13.18 8.04,12.88 5.93,12.57 4.39,11.86 2.85,11.15 2.12,10.29 1.39,9.44 0.63,8.56 -0.12,7.68 -0.63,6.54 -1.13,5.40 -1.57,4.17 -2.02,2.95 -2.29,1.79 -2.56,0.64 -2.60,0.32 -2.64,0.00 -2.60,-0.30 -2.57,-0.62 -2.46,-0.92 -2.34,-1.22 -2.16,-1.48 -1.98,-1.74 -1.74,-1.96 -1.51,-2.17 -1.22,-2.32 -0.94,-2.47 -0.63,-2.54 -0.32,-2.62 -0.00,-2.62 0.31,-2.62 0.62,-2.55 0.93,-2.47 1.21,-2.33 1.49,-2.18 1.73,-1.97 1.97,-1.76 2.15,-1.49 2.34,-1.23 2.45,-0.93 2.56,-0.64 2.56,-0.64 L 2.56,-0.64 Z">
    </path>
</g>
<g 
    transform="translate(134.00756446143214 78.00414825304324) rotate(0 -1.5000915055818496 -1.5000915055816222)" 
    class="text-indigo-300 group-hover:animate-draw"
    stroke-dasharray="50.00272750854492"
    stroke-dashoffset="50.00272750854492"
    >
    <path fill="#1e1e1e" d="M -1.67,1.67 Q -1.67,1.67 -2.26,1.15 -2.85,0.63 -2.30,1.19 -1.76,1.76 -1.94,1.52 -2.13,1.28 -2.25,1.01 -2.37,0.74 -2.43,0.44 -2.48,0.15 -2.46,-0.14 -2.45,-0.44 -2.36,-0.73 -2.27,-1.02 -2.11,-1.27 -1.96,-1.53 -1.74,-1.74 -1.53,-1.96 -1.27,-2.11 -1.02,-2.27 -0.73,-2.36 -0.44,-2.45 -0.14,-2.46 0.15,-2.48 0.44,-2.43 0.74,-2.37 1.01,-2.25 1.28,-2.13 1.52,-1.94 1.76,-1.76 1.90,-1.59 2.04,-1.42 2.21,-1.06 2.39,-0.69 2.44,-0.29 2.48,0.10 2.40,0.49 2.32,0.89 2.12,1.24 1.91,1.58 1.61,1.85 1.31,2.11 0.93,2.27 0.56,2.42 0.16,2.45 -0.23,2.47 -0.62,2.37 -1.01,2.27 -1.35,2.05 -1.68,1.82 -1.93,1.51 -2.18,1.19 -2.31,0.81 -2.45,0.43 -2.45,0.03 -2.46,-0.37 -2.33,-0.75 -2.21,-1.13 -1.97,-1.46 -1.73,-1.78 -1.40,-2.01 -1.07,-2.24 -0.68,-2.35 -0.30,-2.47 0.10,-2.45 0.50,-2.43 0.88,-2.29 1.25,-2.15 1.56,-1.89 1.87,-1.63 2.09,-1.29 2.30,-0.95 2.39,-0.55 2.48,-0.16 2.44,0.23 2.40,0.63 2.24,1.00 2.07,1.37 1.80,1.66 1.53,1.96 1.17,2.15 0.82,2.35 0.42,2.42 0.03,2.49 -0.36,2.43 -0.76,2.37 -1.12,2.18 -1.48,2.00 -1.62,1.88 -1.76,1.76 -1.94,1.52 -2.13,1.28 -2.25,1.01 -2.37,0.74 -2.43,0.44 -2.48,0.15 -2.46,-0.14 -2.45,-0.44 -2.36,-0.73 -2.27,-1.02 -2.11,-1.27 -1.96,-1.53 -1.74,-1.74 -1.53,-1.96 -1.27,-2.11 -1.02,-2.27 -0.73,-2.36 -0.44,-2.45 -0.14,-2.46 0.15,-2.48 0.44,-2.43 0.74,-2.37 1.01,-2.25 1.28,-2.13 1.52,-1.94 1.76,-1.76 1.15,-2.34 0.55,-2.93 1.11,-2.30 1.67,-1.67 1.84,-1.44 2.02,-1.22 2.13,-0.96 2.25,-0.70 2.30,-0.42 2.35,-0.14 2.34,0.14 2.32,0.42 2.24,0.69 2.15,0.97 2.00,1.21 1.86,1.45 1.65,1.65 1.45,1.86 1.21,2.00 0.96,2.15 0.69,2.24 0.42,2.32 0.14,2.34 -0.14,2.35 -0.42,2.30 -0.70,2.25 -0.96,2.13 -1.22,2.02 -1.44,1.84 -1.67,1.67 -1.67,1.67 L -1.67,1.67 Z">
    </path>
</g>
<g 
    transform="translate(131.00738145026844 78.00414825304324) rotate(0 52.50320269536439 -0.5000305018602376)"    
    class="text-indigo-300 group-hover:animate-draw"
    stroke-dasharray="448.5486755371094"
    stroke-dashoffset="448.5486755371094">
    <path d="M 1.88,-1.88 Q 1.88,-1.88 2.75,-1.02 3.62,-0.17 4.61,0.37 5.60,0.92 6.66,1.35 7.72,1.78 8.90,1.89 10.07,2.00 11.81,1.51 13.54,1.03 14.45,0.43 15.37,-0.16 16.92,-0.82 18.46,-1.48 19.50,-2.20 20.54,-2.93 21.55,-3.78 22.57,-4.64 24.25,-6.36 25.93,-8.09 26.51,-9.05 27.08,-10.01 27.87,-10.99 28.67,-11.97 28.94,-12.51 29.21,-13.06 29.54,-13.20 29.88,-13.35 30.24,-13.42 30.60,-13.48 30.97,-13.45 31.34,-13.43 31.69,-13.32 32.04,-13.21 32.35,-13.01 32.66,-12.82 32.92,-12.56 33.18,-12.30 33.37,-11.98 33.56,-11.66 33.66,-11.31 33.77,-10.96 33.79,-10.59 33.81,-10.23 33.74,-9.87 33.67,-9.50 33.52,-9.17 33.36,-8.84 33.14,-8.55 32.91,-8.26 32.62,-8.04 32.32,-7.81 30.84,-10.30 29.35,-12.78 29.69,-12.93 30.02,-13.08 30.38,-13.14 30.74,-13.20 31.10,-13.18 31.47,-13.16 31.81,-13.04 32.16,-12.93 32.47,-12.74 32.78,-12.55 33.04,-12.29 33.30,-12.03 33.48,-11.72 33.67,-11.40 33.77,-11.05 33.88,-10.71 33.90,-10.34 33.92,-9.98 33.85,-9.62 33.78,-9.26 33.63,-8.93 33.48,-8.60 33.25,-8.31 33.02,-8.02 32.73,-7.80 32.45,-7.58 32.03,-6.41 31.62,-5.25 31.95,-4.18 32.29,-3.11 32.28,-1.55 32.27,0.01 32.27,1.49 32.28,2.98 33.21,4.54 34.14,6.11 35.34,6.37 36.54,6.62 37.97,6.26 39.39,5.90 40.30,5.28 41.20,4.66 42.36,3.68 43.51,2.70 44.66,1.94 45.82,1.18 46.82,-0.06 47.82,-1.32 48.85,-2.44 49.88,-3.57 51.24,-4.52 52.60,-5.47 53.28,-6.58 53.95,-7.69 54.94,-8.26 55.93,-8.83 58.07,-9.19 60.20,-9.54 61.87,-8.83 63.55,-8.11 64.22,-7.09 64.90,-6.08 65.51,-4.93 66.12,-3.78 66.45,-2.61 66.79,-1.44 67.01,-0.14 67.23,1.15 67.50,2.35 67.77,3.56 68.06,5.19 68.35,6.82 68.69,7.66 69.04,8.51 69.00,8.92 68.97,9.34 68.84,9.74 68.71,10.14 68.49,10.50 68.27,10.85 67.97,11.14 67.66,11.44 67.30,11.65 66.94,11.86 66.54,11.98 66.13,12.10 65.72,12.12 65.30,12.13 64.88,12.05 64.47,11.97 64.09,11.79 63.71,11.62 63.39,11.35 63.06,11.09 62.81,10.75 62.55,10.42 62.39,10.03 62.22,9.65 62.15,9.24 62.08,8.82 62.50,7.59 62.91,6.36 63.78,4.99 64.65,3.63 65.60,2.22 66.55,0.80 68.31,-0.91 70.07,-2.64 70.89,-3.89 71.72,-5.13 72.61,-6.05 73.50,-6.97 74.64,-7.78 75.77,-8.60 76.79,-9.55 77.81,-10.50 79.02,-11.19 80.23,-11.88 81.75,-11.74 83.26,-11.61 84.27,-11.05 85.28,-10.50 86.15,-8.67 87.03,-6.85 87.54,-5.78 88.04,-4.70 88.21,-3.34 88.37,-1.98 88.76,-0.42 89.15,1.12 90.04,2.59 90.93,4.06 92.57,3.86 94.20,3.65 95.33,3.28 96.46,2.91 97.75,2.03 99.04,1.15 100.85,-0.61 102.65,-2.38 103.09,-2.69 103.53,-3.01 104.05,-3.16 104.57,-3.32 105.11,-3.30 105.66,-3.28 106.16,-3.09 106.67,-2.90 107.09,-2.56 107.51,-2.21 107.80,-1.76 108.09,-1.30 108.22,-0.77 108.34,-0.24 108.29,0.29 108.25,0.83 108.03,1.32 107.81,1.82 107.45,2.22 107.08,2.62 106.61,2.88 106.13,3.15 105.60,3.25 105.07,3.34 104.53,3.27 104.00,3.19 103.51,2.95 103.03,2.70 102.65,2.32 102.27,1.93 102.03,1.44 101.79,0.96 101.72,0.42 101.65,-0.11 101.76,-0.64 101.87,-1.17 102.14,-1.64 102.41,-2.11 102.81,-2.47 103.22,-2.83 103.72,-3.04 104.22,-3.25 104.76,-3.29 105.30,-3.33 105.82,-3.20 106.35,-3.06 106.80,-2.77 107.26,-2.47 107.59,-2.05 107.93,-1.62 108.11,-1.11 108.30,-0.60 108.31,-0.06 108.32,0.47 108.15,0.99 107.99,1.51 107.67,1.94 107.35,2.38 107.35,2.38 107.35,2.38 105.92,3.77 104.48,5.16 103.18,6.27 101.88,7.38 100.93,7.97 99.99,8.55 98.41,9.04 96.83,9.52 95.48,9.87 94.14,10.22 92.74,10.23 91.34,10.23 90.15,10.09 88.96,9.94 87.51,9.22 86.06,8.49 84.77,6.51 83.48,4.53 82.92,2.77 82.36,1.01 81.94,-0.94 81.51,-2.90 81.23,-4.06 80.94,-5.23 79.57,-3.89 78.19,-2.55 77.16,-1.37 76.12,-0.19 75.44,0.84 74.77,1.88 73.82,2.99 72.86,4.11 72.13,4.98 71.39,5.85 70.21,7.18 69.04,8.51 69.00,8.92 68.97,9.34 68.84,9.74 68.71,10.14 68.49,10.50 68.27,10.85 67.97,11.14 67.66,11.44 67.30,11.65 66.94,11.86 66.54,11.98 66.13,12.10 65.72,12.12 65.30,12.13 64.89,12.05 64.47,11.97 64.09,11.79 63.71,11.62 63.39,11.35 63.06,11.09 62.81,10.75 62.55,10.42 62.39,10.03 62.22,9.65 62.15,9.24 62.08,8.82 62.04,9.07 62.00,9.32 61.65,7.60 61.31,5.89 60.89,4.60 60.47,3.32 60.37,2.22 60.28,1.12 59.90,-0.83 59.51,-2.80 58.48,-3.28 57.44,-3.77 58.87,-3.73 60.30,-3.68 58.97,-2.73 57.63,-1.77 56.16,-0.36 54.68,1.05 53.56,2.21 52.44,3.37 51.76,4.33 51.09,5.28 49.55,6.43 48.00,7.58 47.06,8.49 46.12,9.39 44.65,10.36 43.17,11.32 42.03,11.85 40.89,12.37 39.66,12.83 38.43,13.28 37.17,13.25 35.91,13.22 34.34,12.90 32.77,12.57 31.78,12.05 30.80,11.54 29.20,9.66 27.61,7.79 27.04,6.79 26.47,5.80 26.10,4.44 25.72,3.08 25.73,1.53 25.73,-0.02 25.75,-1.66 25.77,-3.29 25.90,-4.93 26.02,-6.57 26.64,-8.52 27.25,-10.47 28.30,-11.63 29.35,-12.78 29.68,-12.93 30.02,-13.08 30.38,-13.14 30.74,-13.20 31.10,-13.18 31.47,-13.16 31.81,-13.04 32.16,-12.93 32.47,-12.74 32.78,-12.55 33.04,-12.29 33.30,-12.03 33.48,-11.72 33.67,-11.40 33.77,-11.05 33.88,-10.71 33.90,-10.34 33.92,-9.98 33.85,-9.62 33.78,-9.26 33.63,-8.93 33.48,-8.60 33.25,-8.31 33.02,-8.03 32.73,-7.80 32.45,-7.58 30.83,-10.32 29.21,-13.06 29.54,-13.20 29.88,-13.35 30.24,-13.42 30.60,-13.48 30.97,-13.45 31.34,-13.43 31.69,-13.32 32.04,-13.21 32.35,-13.01 32.66,-12.82 32.92,-12.56 33.18,-12.30 33.37,-11.98 33.56,-11.66 33.66,-11.31 33.77,-10.96 33.79,-10.59 33.81,-10.23 33.74,-9.87 33.67,-9.50 33.52,-9.17 33.36,-8.84 33.14,-8.55 32.91,-8.26 32.62,-8.04 32.32,-7.81 32.27,-7.84 32.21,-7.87 31.51,-6.73 30.81,-5.58 29.43,-4.22 28.05,-2.86 27.12,-1.70 26.19,-0.53 25.03,0.52 23.86,1.58 22.47,2.64 21.07,3.70 18.75,4.97 16.43,6.24 14.37,6.68 12.31,7.11 10.18,7.34 8.06,7.57 5.96,6.91 3.86,6.25 1.84,4.93 -0.17,3.62 -1.02,2.75 -1.88,1.88 -2.07,1.62 -2.27,1.37 -2.40,1.08 -2.54,0.79 -2.59,0.47 -2.65,0.16 -2.63,-0.15 -2.61,-0.47 -2.52,-0.78 -2.42,-1.09 -2.26,-1.36 -2.09,-1.64 -1.86,-1.86 -1.64,-2.09 -1.36,-2.26 -1.09,-2.42 -0.78,-2.52 -0.47,-2.61 -0.15,-2.63 0.16,-2.65 0.47,-2.59 0.79,-2.54 1.08,-2.40 1.37,-2.27 1.62,-2.07 1.88,-1.88 1.88,-1.88 L 1.88,-1.88 Z">
    </path>
</g>
<g 
    transform="translate(153.00872353213526 48.00231814140716) rotate(0 12.000732044654796 -4.000244014885084)"        
    class="text-indigo-300 group-hover:animate-draw"
    stroke-dasharray="100.89921569824219"
    stroke-dashoffset="100.89921569824219"
    >
    <path d="M 1.52,-2.03 Q 1.52,-2.03 2.65,-1.17 3.78,-0.31 5.51,0.35 7.23,1.03 9.02,1.06 10.82,1.08 12.34,0.36 13.87,-0.36 14.77,-1.10 15.68,-1.84 17.09,-3.42 18.51,-5.00 19.09,-5.94 19.68,-6.89 19.93,-9.39 20.18,-11.90 20.24,-12.35 20.30,-12.80 20.50,-13.21 20.69,-13.62 21.01,-13.95 21.33,-14.27 21.74,-14.48 22.15,-14.68 22.60,-14.75 23.05,-14.81 23.50,-14.73 23.95,-14.65 24.35,-14.43 24.74,-14.21 25.05,-13.87 25.36,-13.53 25.54,-13.11 25.73,-12.70 25.77,-12.24 25.81,-11.79 25.70,-11.35 25.59,-10.90 25.35,-10.52 25.11,-10.13 24.76,-9.84 24.40,-9.55 23.98,-9.39 23.55,-9.23 23.09,-9.22 22.64,-9.20 22.20,-9.33 21.76,-9.46 21.39,-9.72 21.02,-9.99 20.75,-10.36 20.48,-10.72 20.34,-11.16 20.21,-11.59 20.22,-12.05 20.23,-12.51 20.38,-12.93 20.53,-13.36 20.82,-13.72 21.10,-14.08 21.48,-14.33 21.86,-14.58 22.30,-14.69 22.75,-14.80 23.20,-14.77 23.66,-14.74 24.08,-14.56 24.50,-14.38 24.84,-14.08 25.18,-13.78 25.41,-13.38 25.63,-12.99 25.72,-12.54 25.81,-12.09 25.81,-12.09 25.81,-12.09 25.72,-9.22 25.63,-6.34 24.99,-5.15 24.35,-3.97 23.61,-2.79 22.87,-1.62 21.05,0.39 19.24,2.41 18.06,3.41 16.88,4.40 15.37,5.28 13.85,6.15 12.25,6.48 10.64,6.81 8.88,6.60 7.11,6.40 5.34,5.65 3.57,4.90 2.19,4.33 0.81,3.76 -0.35,2.90 -1.52,2.03 -1.75,1.82 -1.97,1.61 -2.13,1.35 -2.30,1.09 -2.39,0.80 -2.49,0.51 -2.52,0.20 -2.54,-0.10 -2.49,-0.40 -2.44,-0.70 -2.32,-0.98 -2.20,-1.27 -2.02,-1.51 -1.84,-1.76 -1.60,-1.95 -1.36,-2.15 -1.08,-2.28 -0.80,-2.41 -0.50,-2.47 -0.20,-2.54 0.09,-2.52 0.40,-2.51 0.70,-2.43 0.99,-2.34 1.26,-2.19 1.52,-2.03 1.52,-2.03 L 1.52,-2.03 Z">
    </path>
</g>
<g 
    transform="translate(290.01708104194347 68.00353821583121) rotate(0 12.500762546515375 -27.50167760233353)"
    class="text-indigo-300 group-hover:animate-draw"
    stroke-dasharray="299.59332275390625"
    stroke-dashoffset="299.59332275390625"
    >
    <path d="M -2.33,0 Q -2.33,0 -2.37,-1.15 -2.42,-2.30 -2.51,-3.98 -2.61,-5.66 -2.68,-7.24 -2.74,-8.82 -2.38,-9.99 -2.02,-11.16 -1.60,-12.62 -1.17,-14.08 -0.55,-16.17 0.06,-18.27 0.23,-19.68 0.41,-21.09 1.24,-23.32 2.07,-25.55 2.71,-27.53 3.36,-29.50 4.28,-31.58 5.20,-33.67 5.81,-35.36 6.42,-37.06 7.33,-38.98 8.23,-40.90 8.84,-42.53 9.44,-44.17 10.32,-45.65 11.21,-47.12 11.76,-48.23 12.32,-49.34 13.21,-50.55 14.11,-51.77 15.05,-52.86 16.00,-53.96 17.21,-55.39 18.41,-56.82 19.41,-57.57 20.41,-58.31 21.89,-59.32 23.38,-60.32 24.84,-60.22 26.30,-60.12 27.52,-58.65 28.75,-57.18 28.88,-55.99 29.01,-54.80 29.08,-53.27 29.16,-51.74 29.18,-50.32 29.21,-48.89 28.85,-47.39 28.49,-45.89 28.34,-44.12 28.20,-42.35 27.82,-40.16 27.45,-37.96 26.96,-36.55 26.48,-35.13 25.54,-33.30 24.61,-31.47 23.96,-30.14 23.32,-28.81 22.00,-26.80 20.68,-24.80 19.53,-22.90 18.38,-20.99 17.27,-19.05 16.17,-17.10 15.10,-15.36 14.03,-13.62 12.68,-11.48 11.33,-9.35 10.16,-7.57 8.99,-5.79 8.30,-4.24 7.62,-2.69 7.08,-1.38 6.53,-0.07 6.00,0.90 5.48,1.87 4.65,3.17 3.82,4.47 2.09,4.40 0.35,4.33 -0.82,2.75 -2.00,1.17 -2.13,0.82 -2.27,0.47 -2.28,0.10 -2.30,-0.27 -2.20,-0.63 -2.09,-0.99 -1.88,-1.30 -1.67,-1.61 -1.36,-1.83 -1.06,-2.06 -0.71,-2.17 -0.35,-2.29 0.02,-2.29 0.39,-2.28 0.75,-2.16 1.10,-2.04 1.40,-1.81 1.70,-1.58 1.90,-1.26 2.11,-0.95 2.21,-0.59 2.31,-0.22 2.28,0.14 2.26,0.51 2.12,0.86 1.97,1.21 1.73,1.49 1.48,1.78 1.16,1.97 0.83,2.16 0.47,2.24 0.10,2.31 -0.26,2.27 -0.64,2.23 -0.98,2.07 -1.32,1.90 -1.59,1.64 -1.86,1.38 -2.03,1.05 -2.20,0.72 -2.26,0.34 -2.32,-0.02 -2.25,-0.39 -2.19,-0.76 -2.01,-1.09 -1.83,-1.42 -1.56,-1.67 -1.28,-1.93 -0.94,-2.08 -0.60,-2.24 -0.22,-2.28 0.14,-2.31 0.51,-2.23 0.87,-2.14 1.19,-1.95 1.51,-1.75 1.76,-1.46 2.00,-1.17 2.00,-1.17 2.00,-1.17 1.73,-0.02 1.46,1.13 2.36,-0.26 3.27,-1.66 3.95,-2.88 4.64,-4.09 5.48,-5.78 6.32,-7.47 7.40,-9.26 8.48,-11.05 9.71,-13.24 10.95,-15.43 11.90,-17.12 12.85,-18.80 13.79,-20.85 14.72,-22.91 15.67,-25.00 16.62,-27.09 17.54,-29.07 18.47,-31.06 19.04,-32.35 19.61,-33.64 20.17,-35.26 20.74,-36.88 21.08,-38.19 21.42,-39.49 21.68,-41.08 21.95,-42.67 22.00,-43.79 22.06,-44.92 22.42,-46.93 22.79,-48.94 22.81,-50.33 22.83,-51.73 23.50,-53.05 24.17,-54.37 23.02,-53.89 21.87,-53.42 20.55,-52.22 19.22,-51.01 18.30,-50.07 17.37,-49.12 16.56,-48.23 15.76,-47.34 15.01,-46.22 14.27,-45.09 13.45,-44.00 12.64,-42.91 11.95,-41.22 11.26,-39.54 10.48,-37.70 9.69,-35.85 9.04,-34.11 8.38,-32.38 7.67,-30.43 6.95,-28.49 6.47,-26.40 5.98,-24.31 5.49,-22.39 5.00,-20.48 4.78,-18.90 4.57,-17.31 4.27,-15.08 3.96,-12.85 3.35,-10.74 2.74,-8.63 2.68,-7.14 2.61,-5.66 2.51,-3.98 2.42,-2.30 2.37,-1.15 2.33,0 2.30,0.27 2.26,0.55 2.16,0.82 2.06,1.08 1.90,1.31 1.74,1.54 1.53,1.73 1.32,1.92 1.07,2.05 0.82,2.18 0.55,2.25 0.28,2.31 -0.00,2.31 -0.28,2.31 -0.55,2.25 -0.82,2.18 -1.07,2.05 -1.32,1.92 -1.53,1.73 -1.74,1.54 -1.90,1.31 -2.06,1.08 -2.16,0.82 -2.26,0.55 -2.30,0.27 -2.33,-0.00 -2.33,-0.00 L -2.33,0 Z">
    </path>
</g>
<g 
    transform="translate(287.01689803077977 95.00518531630496) rotate(0 -1.5000915055817927 8.000488029769713)"
    class="text-indigo-300 group-hover:animate-draw"
    stroke-dasharray="131.73440551757812"
    stroke-dashoffset="131.73440551757812">
    <path d="M 0.63,2.55 Q 0.63,2.55 -0.45,2.83 -1.54,3.10 -2.39,4.22 -3.24,5.33 -3.56,6.71 -3.87,8.08 -3.95,10.05 -4.03,12.01 -2.89,11.53 -1.76,11.04 -1.17,9.76 -0.58,8.48 0.02,7.53 0.62,6.58 -0.28,5.88 -1.19,5.19 -1.87,6.15 -2.55,7.10 -2.76,8.12 -2.98,9.13 -3.24,9.59 -3.50,10.04 -3.89,10.38 -4.28,10.73 -4.76,10.93 -5.24,11.13 -5.76,11.17 -6.29,11.21 -6.79,11.08 -7.30,10.95 -7.73,10.66 -8.17,10.38 -8.49,9.97 -8.82,9.56 -8.99,9.07 -9.17,8.58 -9.18,8.05 -9.19,7.53 -9.03,7.03 -8.87,6.54 -8.57,6.11 -8.26,5.69 -7.83,5.39 -7.40,5.09 -6.90,4.94 -6.40,4.79 -5.88,4.81 -5.36,4.83 -4.87,5.02 -4.38,5.20 -3.98,5.53 -3.57,5.86 -3.30,6.30 -3.02,6.75 -2.90,7.25 -2.78,7.76 -2.82,8.28 -2.87,8.80 -3.08,9.28 -3.29,9.76 -3.64,10.14 -4.00,10.53 -4.45,10.78 -4.91,11.03 -5.42,11.13 -5.94,11.22 -6.45,11.15 -6.97,11.07 -7.44,10.84 -7.90,10.60 -8.27,10.23 -8.63,9.85 -8.86,9.38 -9.09,8.91 -9.15,8.40 -9.22,7.88 -9.12,7.37 -9.01,6.86 -9.01,6.86 -9.01,6.86 -8.06,4.77 -7.10,2.68 -5.40,1.21 -3.69,-0.25 -2.43,-0.65 -1.16,-1.04 0.49,-0.80 2.16,-0.56 3.55,0.11 4.94,0.78 5.80,2.28 6.67,3.78 6.66,5.05 6.65,6.31 5.82,8.67 4.98,11.02 4.29,12.53 3.61,14.03 2.20,15.34 0.78,16.66 -0.18,17.39 -1.15,18.12 -2.83,18.34 -4.51,18.56 -5.61,18.06 -6.71,17.57 -7.56,16.66 -8.41,15.76 -9.16,14.01 -9.92,12.26 -9.88,9.85 -9.85,7.44 -9.29,5.36 -8.72,3.29 -8.00,2.26 -7.28,1.23 -6.16,0.26 -5.04,-0.70 -4.04,-1.33 -3.05,-1.95 -1.84,-2.25 -0.63,-2.55 -0.32,-2.59 -0.00,-2.63 0.30,-2.59 0.62,-2.55 0.91,-2.44 1.21,-2.33 1.47,-2.15 1.74,-1.97 1.95,-1.74 2.16,-1.50 2.31,-1.22 2.45,-0.94 2.53,-0.63 2.61,-0.32 2.61,-0.00 2.61,0.30 2.54,0.61 2.46,0.92 2.31,1.20 2.17,1.48 1.96,1.72 1.75,1.96 1.49,2.14 1.23,2.32 0.93,2.44 0.63,2.55 0.63,2.55 L 0.63,2.55 Z">
    </path>
</g>
</svg>