 <svg
    version="1.1"
    xmlns="http://www.w3.org/2000/svg"
    viewBox="10 8 310 40"
    class="group w-full max-w-lg fill-indigo-300"
    stroke="transparent"
    fill="currentColor"
>
<!-- 126.6956787109375, 307.33807373046875, 195.73739624023438, 32.387725830078125, 474.7981262207031, 204.28656005859375, 353.8131103515625 debugger eval code:7:13 -->

        <g
            transform="translate(34.372972429596416 15.668146343235861) rotate(0 -11.052856946150996 10.769459103375539)"
            class="text-indigo-300 group-hover:animate-draw"
            stroke-dasharray="126.6956787109375"
            stroke-dashoffset="126.6956787109375"
        >
            <path
                d="M 0,-0.65 Q 0,-0.65 0.60,-0.96 1.21,-1.27 1.53,-1.56 1.85,-1.85 2.04,-1.83 2.22,-1.81 2.39,-1.74 2.56,-1.68 2.72,-1.57 2.87,-1.47 2.99,-1.33 3.11,-1.19 3.20,-1.03 3.28,-0.86 3.33,-0.68 3.37,-0.51 3.37,-0.32 3.37,-0.14 3.33,0.03 3.28,0.21 3.20,0.37 3.11,0.54 2.99,0.68 2.87,0.81 2.72,0.92 2.56,1.02 2.39,1.09 2.22,1.15 2.04,1.18 1.85,1.20 1.33,0.90 0.80,0.61 0.10,0.56 -0.60,0.51 -1.37,0.63 -2.15,0.75 -2.83,0.84 -3.51,0.94 -4.29,0.97 -5.07,1.00 -6.01,1.37 -6.95,1.75 -7.51,1.99 -8.08,2.23 -8.87,2.52 -9.65,2.81 -10.11,3.15 -10.58,3.50 -10.90,4.07 -11.22,4.64 -11.09,5.61 -10.96,6.59 -10.70,7.38 -10.44,8.18 -10.07,8.61 -9.70,9.04 -9.39,9.54 -9.07,10.04 -8.38,10.72 -7.68,11.40 -7.33,11.99 -6.98,12.58 -6.51,13.41 -6.03,14.25 -5.91,15.06 -5.78,15.88 -6.00,17.08 -6.23,18.29 -6.73,18.95 -7.24,19.60 -7.87,20.10 -8.50,20.60 -9.13,21.16 -9.75,21.72 -10.34,22.11 -10.93,22.49 -11.45,22.69 -11.97,22.89 -12.62,23.11 -13.27,23.32 -14.03,23.58 -14.79,23.83 -15.57,23.97 -16.34,24.11 -17.39,24.19 -18.45,24.27 -19.34,24.28 -20.23,24.29 -20.93,24.29 -21.62,24.29 -22.27,24.28 -22.91,24.27 -23.07,22.66 -23.23,21.06 -23.31,21.05 -23.39,21.04 -23.47,21.01 -23.54,20.98 -23.60,20.94 -23.67,20.89 -23.72,20.83 -23.77,20.77 -23.81,20.70 -23.85,20.63 -23.87,20.56 -23.89,20.48 -23.89,20.40 -23.89,20.32 -23.87,20.24 -23.85,20.17 -23.81,20.10 -23.77,20.03 -23.72,19.97 -23.67,19.91 -23.60,19.86 -23.54,19.82 -23.47,19.79 -23.39,19.76 -23.31,19.75 -23.23,19.74 -23.41,19.80 -23.59,19.85 -23.50,19.81 -23.40,19.76 -23.29,19.75 -23.19,19.75 -23.08,19.77 -22.98,19.79 -22.89,19.85 -22.80,19.91 -22.73,19.99 -22.67,20.07 -22.63,20.17 -22.59,20.27 -22.59,20.38 -22.58,20.48 -22.61,20.58 -22.64,20.69 -22.70,20.77 -22.77,20.86 -22.85,20.92 -22.94,20.99 -23.04,21.02 -23.14,21.05 -23.25,21.05 -23.35,21.05 -23.45,21.01 -23.55,20.97 -23.64,20.91 -23.72,20.84 -23.78,20.75 -23.84,20.67 -23.86,20.56 -23.89,20.46 -23.88,20.35 -23.87,20.25 -23.83,20.15 -23.79,20.05 -23.72,19.97 -23.65,19.89 -23.56,19.84 -23.47,19.79 -23.36,19.77 -23.26,19.74 -23.15,19.76 -23.05,19.77 -22.95,19.82 -22.86,19.86 -22.78,19.94 -22.70,20.01 -22.66,20.11 -22.61,20.20 -22.59,20.31 -22.58,20.41 -22.60,20.52 -22.62,20.62 -22.67,20.71 -22.72,20.81 -22.98,20.93 -23.23,21.06 -23.31,21.05 -23.39,21.04 -23.47,21.01 -23.54,20.98 -23.60,20.94 -23.67,20.89 -23.72,20.83 -23.77,20.77 -23.81,20.70 -23.85,20.63 -23.87,20.56 -23.89,20.48 -23.89,20.40 -23.89,20.32 -23.87,20.24 -23.85,20.17 -23.81,20.10 -23.77,20.03 -23.72,19.97 -23.67,19.91 -23.60,19.86 -23.54,19.82 -23.47,19.79 -23.39,19.76 -23.31,19.75 -23.23,19.74 -22.97,20.41 -22.70,21.07 -22.17,21.05 -21.63,21.04 -20.94,21.04 -20.26,21.03 -19.41,21.02 -18.57,21.01 -17.72,20.96 -16.87,20.90 -16.35,20.83 -15.82,20.75 -15.06,20.50 -14.30,20.24 -13.47,19.98 -12.64,19.72 -11.95,19.21 -11.27,18.69 -10.85,18.34 -10.44,17.99 -9.71,17.43 -8.98,16.87 -9.04,16.00 -9.09,15.13 -9.44,14.68 -9.78,14.22 -10.21,13.48 -10.64,12.74 -11.27,12.07 -11.90,11.41 -12.49,10.79 -13.08,10.17 -13.38,9.29 -13.68,8.42 -13.93,7.63 -14.19,6.83 -14.37,6.13 -14.56,5.43 -14.48,4.75 -14.40,4.06 -14.21,3.54 -14.02,3.01 -13.68,2.45 -13.34,1.88 -12.89,1.37 -12.44,0.85 -11.62,0.31 -10.79,-0.22 -10.07,-0.48 -9.35,-0.75 -8.68,-1.03 -8.01,-1.31 -7.34,-1.54 -6.66,-1.77 -5.96,-2.00 -5.25,-2.22 -4.14,-2.28 -3.04,-2.35 -2.26,-2.53 -1.49,-2.72 -0.92,-2.70 -0.36,-2.69 0.22,-2.63 0.81,-2.56 1.33,-2.21 1.85,-1.85 2.04,-1.83 2.22,-1.81 2.39,-1.74 2.56,-1.68 2.72,-1.57 2.87,-1.47 2.99,-1.33 3.11,-1.19 3.20,-1.03 3.28,-0.86 3.33,-0.68 3.37,-0.51 3.37,-0.32 3.37,-0.14 3.33,0.03 3.28,0.21 3.20,0.37 3.11,0.54 2.99,0.68 2.87,0.81 2.72,0.92 2.56,1.02 2.39,1.09 2.22,1.15 2.04,1.18 1.85,1.20 1.62,1.24 1.39,1.27 0.69,0.96 0,0.65 -0.07,0.64 -0.15,0.63 -0.23,0.60 -0.30,0.58 -0.37,0.53 -0.43,0.49 -0.48,0.43 -0.54,0.37 -0.57,0.30 -0.61,0.23 -0.63,0.15 -0.65,0.07 -0.65,-0.00 -0.65,-0.07 -0.63,-0.15 -0.61,-0.23 -0.57,-0.30 -0.54,-0.37 -0.48,-0.43 -0.43,-0.49 -0.37,-0.53 -0.30,-0.58 -0.23,-0.60 -0.15,-0.63 -0.07,-0.64 0.00,-0.65 0.00,-0.65 L 0,-0.65 Z"
            ></path>
        </g>
        <g
            transform="translate(22.469884057573722 33.806176744045445) rotate(0 26.923666707211453 -4.251090808654311)"
            class="text-indigo-300 group-hover:animate-draw"
            stroke-dasharray="307.33807373046875"
            stroke-dashoffset="307.33807373046875"
        >
            <path d="M -0.20,-0.62 Q -0.20,-0.62 0.17,-1.12 0.55,-1.62 1.20,-1.73 1.86,-1.85 2.98,-1.91 4.10,-1.97 5.23,-1.99 6.36,-2.00 7.46,-2.01 8.57,-2.01 9.36,-2.01 10.16,-2.02 11.68,-2.02 13.20,-2.02 14.48,-2.25 15.76,-2.48 16.99,-2.53 18.22,-2.58 19.20,-2.59 20.19,-2.60 20.25,-2.61 20.31,-2.61 20.49,-2.59 20.66,-2.57 20.83,-2.51 21.00,-2.44 21.15,-2.34 21.29,-2.24 21.41,-2.11 21.53,-1.98 21.62,-1.82 21.70,-1.66 21.74,-1.49 21.79,-1.31 21.79,-1.13 21.79,-0.95 21.75,-0.78 21.70,-0.61 21.62,-0.45 21.54,-0.29 21.42,-0.15 21.30,-0.02 21.16,0.07 21.01,0.17 20.84,0.24 20.68,0.30 20.50,0.32 20.32,0.35 19.67,-0.03 19.01,-0.42 18.43,-0.31 17.85,-0.19 16.94,-0.20 16.04,-0.21 15.50,-0.21 14.96,-0.21 14.24,-0.21 13.53,-0.22 13.00,-0.12 12.47,-0.02 11.49,0.45 10.50,0.93 9.99,1.17 9.48,1.41 9.03,2.33 8.57,3.26 8.46,3.90 8.35,4.53 8.33,5.16 8.31,5.80 8.48,6.64 8.64,7.47 9.14,7.80 9.64,8.12 10.68,8.33 11.72,8.54 12.28,8.59 12.85,8.64 13.57,8.50 14.30,8.37 14.90,8.17 15.50,7.97 16.38,7.58 17.26,7.19 17.97,6.85 18.69,6.52 19.55,5.94 20.42,5.36 21.76,4.31 23.10,3.26 24.54,2.28 25.99,1.31 26.94,0.21 27.89,-0.88 28.69,-1.74 29.49,-2.59 30.28,-3.57 31.07,-4.54 31.51,-5.35 31.95,-6.16 32.49,-7.18 33.02,-8.21 33.55,-9.55 34.08,-10.90 34.46,-12.11 34.84,-13.32 34.99,-14.09 35.14,-14.86 35.03,-15.94 34.91,-17.02 34.27,-16.17 33.64,-15.31 33.15,-14.48 32.66,-13.65 32.30,-12.85 31.94,-12.04 31.45,-10.87 30.96,-9.70 30.58,-8.86 30.21,-8.01 30.10,-7.32 29.99,-6.64 29.57,-5.37 29.16,-4.11 29.02,-3.08 28.89,-2.05 28.82,-1.13 28.76,-0.20 28.73,0.66 28.71,1.53 28.85,2.26 29.00,2.98 29.31,3.62 29.63,4.27 30.39,4.46 31.14,4.65 31.62,4.35 32.10,4.05 32.61,3.80 33.12,3.55 33.54,3.20 33.95,2.85 34.47,2.37 35.00,1.89 35.52,1.58 36.05,1.28 36.52,0.65 36.99,0.03 37.49,-0.27 37.99,-0.57 39.10,-0.84 40.21,-1.10 40.71,-0.84 41.21,-0.59 41.43,-0.08 41.65,0.41 42.15,1.02 42.65,1.63 43.10,2.13 43.55,2.63 44.26,3.24 44.97,3.84 45.60,3.91 46.24,3.99 46.94,4.05 47.64,4.11 48.65,4.01 49.66,3.90 50.44,3.65 51.21,3.39 52.64,2.55 54.07,1.70 54.16,1.66 54.26,1.62 54.37,1.62 54.47,1.61 54.58,1.64 54.68,1.66 54.77,1.72 54.86,1.78 54.92,1.87 54.99,1.95 55.02,2.05 55.06,2.15 55.06,2.26 55.06,2.36 55.03,2.46 54.99,2.56 54.93,2.65 54.87,2.73 54.78,2.80 54.69,2.86 54.59,2.88 54.49,2.91 54.38,2.91 54.27,2.90 54.17,2.87 54.08,2.83 53.99,2.76 53.91,2.69 53.86,2.60 53.80,2.51 53.78,2.41 53.75,2.30 53.76,2.20 53.77,2.09 53.82,2.00 53.86,1.90 53.93,1.82 54.01,1.74 54.10,1.69 54.19,1.64 54.30,1.62 54.40,1.61 54.51,1.62 54.61,1.64 54.71,1.69 54.80,1.74 54.88,1.81 54.95,1.89 54.99,1.98 55.04,2.08 55.05,2.19 55.07,2.29 55.04,2.40 55.02,2.50 54.97,2.59 54.91,2.68 54.83,2.75 54.75,2.82 54.75,2.82 54.75,2.82 53.32,3.73 51.89,4.65 51.09,5.24 50.30,5.83 49.66,6.26 49.01,6.69 48.30,6.91 47.59,7.14 46.76,7.15 45.94,7.16 45.08,7.06 44.23,6.96 43.69,6.72 43.15,6.49 42.53,6.04 41.91,5.58 41.52,5.15 41.13,4.71 40.58,4.06 40.04,3.40 39.47,2.38 38.91,1.36 39.53,1.45 40.16,1.54 39.41,2.12 38.67,2.69 37.84,3.42 37.02,4.15 36.43,4.69 35.83,5.23 35.14,5.75 34.45,6.27 33.90,6.53 33.35,6.80 32.81,7.04 32.28,7.28 31.59,7.45 30.90,7.62 30.19,7.51 29.48,7.40 28.95,7.15 28.42,6.90 27.72,6.28 27.02,5.65 26.56,4.58 26.10,3.50 25.94,2.47 25.79,1.45 25.82,0.51 25.86,-0.41 25.93,-1.44 26.01,-2.47 26.21,-3.74 26.41,-5.02 26.78,-6.10 27.15,-7.18 27.36,-8.18 27.57,-9.17 27.94,-9.99 28.31,-10.81 28.81,-12.02 29.32,-13.23 29.75,-14.18 30.19,-15.14 30.82,-16.15 31.44,-17.17 32.12,-17.93 32.80,-18.69 33.60,-19.15 34.40,-19.61 35.23,-19.53 36.05,-19.45 36.61,-19.01 37.17,-18.56 37.46,-17.99 37.75,-17.41 37.80,-16.79 37.86,-16.17 37.95,-15.25 38.03,-14.33 37.84,-13.38 37.65,-12.43 37.23,-11.13 36.82,-9.83 36.23,-8.33 35.64,-6.84 35.09,-5.78 34.54,-4.72 33.96,-3.69 33.37,-2.67 32.51,-1.62 31.66,-0.57 30.88,0.25 30.11,1.08 28.89,2.42 27.67,3.76 26.30,4.68 24.93,5.60 23.50,6.72 22.07,7.85 21.01,8.53 19.95,9.22 19.21,9.57 18.46,9.92 17.43,10.37 16.40,10.82 15.58,11.06 14.76,11.31 13.68,11.45 12.60,11.60 11.98,11.54 11.36,11.49 10.07,11.26 8.78,11.03 7.86,10.32 6.94,9.61 6.32,8.48 5.70,7.36 5.53,6.54 5.36,5.72 5.39,4.95 5.42,4.18 5.51,3.53 5.61,2.88 5.80,2.34 6.00,1.81 6.36,1.18 6.72,0.56 7.36,-0.26 8.01,-1.09 8.60,-1.40 9.19,-1.71 9.73,-1.97 10.26,-2.23 10.76,-2.48 11.26,-2.72 12.39,-2.95 13.53,-3.17 14.25,-3.17 14.97,-3.18 15.51,-3.17 16.05,-3.17 16.98,-3.17 17.91,-3.16 18.58,-3.14 19.25,-3.13 19.78,-2.87 20.31,-2.61 20.49,-2.59 20.66,-2.57 20.83,-2.51 21.00,-2.44 21.15,-2.34 21.29,-2.24 21.41,-2.11 21.53,-1.98 21.62,-1.82 21.70,-1.66 21.74,-1.49 21.79,-1.31 21.79,-1.13 21.79,-0.95 21.75,-0.78 21.70,-0.61 21.62,-0.45 21.54,-0.29 21.42,-0.15 21.30,-0.02 21.16,0.07 21.01,0.17 20.84,0.24 20.68,0.30 20.50,0.32 20.32,0.35 20.26,0.34 20.20,0.34 19.24,0.34 18.27,0.35 17.15,0.38 16.04,0.42 15.41,0.47 14.79,0.51 14.01,0.70 13.23,0.89 11.69,0.88 10.16,0.88 9.36,0.88 8.57,0.88 7.47,0.88 6.37,0.88 5.26,0.88 4.16,0.88 3.54,0.88 2.93,0.88 2.16,0.92 1.40,0.97 0.80,0.79 0.20,0.62 0.13,0.63 0.05,0.65 -0.02,0.65 -0.10,0.64 -0.18,0.62 -0.25,0.60 -0.32,0.56 -0.39,0.52 -0.45,0.46 -0.50,0.41 -0.55,0.34 -0.59,0.28 -0.61,0.20 -0.64,0.13 -0.64,0.05 -0.65,-0.02 -0.64,-0.10 -0.63,-0.18 -0.59,-0.25 -0.56,-0.32 -0.52,-0.39 -0.47,-0.45 -0.41,-0.50 -0.35,-0.55 -0.27,-0.58 -0.20,-0.62 -0.20,-0.62 L -0.20,-0.62 Z"></path>
        </g>
        <g
            transform="translate(75.7503838889005 34.93980601269263) rotate(0 25.223203855468114 -0.566805159937303)"
            class="text-indigo-300 group-hover:animate-draw"
            stroke-dasharray="195.73739624023438"
            stroke-dashoffset="195.73739624023438"
        >
            <path d="M -0.36,-0.54 Q -0.36,-0.54 -0.04,-1.12 0.27,-1.70 0.83,-2.05 1.40,-2.39 2.07,-2.72 2.74,-3.06 3.25,-3.34 3.77,-3.63 4.66,-3.89 5.56,-4.14 6.16,-4.07 6.76,-4.00 7.35,-3.63 7.94,-3.27 8.30,-2.64 8.66,-2.02 8.73,-1.42 8.80,-0.82 8.83,-0.26 8.85,0.30 9.09,1.15 9.32,2.00 9.61,1.40 9.89,0.79 10.42,0.31 10.95,-0.16 11.76,-0.71 12.56,-1.26 13.19,-1.86 13.83,-2.45 14.35,-2.72 14.86,-2.98 15.73,-3.09 16.60,-3.20 17.30,-2.91 18.00,-2.63 18.36,-2.16 18.72,-1.69 19.27,-1.36 19.81,-1.02 20.24,-0.43 20.67,0.14 21.40,0.58 22.12,1.01 22.78,1.10 23.44,1.19 24.14,1.08 24.85,0.97 25.52,0.88 26.19,0.80 26.95,0.34 27.72,-0.10 28.34,-0.47 28.96,-0.85 29.74,-1.51 30.51,-2.18 31.33,-2.97 32.16,-3.76 32.44,-4.67 32.71,-5.59 32.54,-6.11 32.37,-6.62 31.78,-6.37 31.20,-6.12 30.48,-5.47 29.77,-4.82 29.44,-4.36 29.10,-3.90 28.87,-3.05 28.64,-2.21 28.31,-1.39 27.98,-0.56 28.01,0.45 28.03,1.48 28.22,2.36 28.42,3.24 28.97,3.94 29.52,4.65 30.10,4.75 30.68,4.86 31.65,4.64 32.61,4.43 33.28,3.91 33.94,3.39 34.89,2.68 35.84,1.96 36.28,1.57 36.73,1.18 37.31,0.50 37.90,-0.18 38.26,-0.61 38.62,-1.05 39.63,-1.33 40.65,-1.62 41.17,-1.41 41.70,-1.20 41.96,-0.68 42.23,-0.16 42.57,0.32 42.91,0.80 43.56,1.31 44.22,1.81 44.75,1.81 45.29,1.81 46.11,1.86 46.94,1.92 47.50,1.84 48.07,1.77 48.99,0.69 49.91,-0.38 49.99,-0.46 50.06,-0.53 50.16,-0.58 50.25,-0.62 50.36,-0.64 50.46,-0.65 50.57,-0.63 50.67,-0.61 50.76,-0.56 50.86,-0.50 50.93,-0.43 51.00,-0.35 51.04,-0.25 51.08,-0.15 51.09,-0.04 51.10,0.05 51.07,0.15 51.04,0.26 50.99,0.35 50.93,0.44 50.84,0.50 50.76,0.57 50.66,0.60 50.56,0.64 50.46,0.64 50.35,0.65 50.25,0.61 50.15,0.58 50.06,0.52 49.97,0.46 49.91,0.37 49.85,0.28 49.82,0.18 49.79,0.08 49.79,-0.02 49.80,-0.12 49.83,-0.22 49.87,-0.32 49.94,-0.40 50.01,-0.49 50.10,-0.54 50.18,-0.60 50.29,-0.62 50.39,-0.65 50.50,-0.64 50.60,-0.63 50.70,-0.59 50.80,-0.55 50.88,-0.48 50.96,-0.40 51.01,-0.31 51.06,-0.22 51.08,-0.11 51.10,-0.01 51.08,0.09 51.07,0.19 51.02,0.29 50.97,0.38 50.97,0.38 50.97,0.38 49.87,1.90 48.77,3.43 48.13,3.81 47.48,4.20 46.24,4.52 45.00,4.84 44.37,4.80 43.73,4.75 42.98,4.47 42.23,4.19 41.73,3.74 41.22,3.28 40.74,2.86 40.26,2.45 39.90,1.68 39.54,0.91 40.01,1.25 40.48,1.59 40.04,2.20 39.60,2.81 39.18,3.18 38.77,3.56 37.77,4.32 36.76,5.07 36.36,5.44 35.96,5.80 35.32,6.31 34.69,6.82 34.09,7.13 33.49,7.44 32.43,7.68 31.38,7.92 30.54,8.01 29.69,8.11 29.11,7.90 28.52,7.70 27.64,7.01 26.75,6.33 26.10,5.29 25.45,4.25 25.19,3.08 24.92,1.91 24.83,0.90 24.73,-0.11 24.90,-0.91 25.07,-1.72 25.37,-2.45 25.66,-3.18 26.12,-4.45 26.58,-5.73 27.11,-6.42 27.64,-7.11 28.37,-7.77 29.10,-8.43 29.61,-8.74 30.11,-9.05 30.81,-9.25 31.52,-9.45 32.78,-9.24 34.04,-9.04 34.53,-8.61 35.02,-8.18 35.32,-7.12 35.63,-6.07 35.66,-5.41 35.69,-4.76 35.42,-3.97 35.16,-3.18 34.79,-2.40 34.42,-1.62 33.91,-1.11 33.40,-0.60 33.01,-0.23 32.63,0.12 32.07,0.63 31.52,1.13 31.04,1.49 30.57,1.84 30.06,2.14 29.55,2.44 28.79,2.95 28.03,3.46 26.87,3.73 25.70,4.00 24.93,4.18 24.16,4.36 23.11,4.26 22.06,4.16 21.30,3.94 20.54,3.72 19.94,3.36 19.34,2.99 18.72,2.46 18.11,1.94 17.68,1.42 17.25,0.90 16.59,0.38 15.93,-0.14 15.31,0.43 14.69,1.00 13.90,1.56 13.10,2.12 12.42,2.73 11.73,3.34 11.26,3.67 10.80,3.99 10.32,4.22 9.84,4.45 9.14,4.54 8.45,4.63 7.72,4.26 6.99,3.90 6.65,3.18 6.31,2.46 6.07,1.43 5.82,0.40 5.67,-0.48 5.52,-1.37 4.87,-1.10 4.21,-0.83 3.45,-0.47 2.68,-0.11 2.18,0.14 1.68,0.40 1.02,0.47 0.36,0.54 0.29,0.58 0.22,0.61 0.14,0.63 0.06,0.65 -0.01,0.65 -0.08,0.65 -0.16,0.63 -0.24,0.61 -0.31,0.57 -0.38,0.53 -0.44,0.48 -0.49,0.42 -0.54,0.36 -0.58,0.29 -0.61,0.22 -0.64,0.14 -0.64,0.06 -0.65,-0.01 -0.64,-0.08 -0.63,-0.16 -0.60,-0.24 -0.57,-0.31 -0.53,-0.37 -0.48,-0.44 -0.42,-0.49 -0.36,-0.54 -0.36,-0.54 L -0.36,-0.54 Z"></path>
        </g>
        <g
            transform="translate(118.82822030240266 24.737161543640667) rotate(0 5.66814634323589 -1.9838512201325642)"
            class="text-indigo-300 group-hover:animate-draw"
            stroke-dasharray="32.387725830078125"
            stroke-dashoffset="32.387725830078125"
        >
            <path d="M -0.29,-0.58 Q -0.29,-0.58 0.23,-1.16 0.76,-1.74 1.49,-1.93 2.23,-2.12 3.05,-2.43 3.87,-2.75 4.80,-3.02 5.72,-3.29 6.32,-3.39 6.91,-3.50 7.45,-3.62 7.98,-3.73 9.56,-4.16 11.15,-4.59 11.25,-4.61 11.36,-4.62 11.46,-4.60 11.57,-4.58 11.66,-4.52 11.75,-4.47 11.82,-4.39 11.89,-4.31 11.93,-4.21 11.97,-4.11 11.98,-4.01 11.98,-3.90 11.96,-3.80 11.93,-3.69 11.87,-3.61 11.81,-3.52 11.73,-3.45 11.65,-3.39 11.55,-3.35 11.44,-3.32 11.34,-3.31 11.23,-3.31 11.13,-3.35 11.03,-3.38 10.95,-3.44 10.86,-3.51 10.80,-3.59 10.74,-3.68 10.71,-3.78 10.68,-3.88 10.68,-3.99 10.69,-4.10 10.73,-4.20 10.76,-4.29 10.83,-4.38 10.90,-4.46 10.99,-4.51 11.08,-4.57 11.18,-4.59 11.29,-4.62 11.39,-4.61 11.50,-4.60 11.60,-4.55 11.69,-4.51 11.77,-4.44 11.85,-4.37 11.90,-4.27 11.95,-4.18 11.97,-4.07 11.99,-3.97 11.97,-3.87 11.96,-3.76 11.91,-3.67 11.86,-3.57 11.78,-3.50 11.71,-3.42 11.61,-3.38 11.51,-3.33 11.51,-3.33 11.51,-3.33 10.01,-2.87 8.51,-2.41 7.47,-1.91 6.42,-1.41 5.59,-1.02 4.77,-0.64 3.30,-0.10 1.84,0.44 1.06,0.51 0.29,0.58 0.21,0.61 0.14,0.64 0.06,0.64 -0.01,0.65 -0.09,0.64 -0.16,0.63 -0.24,0.60 -0.31,0.57 -0.38,0.52 -0.44,0.48 -0.49,0.42 -0.54,0.36 -0.58,0.29 -0.61,0.22 -0.63,0.14 -0.65,0.06 -0.65,-0.01 -0.65,-0.09 -0.62,-0.16 -0.60,-0.24 -0.57,-0.31 -0.53,-0.38 -0.47,-0.44 -0.42,-0.50 -0.35,-0.54 -0.29,-0.58 -0.29,-0.58 L -0.29,-0.58 Z"></path>
        </g>
        <g
            transform="translate(122.22910810834424 36.07343528133978) rotate(0 35.9926819076162 -9.919237151890172)"
            class="text-indigo-300 group-hover:animate-draw"
            stroke-dasharray="474.7981262207031"
            stroke-dashoffset="474.7981262207031"
        >
            <path d="M -0.65,0 Q -0.65,0 -1.01,-0.58 -1.36,-1.16 -1.04,-1.75 -0.72,-2.35 -0.23,-2.63 0.25,-2.92 1.08,-3.25 1.90,-3.59 2.51,-3.77 3.11,-3.96 3.83,-4.07 4.55,-4.18 5.94,-4.61 7.34,-5.04 8.32,-5.17 9.30,-5.29 10.26,-5.49 11.22,-5.69 11.90,-5.92 12.57,-6.15 13.17,-6.40 13.76,-6.65 14.35,-6.88 14.93,-7.10 15.07,-7.23 15.21,-7.35 15.37,-7.43 15.53,-7.52 15.71,-7.56 15.89,-7.61 16.07,-7.61 16.25,-7.61 16.43,-7.57 16.61,-7.52 16.77,-7.44 16.94,-7.35 17.07,-7.23 17.21,-7.11 17.32,-6.96 17.42,-6.81 17.49,-6.64 17.55,-6.47 17.58,-6.28 17.60,-6.10 17.58,-5.92 17.55,-5.74 17.49,-5.56 17.43,-5.39 17.32,-5.24 17.22,-5.09 16.36,-4.68 15.51,-4.27 15.00,-4.01 14.48,-3.75 13.97,-3.23 13.45,-2.72 13.01,-2.30 12.57,-1.88 12.12,-1.16 11.67,-0.44 11.70,0.34 11.73,1.13 12.27,0.63 12.81,0.13 13.35,-0.35 13.88,-0.84 14.70,-1.44 15.52,-2.05 15.89,-2.51 16.26,-2.97 17.11,-4.01 17.96,-5.05 18.80,-6.14 19.64,-7.23 20.14,-7.98 20.63,-8.72 21.15,-9.66 21.67,-10.60 22.04,-11.44 22.40,-12.29 22.91,-13.35 23.41,-14.41 24.11,-15.84 24.82,-17.27 25.25,-18.45 25.68,-19.63 26.07,-20.41 26.47,-21.19 26.75,-21.91 27.04,-22.63 27.18,-23.47 27.32,-24.30 27.92,-24.45 28.52,-24.61 28.43,-23.91 28.33,-23.21 28.01,-22.78 27.68,-22.35 27.51,-21.60 27.35,-20.86 27.06,-19.94 26.77,-19.02 26.51,-17.73 26.24,-16.44 26.14,-14.98 26.03,-13.52 26.14,-12.33 26.25,-11.13 26.30,-10.40 26.35,-9.66 26.52,-8.62 26.69,-7.58 27.03,-6.98 27.37,-6.38 27.58,-5.79 27.79,-5.20 28.19,-4.84 28.60,-4.49 29.16,-4.19 29.72,-3.89 30.28,-3.86 30.83,-3.83 31.58,-3.81 32.32,-3.78 33.11,-3.90 33.90,-4.01 34.61,-4.61 35.31,-5.20 35.82,-5.44 36.32,-5.69 36.84,-6.32 37.37,-6.96 37.72,-7.36 38.06,-7.77 38.15,-8.49 38.24,-9.22 38.24,-9.76 38.25,-10.30 37.61,-10.60 36.96,-10.90 36.58,-10.50 36.20,-10.11 35.68,-9.87 35.15,-9.64 34.60,-8.98 34.04,-8.33 33.77,-7.87 33.49,-7.41 33.22,-6.16 32.94,-4.92 32.86,-4.30 32.78,-3.69 32.90,-3.11 33.02,-2.53 33.19,-2.01 33.37,-1.49 34.52,-1.26 35.68,-1.04 36.69,-1.35 37.69,-1.66 38.45,-1.92 39.20,-2.18 40.22,-2.82 41.23,-3.45 42.08,-4.23 42.93,-5.00 43.92,-6.11 44.91,-7.22 45.86,-8.23 46.81,-9.23 47.54,-9.98 48.27,-10.73 48.81,-11.25 49.35,-11.77 50.43,-11.74 51.51,-11.71 52.00,-10.73 52.48,-9.76 52.32,-8.87 52.16,-7.99 51.91,-6.71 51.66,-5.43 51.41,-4.41 51.16,-3.39 51.07,-2.57 50.99,-1.75 50.95,-1.07 50.91,-0.39 51.04,0.25 51.18,0.90 51.15,1.08 51.12,1.26 51.04,1.43 50.97,1.60 50.86,1.75 50.75,1.90 50.61,2.01 50.46,2.13 50.30,2.21 50.13,2.29 49.95,2.32 49.77,2.36 49.58,2.35 49.40,2.35 49.22,2.30 49.05,2.24 48.89,2.15 48.73,2.06 48.59,1.93 48.46,1.80 48.36,1.65 48.26,1.49 48.20,1.32 48.15,1.14 48.13,0.96 48.12,0.77 48.45,-0.17 48.78,-1.13 49.09,-1.59 49.40,-2.06 49.70,-2.64 50.00,-3.22 50.26,-3.99 50.52,-4.76 51.16,-5.52 51.79,-6.28 52.29,-6.57 52.79,-6.86 53.44,-7.20 54.09,-7.54 54.69,-7.74 55.30,-7.94 56.18,-8.21 57.07,-8.49 58.01,-8.76 58.94,-9.03 59.87,-9.43 60.81,-9.83 61.79,-10.45 62.77,-11.07 63.71,-11.68 64.64,-12.28 65.31,-12.82 65.97,-13.37 66.41,-13.75 66.85,-14.14 67.83,-13.85 68.81,-13.57 68.41,-12.94 68.01,-12.31 67.97,-11.59 67.92,-10.87 67.89,-10.19 67.87,-9.51 68.30,-8.63 68.72,-7.75 69.19,-7.27 69.66,-6.80 70.33,-6.26 71.01,-5.71 71.43,-5.37 71.85,-5.03 72.53,-4.40 73.20,-3.76 73.49,-3.25 73.77,-2.73 73.91,-1.72 74.05,-0.70 73.87,0.05 73.69,0.81 73.44,1.44 73.20,2.07 72.86,2.60 72.53,3.14 71.93,3.66 71.33,4.18 70.33,4.96 69.33,5.75 68.44,6.17 67.55,6.59 66.26,6.88 64.97,7.16 63.37,7.09 61.76,7.03 60.41,6.76 59.06,6.50 56.92,5.83 54.78,5.16 54.69,5.11 54.59,5.06 54.52,4.99 54.44,4.91 54.39,4.82 54.35,4.72 54.33,4.61 54.32,4.51 54.34,4.41 54.36,4.30 54.41,4.21 54.47,4.12 54.54,4.05 54.62,3.97 54.72,3.93 54.82,3.89 54.93,3.88 55.03,3.88 55.13,3.90 55.24,3.93 55.33,3.98 55.42,4.04 55.48,4.13 55.55,4.21 55.59,4.31 55.62,4.41 55.62,4.51 55.63,4.62 55.59,4.72 55.56,4.82 55.50,4.91 55.44,5.00 55.35,5.06 55.27,5.12 55.16,5.15 55.06,5.18 54.96,5.18 54.85,5.17 54.75,5.14 54.65,5.10 54.57,5.03 54.49,4.97 54.43,4.88 54.37,4.79 54.35,4.68 54.32,4.58 54.33,4.47 54.34,4.37 54.38,4.27 54.42,4.17 54.50,4.09 54.57,4.02 54.66,3.96 54.75,3.91 54.86,3.89 54.96,3.87 55.07,3.89 55.17,3.90 55.17,3.90 55.17,3.90 57.18,4.52 59.19,5.14 60.38,5.09 61.58,5.04 62.90,4.71 64.21,4.37 65.20,4.03 66.19,3.68 66.82,3.39 67.45,3.10 68.42,2.37 69.39,1.63 69.85,1.24 70.30,0.84 70.64,0.11 70.98,-0.61 70.72,-1.36 70.47,-2.11 69.89,-2.63 69.30,-3.14 68.36,-3.91 67.41,-4.69 66.74,-5.61 66.06,-6.54 65.66,-6.98 65.25,-7.43 65.02,-8.51 64.78,-9.59 64.81,-10.36 64.84,-11.12 64.90,-11.76 64.96,-12.39 65.15,-13.12 65.34,-13.84 66.00,-14.68 66.66,-15.51 68.06,-15.20 69.46,-14.89 69.56,-14.05 69.66,-13.22 69.28,-12.53 68.91,-11.84 68.40,-11.40 67.90,-10.97 67.10,-10.34 66.30,-9.71 65.34,-9.09 64.38,-8.47 63.19,-7.74 62.00,-7.02 60.89,-6.56 59.78,-6.10 58.99,-5.88 58.19,-5.65 57.22,-5.35 56.25,-5.05 55.58,-4.87 54.90,-4.69 54.43,-4.43 53.97,-4.17 53.45,-3.58 52.93,-2.98 52.74,-2.28 52.54,-1.57 52.23,-0.95 51.91,-0.34 51.54,0.27 51.18,0.90 51.15,1.08 51.12,1.26 51.04,1.43 50.97,1.60 50.86,1.75 50.75,1.90 50.61,2.01 50.46,2.13 50.30,2.21 50.13,2.29 49.95,2.32 49.77,2.36 49.58,2.35 49.40,2.35 49.22,2.30 49.05,2.24 48.89,2.15 48.73,2.06 48.59,1.93 48.46,1.80 48.36,1.65 48.26,1.49 48.20,1.32 48.15,1.14 48.13,0.96 48.12,0.77 48.00,0.69 47.88,0.61 47.86,0.01 47.84,-0.58 47.89,-1.34 47.93,-2.09 48.05,-3.10 48.17,-4.11 48.41,-5.11 48.65,-6.11 48.91,-7.39 49.16,-8.67 49.54,-9.18 49.91,-9.70 50.59,-9.59 51.27,-9.48 50.87,-9.03 50.47,-8.59 49.75,-7.85 49.04,-7.11 48.11,-6.14 47.19,-5.17 46.07,-3.94 44.95,-2.71 43.91,-1.81 42.86,-0.90 42.13,-0.44 41.40,0.01 40.79,0.34 40.18,0.67 39.43,0.92 38.69,1.17 37.95,1.42 37.22,1.66 36.33,1.80 35.44,1.94 34.38,1.81 33.32,1.69 32.55,1.32 31.79,0.96 31.20,0.25 30.60,-0.46 30.34,-1.26 30.09,-2.06 29.96,-3.05 29.84,-4.05 29.94,-4.84 30.05,-5.63 30.27,-6.52 30.50,-7.40 30.71,-8.15 30.93,-8.90 31.30,-9.51 31.66,-10.12 32.16,-10.74 32.65,-11.36 33.57,-11.94 34.48,-12.53 35.23,-13.01 35.98,-13.49 36.82,-13.59 37.66,-13.69 38.53,-13.21 39.39,-12.74 39.97,-12.29 40.56,-11.84 40.85,-11.24 41.14,-10.64 41.18,-10.02 41.21,-9.40 41.19,-8.49 41.17,-7.57 40.47,-6.38 39.77,-5.19 39.29,-4.57 38.80,-3.95 37.99,-3.42 37.18,-2.88 36.75,-2.53 36.32,-2.17 35.55,-1.67 34.79,-1.18 33.51,-0.99 32.24,-0.81 31.42,-0.83 30.60,-0.86 29.78,-0.94 28.95,-1.01 27.88,-1.57 26.81,-2.12 26.21,-2.63 25.62,-3.14 25.16,-4.09 24.71,-5.05 24.24,-6.06 23.77,-7.06 23.57,-8.26 23.38,-9.46 23.33,-10.17 23.29,-10.88 23.17,-12.31 23.06,-13.74 23.20,-15.39 23.33,-17.05 23.63,-18.48 23.93,-19.91 24.21,-20.80 24.49,-21.68 25.12,-23.18 25.75,-24.68 26.06,-25.23 26.37,-25.77 26.89,-26.36 27.42,-26.94 28.02,-27.03 28.62,-27.12 29.41,-26.54 30.20,-25.96 30.26,-24.97 30.32,-23.98 30.24,-23.33 30.16,-22.68 30.00,-22.10 29.83,-21.51 29.49,-20.67 29.14,-19.82 28.82,-19.20 28.50,-18.59 28.01,-17.27 27.52,-15.94 26.83,-14.53 26.13,-13.12 25.65,-12.10 25.16,-11.09 24.73,-10.11 24.31,-9.14 23.73,-8.10 23.15,-7.06 22.59,-6.22 22.03,-5.38 21.16,-4.26 20.30,-3.15 19.42,-2.07 18.54,-1.00 17.93,-0.32 17.32,0.35 16.58,0.89 15.85,1.43 14.60,2.34 13.34,3.24 12.71,3.47 12.07,3.70 11.15,3.53 10.24,3.36 9.75,2.95 9.27,2.54 9.00,1.40 8.74,0.25 8.80,-0.37 8.86,-0.99 9.27,-1.76 9.67,-2.52 10.01,-3.26 10.36,-4.00 11.25,-4.85 12.15,-5.69 12.92,-6.17 13.69,-6.65 14.31,-6.88 14.93,-7.10 15.07,-7.23 15.21,-7.35 15.37,-7.43 15.53,-7.52 15.71,-7.56 15.89,-7.61 16.07,-7.61 16.25,-7.61 16.43,-7.57 16.61,-7.52 16.77,-7.44 16.94,-7.35 17.07,-7.23 17.21,-7.11 17.32,-6.96 17.42,-6.81 17.49,-6.64 17.55,-6.47 17.58,-6.28 17.60,-6.10 17.58,-5.92 17.55,-5.74 17.49,-5.56 17.43,-5.39 17.32,-5.24 17.22,-5.09 16.94,-4.98 16.66,-4.86 15.79,-4.37 14.91,-3.87 14.21,-3.59 13.51,-3.30 12.67,-3.03 11.82,-2.75 10.74,-2.54 9.66,-2.32 8.89,-2.24 8.13,-2.15 7.27,-1.92 6.41,-1.69 5.18,-1.40 3.95,-1.11 3.21,-0.90 2.47,-0.69 1.91,-0.74 1.36,-0.78 1.01,-0.39 0.65,0 0.64,0.07 0.63,0.15 0.60,0.23 0.58,0.30 0.53,0.37 0.49,0.43 0.43,0.48 0.37,0.54 0.30,0.57 0.23,0.61 0.15,0.63 0.07,0.65 -0.00,0.65 -0.07,0.65 -0.15,0.63 -0.23,0.61 -0.30,0.57 -0.37,0.54 -0.43,0.48 -0.49,0.43 -0.53,0.37 -0.58,0.30 -0.60,0.23 -0.63,0.15 -0.64,0.07 -0.65,-0.00 -0.65,-0.00 L -0.65,0 Z"></path>
        </g>
        <g
            transform="translate(252.59628451504318 19.069034149177384) rotate(0 2.5506184825246123 10.202644469051975)"
            class="text-indigo-300 group-hover:animate-draw"
            stroke-dasharray="204.28656005859375"
            stroke-dashoffset="204.28656005859375"
        >
            <path d="M -0.54,0.36 Q -0.54,0.36 -1.14,0.06 -1.73,-0.23 -2.32,-0.24 -2.91,-0.26 -3.95,0.22 -5.00,0.72 -5.64,1.05 -6.28,1.38 -6.69,1.87 -7.10,2.36 -7.68,2.96 -8.27,3.56 -8.78,4.24 -9.30,4.92 -9.90,5.60 -10.50,6.28 -10.98,7.10 -11.47,7.92 -11.97,9.32 -12.46,10.73 -12.86,11.85 -13.25,12.96 -13.21,14.02 -13.17,15.08 -13.03,15.79 -12.89,16.49 -12.39,17.04 -11.90,17.58 -10.92,17.25 -9.95,16.92 -9.41,16.70 -8.88,16.48 -8.31,16.00 -7.75,15.51 -7.30,15.11 -6.84,14.72 -5.83,14.92 -4.82,15.11 -4.95,15.86 -5.07,16.61 -5.12,17.56 -5.17,18.51 -4.79,19.43 -4.42,20.35 -3.66,20.93 -2.90,21.50 -2.02,21.76 -1.14,22.03 0.02,21.86 1.20,21.69 2.02,21.52 2.85,21.35 3.46,21.14 4.08,20.93 4.87,20.41 5.67,19.90 6.76,19.30 7.85,18.71 8.30,18.25 8.76,17.79 9.77,16.63 10.79,15.46 11.71,14.32 12.63,13.18 13.28,11.98 13.93,10.78 14.58,9.70 15.23,8.63 15.80,7.57 16.37,6.51 16.55,5.73 16.74,4.95 17.20,3.79 17.67,2.64 17.81,1.98 17.95,1.33 18.21,0.48 18.46,-0.35 18.38,-0.90 18.30,-1.46 17.64,-1.61 16.98,-1.76 15.49,-0.90 14.01,-0.05 13.91,-0.00 13.82,0.05 13.72,0.07 13.61,0.08 13.51,0.07 13.40,0.05 13.31,0.01 13.21,-0.03 13.14,-0.11 13.06,-0.18 13.02,-0.28 12.97,-0.37 12.96,-0.48 12.94,-0.59 12.96,-0.69 12.98,-0.79 13.04,-0.89 13.09,-0.98 13.17,-1.05 13.25,-1.12 13.35,-1.16 13.45,-1.20 13.55,-1.21 13.66,-1.22 13.76,-1.19 13.86,-1.16 13.95,-1.10 14.04,-1.05 14.11,-0.96 14.17,-0.88 14.21,-0.78 14.24,-0.68 14.25,-0.57 14.25,-0.47 14.22,-0.37 14.18,-0.27 14.12,-0.18 14.06,-0.09 13.97,-0.03 13.89,0.02 13.78,0.05 13.68,0.08 13.58,0.08 13.47,0.07 13.37,0.03 13.27,0.00 13.19,-0.06 13.11,-0.13 13.05,-0.22 12.99,-0.31 12.97,-0.41 12.94,-0.51 12.95,-0.62 12.96,-0.73 13.01,-0.82 13.05,-0.92 13.12,-1.00 13.19,-1.08 13.19,-1.08 13.19,-1.08 14.83,-2.20 16.46,-3.33 17.10,-3.69 17.74,-4.05 18.70,-4.18 19.66,-4.31 20.32,-3.77 20.97,-3.24 21.26,-2.48 21.55,-1.73 21.59,-0.61 21.63,0.50 21.40,1.30 21.17,2.09 20.94,2.99 20.72,3.88 20.32,4.84 19.92,5.80 19.59,6.93 19.27,8.06 18.65,9.19 18.03,10.33 17.40,11.34 16.78,12.36 15.98,13.79 15.17,15.21 14.20,16.41 13.23,17.61 12.09,18.88 10.96,20.16 10.19,20.85 9.42,21.53 8.39,22.09 7.36,22.65 6.24,23.32 5.12,23.98 4.30,24.25 3.48,24.52 2.45,24.72 1.43,24.91 0.84,24.95 0.25,24.99 -0.76,25.08 -1.77,25.17 -2.57,24.98 -3.36,24.78 -4.60,23.97 -5.84,23.15 -6.66,22.12 -7.48,21.10 -7.92,19.74 -8.36,18.39 -8.34,17.79 -8.31,17.19 -8.25,16.55 -8.18,15.90 -7.96,15.16 -7.74,14.41 -6.90,13.50 -6.05,12.59 -5.51,12.52 -4.98,12.45 -4.14,13.04 -3.31,13.63 -3.33,14.48 -3.34,15.33 -3.66,15.85 -3.98,16.37 -4.38,16.74 -4.78,17.11 -5.28,17.54 -5.79,17.98 -6.72,18.68 -7.66,19.39 -8.35,19.66 -9.03,19.94 -9.77,20.16 -10.50,20.38 -11.26,20.46 -12.02,20.55 -13.01,20.17 -14.01,19.80 -14.44,19.32 -14.88,18.84 -15.39,18.01 -15.91,17.18 -16.09,16.13 -16.27,15.07 -16.21,13.53 -16.15,11.99 -15.74,10.83 -15.32,9.67 -14.69,8.01 -14.05,6.34 -13.40,5.32 -12.75,4.29 -12.21,3.68 -11.67,3.08 -11.04,2.28 -10.41,1.47 -9.83,0.89 -9.25,0.30 -8.46,-0.45 -7.67,-1.22 -7.02,-1.55 -6.37,-1.89 -5.46,-2.34 -4.56,-2.79 -3.44,-2.96 -2.32,-3.13 -1.61,-3.00 -0.90,-2.88 -0.23,-2.30 0.43,-1.72 0.49,-1.04 0.54,-0.36 0.58,-0.29 0.61,-0.22 0.63,-0.14 0.65,-0.06 0.65,0.01 0.65,0.08 0.63,0.16 0.61,0.24 0.57,0.31 0.53,0.38 0.48,0.44 0.42,0.49 0.36,0.54 0.29,0.58 0.22,0.61 0.14,0.64 0.06,0.64 -0.01,0.65 -0.08,0.64 -0.16,0.63 -0.24,0.60 -0.31,0.57 -0.37,0.53 -0.44,0.48 -0.49,0.42 -0.54,0.36 -0.54,0.36 L -0.54,0.36 Z"></path>
        </g>
        <g
            transform="translate(263.3657057208735 37.20706454998697) rotate(0 27.207064549986967 -3.6842856487170224)"
            class="text-indigo-300 group-hover:animate-draw"
            stroke-dasharray="353.8131103515625"
            stroke-dashoffset="353.8131103515625"
        >
            <path d="M 0.46,-0.46 Q 0.46,-0.46 1.07,-0.14 1.69,0.17 2.88,0.26 4.07,0.34 4.70,0.35 5.33,0.37 6.23,0.33 7.14,0.30 8.07,0.12 9.00,-0.05 10.33,-0.45 11.67,-0.85 12.54,-1.17 13.42,-1.49 14.20,-1.92 14.99,-2.35 15.69,-2.71 16.40,-3.08 17.08,-3.61 17.76,-4.14 17.60,-4.70 17.44,-5.26 16.48,-5.08 15.52,-4.90 15.00,-4.71 14.48,-4.52 13.94,-4.28 13.40,-4.04 12.62,-3.51 11.83,-2.97 11.20,-2.45 10.56,-1.93 10.10,-1.07 9.64,-0.21 9.28,0.91 8.92,2.03 8.75,2.67 8.59,3.32 8.53,4.11 8.47,4.91 8.73,5.51 8.99,6.11 9.36,6.64 9.73,7.17 10.43,7.72 11.13,8.27 11.80,8.34 12.48,8.41 13.15,8.30 13.82,8.20 14.86,7.86 15.90,7.53 16.79,7.09 17.67,6.65 18.42,6.28 19.16,5.92 19.91,5.47 20.66,5.01 21.11,4.69 21.55,4.36 22.28,3.86 23.00,3.37 23.56,2.88 24.12,2.40 24.69,2.08 25.26,1.76 26.14,0.96 27.02,0.15 27.67,-0.69 28.32,-1.55 28.80,-1.26 29.28,-0.98 28.27,-0.86 27.25,-0.75 27.81,-0.65 28.37,-0.55 28.18,-0.51 27.99,-0.48 27.80,-0.49 27.61,-0.50 27.43,-0.56 27.25,-0.62 27.08,-0.71 26.92,-0.81 26.79,-0.95 26.65,-1.08 26.55,-1.25 26.45,-1.41 26.40,-1.59 26.34,-1.78 26.33,-1.97 26.32,-2.16 26.35,-2.35 26.39,-2.54 26.46,-2.71 26.54,-2.88 26.66,-3.03 26.78,-3.19 26.93,-3.30 27.08,-3.42 27.26,-3.50 27.43,-3.58 27.91,-4.10 28.40,-4.61 28.65,-5.18 28.90,-5.74 29.31,-6.58 29.72,-7.42 30.01,-8.32 30.31,-9.22 30.61,-10.12 30.91,-11.02 30.84,-11.96 30.77,-12.91 30.76,-13.59 30.75,-14.26 30.60,-14.89 30.45,-15.51 30.06,-15.05 29.67,-14.60 29.37,-14.10 29.06,-13.60 28.77,-13.08 28.48,-12.56 28.04,-10.48 27.60,-8.41 27.28,-6.73 26.96,-5.05 26.83,-4.05 26.70,-3.04 26.65,-1.69 26.60,-0.33 26.58,0.57 26.55,1.49 26.70,2.40 26.84,3.32 27.04,3.97 27.24,4.62 27.58,5.08 27.91,5.53 28.53,6.12 29.14,6.70 29.85,6.17 30.55,5.64 31.14,4.85 31.74,4.07 32.01,3.27 32.29,2.47 32.53,1.87 32.78,1.28 32.86,0.56 32.94,-0.14 32.96,-0.47 32.97,-0.80 33.02,-0.98 33.06,-1.17 33.14,-1.34 33.23,-1.51 33.35,-1.65 33.47,-1.80 33.63,-1.91 33.78,-2.02 33.96,-2.09 34.14,-2.16 34.32,-2.19 34.51,-2.22 34.70,-2.20 34.89,-2.18 35.07,-2.12 35.25,-2.05 35.41,-1.95 35.57,-1.84 35.70,-1.70 35.83,-1.57 35.92,-1.40 36.01,-1.23 36.06,-1.05 36.11,-0.86 36.11,-0.67 36.12,-0.48 34.39,-0.62 32.66,-0.75 32.70,-0.94 32.74,-1.12 32.83,-1.29 32.91,-1.46 33.04,-1.61 33.16,-1.75 33.32,-1.87 33.47,-1.98 33.65,-2.05 33.82,-2.12 34.01,-2.15 34.20,-2.17 34.39,-2.16 34.58,-2.14 34.76,-2.07 34.94,-2.01 35.10,-1.91 35.26,-1.80 35.39,-1.66 35.51,-1.52 35.61,-1.35 35.70,-1.19 35.75,-1.00 35.80,-0.82 35.80,-0.63 35.81,-0.44 35.19,-1.30 34.58,-2.15 35.33,-2.15 36.08,-2.15 37.03,-2.38 37.98,-2.61 38.63,-2.78 39.29,-2.96 39.85,-3.17 40.42,-3.38 41.54,-3.71 42.66,-4.04 44.04,-4.27 45.43,-4.51 46.97,-4.92 48.51,-5.33 51.34,-6.37 54.18,-7.41 54.29,-7.43 54.39,-7.45 54.50,-7.44 54.60,-7.42 54.70,-7.38 54.79,-7.33 54.87,-7.25 54.94,-7.18 54.99,-7.08 55.04,-6.99 55.05,-6.88 55.07,-6.78 55.05,-6.67 55.03,-6.57 54.97,-6.48 54.92,-6.39 54.84,-6.31 54.76,-6.24 54.66,-6.20 54.57,-6.16 54.46,-6.15 54.36,-6.14 54.25,-6.17 54.15,-6.19 54.06,-6.25 53.97,-6.31 53.90,-6.39 53.84,-6.47 53.80,-6.57 53.76,-6.67 53.76,-6.78 53.76,-6.89 53.79,-6.99 53.82,-7.09 53.88,-7.18 53.95,-7.26 54.03,-7.32 54.12,-7.39 54.22,-7.42 54.32,-7.45 54.43,-7.44 54.53,-7.44 54.63,-7.40 54.73,-7.37 54.82,-7.30 54.90,-7.23 54.96,-7.15 55.01,-7.06 55.04,-6.95 55.06,-6.85 55.05,-6.74 55.05,-6.64 55.00,-6.54 54.96,-6.44 54.89,-6.36 54.82,-6.28 54.73,-6.23 54.64,-6.18 54.64,-6.18 54.64,-6.18 51.82,-5.15 49.01,-4.12 47.51,-3.26 46.00,-2.40 44.83,-1.94 43.66,-1.48 42.60,-0.95 41.53,-0.42 40.80,-0.14 40.07,0.12 38.78,0.34 37.48,0.57 36.83,0.79 36.18,1.01 35.22,1.00 34.27,0.99 33.47,0.11 32.66,-0.75 32.70,-0.94 32.74,-1.12 32.83,-1.29 32.91,-1.46 33.04,-1.61 33.16,-1.75 33.32,-1.87 33.47,-1.98 33.65,-2.05 33.82,-2.12 34.01,-2.15 34.20,-2.17 34.39,-2.16 34.58,-2.14 34.76,-2.07 34.94,-2.01 35.10,-1.91 35.26,-1.80 35.39,-1.66 35.51,-1.52 35.61,-1.35 35.70,-1.19 35.75,-1.00 35.80,-0.82 35.80,-0.63 35.81,-0.44 34.39,-0.62 32.97,-0.80 33.02,-0.98 33.06,-1.17 33.14,-1.34 33.23,-1.51 33.35,-1.65 33.47,-1.80 33.63,-1.91 33.78,-2.02 33.96,-2.09 34.13,-2.16 34.32,-2.19 34.51,-2.22 34.70,-2.20 34.89,-2.18 35.07,-2.12 35.25,-2.05 35.41,-1.95 35.57,-1.84 35.70,-1.70 35.83,-1.57 35.92,-1.40 36.01,-1.23 36.06,-1.05 36.11,-0.86 36.11,-0.67 36.12,-0.48 36.06,0.28 36.00,1.06 35.67,2.21 35.35,3.35 35.18,3.90 35.01,4.45 34.31,5.62 33.61,6.78 33.12,7.41 32.63,8.04 32.02,8.55 31.41,9.05 30.82,9.34 30.24,9.63 29.36,9.70 28.49,9.76 27.88,9.51 27.27,9.26 26.64,8.76 26.02,8.26 25.63,7.76 25.24,7.26 24.73,6.41 24.22,5.56 23.96,4.67 23.71,3.78 23.55,2.60 23.39,1.41 23.42,0.47 23.44,-0.46 23.51,-1.96 23.58,-3.45 23.72,-4.55 23.87,-5.64 24.20,-7.37 24.53,-9.10 24.92,-10.81 25.30,-12.53 25.51,-13.29 25.72,-14.05 26.06,-14.66 26.40,-15.27 26.81,-15.92 27.22,-16.56 27.86,-17.29 28.50,-18.03 29.06,-18.33 29.62,-18.63 30.38,-18.66 31.14,-18.69 31.96,-18.18 32.78,-17.67 33.15,-16.94 33.52,-16.20 33.71,-15.27 33.90,-14.34 33.92,-13.67 33.93,-13.00 33.93,-11.54 33.93,-10.08 33.62,-9.15 33.31,-8.22 32.94,-7.12 32.57,-6.03 32.18,-5.23 31.79,-4.44 31.52,-3.89 31.25,-3.35 30.46,-2.39 29.68,-1.43 29.02,-0.99 28.37,-0.55 28.18,-0.51 28.00,-0.48 27.80,-0.49 27.61,-0.50 27.43,-0.56 27.25,-0.62 27.08,-0.71 26.92,-0.81 26.79,-0.95 26.65,-1.08 26.55,-1.25 26.45,-1.41 26.40,-1.59 26.34,-1.78 26.33,-1.97 26.32,-2.16 26.35,-2.35 26.39,-2.54 26.46,-2.71 26.54,-2.88 26.66,-3.03 26.78,-3.19 26.93,-3.30 27.08,-3.42 27.26,-3.50 27.43,-3.58 27.79,-3.53 28.15,-3.48 28.88,-3.60 29.61,-3.72 30.14,-3.50 30.66,-3.27 30.97,-2.73 31.28,-2.20 31.28,-1.40 31.29,-0.59 30.73,0.28 30.17,1.16 29.68,1.81 29.19,2.47 28.61,3.00 28.03,3.54 27.10,4.18 26.17,4.83 25.48,5.41 24.79,5.98 24.11,6.45 23.42,6.92 22.85,7.33 22.29,7.74 21.42,8.25 20.56,8.76 19.81,9.13 19.06,9.50 17.95,10.03 16.85,10.55 15.51,10.95 14.18,11.35 13.08,11.44 11.99,11.54 10.82,11.30 9.64,11.06 8.77,10.50 7.89,9.94 7.48,9.41 7.07,8.87 6.53,7.99 6.00,7.11 5.68,5.93 5.35,4.75 5.45,3.64 5.55,2.53 5.75,1.78 5.95,1.02 6.44,-0.38 6.94,-1.79 7.73,-3.05 8.53,-4.31 9.31,-4.95 10.10,-5.59 11.12,-6.25 12.14,-6.91 12.79,-7.19 13.43,-7.47 14.17,-7.72 14.90,-7.97 15.83,-8.12 16.76,-8.27 17.42,-8.20 18.07,-8.12 18.82,-7.78 19.57,-7.45 19.94,-7.04 20.31,-6.63 20.61,-6.12 20.91,-5.61 21.02,-4.87 21.13,-4.13 20.42,-2.95 19.72,-1.77 19.30,-1.44 18.88,-1.10 18.34,-0.74 17.79,-0.38 17.10,-0.02 16.40,0.32 15.41,0.83 14.43,1.33 13.44,1.67 12.46,2.01 10.94,2.40 9.43,2.78 8.26,2.91 7.10,3.04 6.14,2.98 5.18,2.91 4.49,2.85 3.80,2.79 2.92,2.64 2.04,2.49 1.15,2.13 0.26,1.77 -0.09,1.12 -0.46,0.46 -0.51,0.40 -0.56,0.33 -0.59,0.26 -0.62,0.19 -0.64,0.11 -0.65,0.03 -0.65,-0.03 -0.64,-0.11 -0.62,-0.19 -0.59,-0.26 -0.55,-0.33 -0.51,-0.40 -0.46,-0.46 -0.40,-0.51 -0.33,-0.55 -0.26,-0.59 -0.19,-0.62 -0.11,-0.64 -0.03,-0.65 0.03,-0.65 0.11,-0.64 0.19,-0.62 0.26,-0.59 0.33,-0.56 0.40,-0.51 0.46,-0.46 0.46,-0.46 L 0.46,-0.46 Z"></path>
        </g>
    </svg>