<svg 
    version="1.1" 
    xmlns="http://www.w3.org/2000/svg" 
    viewBox="0 0 275.01555594891306 128.00658840189226"
    class="group w-full max-w-md fill-indigo-300">
<!-- svg-source:excalidraw -->
<!-- 382.6253662109375, 399.56866455078125, 264.343017578125, 190.23788452148438, 730.6829833984375, 115.90341186523438 debugger eval code:7:13 -->

<g 
    transform="translate(23.000793048375954 61.00311118978334) rotate(0 4.500274516745549 17.501067565121048)"
    class="text-indigo-300 group-hover:animate-draw"
    stroke-dasharray="382.6253662109375"
    stroke-dashoffset="382.6253662109375"
    >
    <path d="M -2.31,-0.57 Q -2.31,-0.57 -2.06,-1.73 -1.81,-2.89 0.78,-4.63 3.37,-6.36 3.99,-5.17 4.61,-3.98 5.12,-1.15 5.62,1.67 5.49,4.67 5.36,7.67 4.94,10.74 4.53,13.82 4.31,17.02 4.09,20.23 3.67,23.97 3.25,27.70 2.75,30.74 2.26,33.79 2.03,36.44 1.81,39.10 1.10,41.55 0.39,44.00 -0.12,45.64 -0.64,47.28 -1.23,48.24 -1.82,49.20 -2.72,49.79 -3.61,50.38 -5.03,50.31 -6.45,50.25 -7.87,49.07 -9.29,47.89 -10.36,45.09 -11.43,42.30 -12.11,40.72 -12.80,39.14 -13.36,35.34 -13.92,31.54 -14.11,27.64 -14.30,23.74 -14.07,20.01 -13.84,16.28 -13.14,12.91 -12.44,9.53 -10.95,5.73 -9.46,1.92 -7.64,-1.17 -5.81,-4.27 -4.14,-6.47 -2.47,-8.68 -0.19,-10.30 2.08,-11.93 4.57,-12.91 7.05,-13.90 9.33,-14.32 11.62,-14.74 13.94,-14.32 16.27,-13.89 18.25,-12.45 20.24,-11.01 21.20,-10.09 22.16,-9.17 22.60,-6.73 23.04,-4.30 22.88,-2.09 22.73,0.10 22.03,2.83 21.33,5.56 19.49,8.04 17.65,10.52 16.60,11.89 15.55,13.27 11.90,14.26 8.24,15.26 5.79,15.83 3.34,16.41 3.11,16.43 2.87,16.45 2.65,16.39 2.42,16.33 2.22,16.21 2.02,16.08 1.87,15.89 1.73,15.71 1.64,15.49 1.56,15.27 1.56,15.03 1.55,14.80 1.62,14.57 1.69,14.35 1.83,14.16 1.97,13.96 2.16,13.83 2.35,13.69 2.58,13.62 2.80,13.55 3.04,13.56 3.27,13.57 3.49,13.65 3.71,13.73 3.90,13.88 4.08,14.03 4.21,14.22 4.33,14.42 4.39,14.65 4.45,14.88 4.43,15.12 4.41,15.35 4.31,15.57 4.22,15.78 4.06,15.96 3.91,16.13 3.70,16.25 3.49,16.36 3.26,16.41 3.03,16.45 2.80,16.42 2.56,16.39 2.35,16.28 2.14,16.18 1.98,16.01 1.81,15.84 1.71,15.63 1.60,15.42 1.57,15.19 1.54,14.95 1.58,14.72 1.63,14.49 1.75,14.29 1.86,14.08 2.04,13.92 2.21,13.77 2.43,13.67 2.65,13.58 2.65,13.58 2.65,13.58 5.08,12.95 7.52,12.32 10.48,11.68 13.44,11.05 14.42,9.93 15.40,8.81 16.97,6.79 18.55,4.77 19.14,2.32 19.72,-0.12 19.87,-1.99 20.03,-3.86 19.32,-6.38 18.61,-8.89 17.12,-10.10 15.63,-11.31 13.83,-11.70 12.03,-12.10 10.03,-11.74 8.03,-11.38 5.83,-10.53 3.63,-9.68 1.67,-8.33 -0.28,-6.98 -1.83,-4.91 -3.37,-2.84 -5.06,0.06 -6.75,2.98 -8.12,6.55 -9.48,10.13 -10.09,13.29 -10.69,16.45 -10.82,19.98 -10.96,23.52 -10.65,27.24 -10.35,30.96 -9.74,34.27 -9.14,37.58 -8.43,39.20 -7.72,40.82 -6.86,42.84 -6.01,44.87 -4.84,45.49 -3.68,46.12 -3.07,44.65 -2.46,43.19 -1.87,41.03 -1.27,38.87 -1.13,36.10 -0.98,33.32 -0.62,30.35 -0.25,27.38 -0.01,23.74 0.23,20.10 0.24,16.77 0.25,13.43 0.36,10.60 0.47,7.76 0.21,4.05 -0.04,0.34 -0.20,-1.15 -0.37,-2.66 1.29,-2.18 2.96,-1.70 2.64,-0.56 2.31,0.57 2.21,0.84 2.11,1.11 1.94,1.35 1.78,1.59 1.56,1.78 1.35,1.97 1.09,2.10 0.84,2.23 0.56,2.30 0.28,2.37 -0.00,2.37 -0.29,2.37 -0.57,2.30 -0.85,2.23 -1.11,2.09 -1.36,1.96 -1.57,1.77 -1.79,1.57 -1.95,1.34 -2.12,1.10 -2.22,0.83 -2.32,0.56 -2.35,0.27 -2.39,-0.00 -2.35,-0.29 -2.31,-0.58 -2.31,-0.58 L -2.31,-0.57 Z"></path>
</g>
<g 
    transform="translate(30.001220074424737 107.00591736095976) rotate(0 40.5024706507096 -14.500884553957803)" 
    class="text-indigo-300 group-hover:animate-draw"
    stroke-dasharray="399.56866455078125"
    stroke-dashoffset="399.56866455078125">
    <path d="M -1.56,-1.56 Q -1.56,-1.56 -0.73,-2.46 0.08,-3.36 1.07,-4.74 2.06,-6.13 2.96,-7.21 3.86,-8.29 6.04,-10.40 8.22,-12.52 9.09,-13.44 9.96,-14.37 11.65,-15.62 13.34,-16.87 14.93,-17.97 16.52,-19.07 18.07,-20.10 19.62,-21.14 21.04,-21.75 22.46,-22.36 24.72,-22.42 26.99,-22.48 28.05,-21.53 29.12,-20.57 29.83,-19.16 30.55,-17.75 31.00,-15.05 31.45,-12.35 31.47,-10.81 31.49,-9.28 31.75,-7.99 32.01,-6.71 30.32,-5.84 28.63,-4.97 29.48,-6.14 30.32,-7.31 31.03,-8.68 31.73,-10.06 32.67,-11.23 33.61,-12.40 34.52,-13.57 35.43,-14.75 36.32,-15.56 37.22,-16.38 39.09,-17.96 40.96,-19.53 43.32,-20.49 45.69,-21.46 47.91,-21.65 50.12,-21.83 51.53,-21.82 52.93,-21.81 54.10,-21.82 55.27,-21.83 55.83,-21.96 56.39,-22.08 56.69,-22.29 56.99,-22.49 57.33,-22.62 57.67,-22.74 58.03,-22.78 58.39,-22.82 58.75,-22.78 59.11,-22.73 59.45,-22.60 59.79,-22.47 60.08,-22.26 60.38,-22.05 60.62,-21.78 60.86,-21.50 61.02,-21.18 61.19,-20.86 61.27,-20.51 61.36,-20.15 61.35,-19.79 61.35,-19.43 61.26,-19.08 61.17,-18.72 61.00,-18.40 60.83,-18.08 60.59,-17.82 60.34,-17.55 58.63,-17.39 56.92,-17.23 57.59,-16.06 58.26,-14.89 58.23,-13.60 58.19,-12.31 58.75,-11.08 59.30,-9.85 60.82,-8.75 62.34,-7.66 64.06,-8.44 65.79,-9.21 66.21,-10.63 66.63,-12.06 67.11,-13.80 67.60,-15.55 67.17,-17.41 66.74,-19.28 66.14,-20.63 65.54,-21.98 64.94,-23.02 64.34,-24.07 62.64,-24.88 60.94,-25.69 61.13,-24.54 61.33,-23.38 62.96,-22.85 64.59,-22.33 65.87,-22.24 67.16,-22.15 69.25,-22.71 71.34,-23.28 73.10,-24.22 74.86,-25.16 77.11,-27.42 79.35,-29.67 79.66,-29.89 79.97,-30.11 80.34,-30.22 80.70,-30.33 81.08,-30.31 81.46,-30.30 81.82,-30.17 82.17,-30.03 82.47,-29.79 82.76,-29.55 82.96,-29.23 83.17,-28.91 83.26,-28.54 83.34,-28.17 83.31,-27.79 83.28,-27.41 83.12,-27.06 82.97,-26.71 82.71,-26.43 82.46,-26.15 82.12,-25.97 81.79,-25.78 81.42,-25.72 81.04,-25.65 80.67,-25.70 80.29,-25.76 79.95,-25.93 79.61,-26.10 79.35,-26.37 79.08,-26.64 78.91,-26.99 78.75,-27.33 78.70,-27.70 78.65,-28.08 78.73,-28.45 78.80,-28.83 78.99,-29.16 79.18,-29.49 79.47,-29.74 79.75,-29.99 80.10,-30.14 80.45,-30.28 80.83,-30.31 81.21,-30.34 81.58,-30.24 81.95,-30.15 82.27,-29.94 82.59,-29.73 82.82,-29.43 83.06,-29.13 83.18,-28.78 83.31,-28.42 83.32,-28.04 83.33,-27.66 83.21,-27.30 83.10,-26.93 82.87,-26.63 82.65,-26.32 82.65,-26.32 82.65,-26.32 80.00,-23.77 77.35,-21.22 75.20,-19.72 73.05,-18.21 69.99,-17.09 66.93,-15.97 65.24,-16.15 63.55,-16.33 61.81,-16.66 60.07,-16.99 58.51,-17.93 56.94,-18.87 56.31,-19.76 55.69,-20.64 55.23,-21.82 54.78,-23.00 54.81,-24.70 54.84,-26.40 55.32,-27.43 55.81,-28.46 56.85,-29.63 57.88,-30.79 59.72,-31.23 61.56,-31.67 63.38,-30.96 65.20,-30.24 66.14,-29.71 67.08,-29.18 68.71,-27.20 70.35,-25.22 71.31,-22.95 72.27,-20.67 72.69,-19.12 73.10,-17.57 73.20,-15.89 73.31,-14.21 72.65,-11.76 72.00,-9.30 71.00,-7.49 69.99,-5.67 68.60,-4.71 67.20,-3.74 65.66,-3.00 64.11,-2.27 61.96,-2.39 59.81,-2.51 58.07,-3.47 56.33,-4.42 54.91,-5.97 53.49,-7.51 53.06,-8.59 52.63,-9.67 52.24,-10.93 51.85,-12.18 51.92,-13.86 51.99,-15.53 52.55,-17.63 53.12,-19.73 54.01,-20.82 54.89,-21.92 57.14,-22.26 59.39,-22.61 57.89,-22.35 56.39,-22.08 56.69,-22.29 56.99,-22.49 57.33,-22.62 57.67,-22.74 58.03,-22.78 58.39,-22.82 58.75,-22.78 59.11,-22.73 59.45,-22.60 59.79,-22.47 60.08,-22.26 60.38,-22.05 60.62,-21.78 60.86,-21.50 61.02,-21.18 61.19,-20.86 61.27,-20.51 61.36,-20.15 61.35,-19.79 61.35,-19.43 61.26,-19.08 61.17,-18.73 61.00,-18.41 60.83,-18.09 60.59,-17.82 60.34,-17.55 59.85,-17.41 59.35,-17.28 57.33,-16.71 55.31,-16.13 54.16,-16.13 53.01,-16.12 51.67,-16.08 50.33,-16.03 49.26,-15.99 48.19,-15.95 46.83,-15.88 45.47,-15.81 43.93,-14.94 42.39,-14.07 41.14,-12.78 39.88,-11.49 38.35,-9.38 36.82,-7.27 36.28,-6.31 35.74,-5.35 35.06,-4.36 34.38,-3.37 33.37,-2.53 32.35,-1.70 30.01,-2.27 27.67,-2.84 27.38,-4.27 27.09,-5.71 26.73,-7.42 26.38,-9.12 26.32,-10.57 26.27,-12.02 26.08,-13.82 25.90,-15.63 25.53,-17.06 25.15,-18.49 23.53,-18.13 21.92,-17.77 20.46,-16.71 19.00,-15.66 17.57,-14.55 16.14,-13.44 14.77,-12.20 13.40,-10.96 12.49,-10.09 11.58,-9.21 9.65,-7.07 7.72,-4.93 6.99,-4.14 6.26,-3.34 4.81,-1.71 3.36,-0.08 2.46,0.73 1.56,1.56 1.35,1.73 1.14,1.89 0.90,2.00 0.66,2.11 0.39,2.16 0.13,2.21 -0.13,2.19 -0.40,2.18 -0.65,2.10 -0.91,2.02 -1.13,1.88 -1.36,1.74 -1.55,1.55 -1.74,1.36 -1.88,1.13 -2.02,0.91 -2.10,0.65 -2.18,0.39 -2.19,0.13 -2.21,-0.13 -2.16,-0.39 -2.11,-0.66 -2.00,-0.90 -1.89,-1.14 -1.73,-1.35 -1.56,-1.56 -1.56,-1.56 L -1.56,-1.56 Z"></path>
</g>
<g 
    transform="translate(230.01342081867006 55.00274516745685) rotate(0 0.5000305018605786 20.5012505762852)" 
    class="text-indigo-300 group-hover:animate-draw"
    stroke-dasharray="264.343017578125"
    stroke-dashoffset="264.343017578125">
    <path d="M 0.61,1.83 Q 0.61,1.83 -0.16,2.16 -0.94,2.49 -1.48,3.64 -2.02,4.79 -2.91,6.83 -3.81,8.87 -4.45,10.70 -5.10,12.53 -5.42,14.93 -5.74,17.33 -5.92,20.11 -6.10,22.88 -6.20,26.07 -6.31,29.27 -6.08,31.69 -5.86,34.11 -5.47,35.97 -5.07,37.82 -3.95,39.13 -2.83,40.45 -1.37,39.38 0.07,38.32 1.39,36.07 2.71,33.82 3.04,32.23 3.37,30.65 3.06,28.69 2.75,26.73 2.60,25.62 2.46,24.52 0.99,23.52 -0.47,22.52 -1.58,21.68 -2.69,20.83 -4.04,20.32 -5.39,19.81 -6.90,19.27 -8.41,18.73 -9.50,18.59 -10.59,18.45 -11.40,18.40 -12.20,18.35 -12.47,18.28 -12.74,18.21 -12.99,18.08 -13.23,17.95 -13.44,17.76 -13.64,17.58 -13.80,17.35 -13.96,17.12 -14.05,16.86 -14.15,16.60 -14.18,16.32 -14.21,16.05 -14.18,15.77 -14.14,15.50 -14.05,15.24 -13.95,14.98 -13.79,14.75 -13.63,14.52 -13.42,14.34 -13.21,14.16 -12.96,14.03 -12.72,13.90 -12.45,13.84 -12.18,13.77 -11.90,13.77 -11.62,13.78 -10.00,13.84 -8.39,13.90 -6.53,13.83 -4.67,13.76 -2.91,13.53 -1.16,13.29 0.75,12.96 2.67,12.62 4.65,12.23 6.63,11.83 8.52,11.17 10.42,10.51 11.87,9.89 13.32,9.27 13.62,9.21 13.91,9.15 14.21,9.18 14.51,9.22 14.78,9.34 15.05,9.47 15.26,9.68 15.48,9.89 15.62,10.15 15.76,10.42 15.80,10.71 15.85,11.01 15.80,11.31 15.75,11.60 15.60,11.86 15.46,12.13 15.24,12.33 15.02,12.54 14.75,12.66 14.48,12.78 14.18,12.81 13.88,12.84 13.59,12.78 13.30,12.71 13.04,12.55 12.79,12.40 12.59,12.17 12.40,11.94 12.29,11.66 12.18,11.38 12.17,11.08 12.16,10.78 12.24,10.49 12.32,10.20 12.49,9.96 12.66,9.71 12.90,9.53 13.14,9.35 13.43,9.26 13.71,9.17 14.01,9.17 14.31,9.17 14.59,9.27 14.88,9.37 15.11,9.55 15.35,9.73 15.52,9.98 15.68,10.23 15.76,10.52 15.84,10.81 15.82,11.11 15.80,11.41 15.69,11.69 15.57,11.96 15.38,12.19 15.18,12.42 14.93,12.57 14.67,12.72 14.67,12.72 14.67,12.72 13.18,13.25 11.69,13.77 9.60,14.66 7.51,15.55 5.54,16.09 3.56,16.64 1.58,17.16 -0.38,17.68 -2.38,18.10 -4.38,18.53 -5.94,18.66 -7.51,18.80 -9.85,18.57 -12.20,18.35 -12.47,18.28 -12.74,18.21 -12.98,18.08 -13.23,17.95 -13.44,17.76 -13.64,17.58 -13.80,17.35 -13.96,17.12 -14.05,16.86 -14.15,16.60 -14.18,16.32 -14.21,16.05 -14.18,15.77 -14.15,15.50 -14.05,15.24 -13.95,14.98 -13.79,14.75 -13.63,14.52 -13.42,14.34 -13.21,14.16 -12.96,14.03 -12.72,13.90 -12.45,13.84 -12.18,13.77 -11.90,13.77 -11.62,13.78 -10.69,14.01 -9.76,14.25 -8.39,14.60 -7.02,14.94 -5.45,15.54 -3.87,16.14 -2.03,16.96 -0.19,17.77 0.79,18.69 1.79,19.61 3.92,21.41 6.06,23.21 6.27,24.63 6.48,26.05 7.00,28.68 7.52,31.31 7.10,33.76 6.69,36.21 5.84,37.59 4.99,38.96 4.00,40.44 3.01,41.92 1.77,42.80 0.52,43.68 -1.03,44.09 -2.59,44.49 -4.01,43.90 -5.44,43.31 -6.35,42.19 -7.27,41.08 -7.69,39.77 -8.10,38.46 -8.51,36.45 -8.92,34.44 -9.24,31.83 -9.55,29.22 -9.56,25.99 -9.57,22.75 -9.54,19.86 -9.51,16.97 -9.33,14.18 -9.15,11.38 -8.62,9.09 -8.10,6.81 -6.95,4.47 -5.81,2.14 -4.16,0.40 -2.50,-1.34 -1.56,-1.58 -0.61,-1.83 -0.38,-1.88 -0.15,-1.92 0.07,-1.92 0.31,-1.91 0.53,-1.84 0.75,-1.78 0.96,-1.66 1.16,-1.54 1.33,-1.38 1.50,-1.22 1.62,-1.02 1.74,-0.82 1.82,-0.60 1.89,-0.38 1.91,-0.15 1.93,0.07 1.89,0.30 1.85,0.53 1.76,0.75 1.67,0.96 1.53,1.15 1.39,1.34 1.21,1.48 1.03,1.63 0.82,1.73 0.61,1.83 0.61,1.83 L 0.61,1.83 Z"></path>
</g>
<g 
    transform="translate(243.014213867046 66.00341620838935) rotate(0 11.000671040933526 9.000549033492462)" 
    class="text-indigo-300 group-hover:animate-draw"
    stroke-dasharray="190.23788452148438"
    stroke-dashoffset="190.23788452148438">
    <path d="M -0.50,-2.52 Q -0.50,-2.52 0.92,-2.79 2.36,-3.06 4.30,-3.92 6.24,-4.78 8.09,-5.57 9.93,-6.37 11.04,-6.96 12.15,-7.55 13.36,-8.18 14.57,-8.80 16.11,-9.83 17.65,-10.86 17.98,-10.99 18.30,-11.12 18.65,-11.16 19.00,-11.21 19.35,-11.18 19.71,-11.14 20.04,-11.02 20.37,-10.90 20.66,-10.70 20.96,-10.51 21.19,-10.25 21.43,-9.98 21.60,-9.67 21.77,-9.36 21.86,-9.02 21.95,-8.68 21.95,-8.33 21.96,-7.98 21.88,-7.63 21.80,-7.29 21.64,-6.97 21.48,-6.66 21.25,-6.39 21.02,-6.12 20.73,-5.92 20.45,-5.71 19.85,-4.63 19.26,-3.55 18.34,-2.48 17.42,-1.40 16.92,0.12 16.43,1.64 16.48,2.94 16.54,4.23 16.79,5.66 17.04,7.09 18.07,9.15 19.10,11.20 20.62,12.71 22.14,14.21 23.21,16.22 24.27,18.23 24.10,19.56 23.92,20.90 22.70,22.48 21.48,24.06 19.98,25.26 18.47,26.46 15.74,27.27 13.01,28.07 10.00,28.03 6.99,27.98 5.00,27.94 3.01,27.90 2.71,27.86 2.40,27.81 2.13,27.67 1.86,27.53 1.64,27.30 1.43,27.08 1.30,26.80 1.16,26.52 1.13,26.22 1.09,25.91 1.15,25.61 1.22,25.31 1.37,25.04 1.53,24.78 1.76,24.57 2.00,24.37 2.28,24.26 2.57,24.14 2.88,24.12 3.18,24.10 3.48,24.18 3.78,24.26 4.04,24.43 4.29,24.60 4.48,24.84 4.67,25.09 4.77,25.38 4.87,25.67 4.88,25.98 4.88,26.29 4.78,26.58 4.69,26.87 4.50,27.12 4.32,27.37 4.07,27.54 3.81,27.72 3.52,27.80 3.22,27.89 2.91,27.88 2.60,27.86 2.32,27.75 2.03,27.64 1.79,27.44 1.55,27.24 1.39,26.98 1.23,26.72 1.16,26.42 1.09,26.12 1.12,25.81 1.15,25.50 1.28,25.22 1.41,24.94 1.62,24.72 1.83,24.49 2.10,24.34 2.37,24.20 2.67,24.14 2.98,24.09 2.98,24.09 2.98,24.09 4.96,24.01 6.95,23.94 9.31,23.84 11.67,23.74 13.46,23.07 15.25,22.40 16.27,21.48 17.29,20.57 18.20,19.61 19.11,18.66 18.16,17.29 17.21,15.92 16.26,15.04 15.32,14.17 13.64,11.15 11.96,8.14 11.55,6.35 11.14,4.56 10.98,2.33 10.83,0.10 11.29,-1.60 11.76,-3.31 12.93,-5.00 14.11,-6.70 14.76,-7.69 15.42,-8.68 16.53,-9.77 17.65,-10.86 17.98,-10.99 18.30,-11.12 18.65,-11.16 19.00,-11.21 19.35,-11.18 19.71,-11.14 20.04,-11.02 20.37,-10.90 20.66,-10.70 20.96,-10.51 21.19,-10.25 21.43,-9.98 21.60,-9.68 21.77,-9.37 21.86,-9.02 21.95,-8.68 21.95,-8.33 21.96,-7.98 21.88,-7.63 21.80,-7.29 21.64,-6.97 21.48,-6.66 21.25,-6.39 21.02,-6.12 20.73,-5.92 20.45,-5.71 19.04,-4.87 17.63,-4.03 16.13,-3.40 14.62,-2.76 13.56,-2.22 12.49,-1.67 10.28,-0.76 8.07,0.14 6.91,0.56 5.76,0.99 4.57,1.45 3.38,1.91 1.94,2.22 0.50,2.52 0.19,2.55 -0.11,2.57 -0.42,2.52 -0.72,2.47 -1.01,2.35 -1.29,2.22 -1.54,2.03 -1.79,1.85 -1.98,1.61 -2.18,1.36 -2.31,1.08 -2.44,0.80 -2.50,0.50 -2.57,0.19 -2.55,-0.11 -2.54,-0.42 -2.45,-0.72 -2.36,-1.02 -2.21,-1.28 -2.05,-1.55 -1.83,-1.78 -1.62,-2.00 -1.35,-2.16 -1.09,-2.33 -0.80,-2.43 -0.50,-2.52 -0.50,-2.52 L -0.50,-2.52 Z"></path>
</g>
<g 
    transform="translate(102.92566846577643 92.37790640822186) rotate(0 56.583451590547156 -3.661240284809537)"
    class="text-indigo-300 group-hover:animate-draw"
    stroke-dasharray="730.6829833984375"
    stroke-dashoffset="730.6829833984375">
    <path d="M -1.63,-0.98 Q -1.63,-0.98 -0.87,-2.32 -0.11,-3.65 0.47,-4.60 1.05,-5.54 1.79,-6.67 2.53,-7.81 4.29,-10.08 6.05,-12.35 7.36,-13.89 8.67,-15.42 10.28,-17.55 11.88,-19.68 13.44,-21.44 14.99,-23.19 16.42,-24.93 17.86,-26.68 18.66,-27.79 19.47,-28.89 20.28,-30.11 21.09,-31.32 21.88,-32.30 22.67,-33.28 24.04,-33.55 25.41,-33.83 26.68,-32.20 27.96,-30.57 28.12,-29.09 28.29,-27.62 28.73,-25.85 29.17,-24.09 29.05,-21.61 28.93,-19.13 29.08,-16.35 29.23,-13.57 29.29,-11.53 29.34,-9.48 29.57,-6.02 29.81,-2.56 29.88,0.27 29.96,3.11 29.70,5.46 29.45,7.81 29.36,9.78 29.27,11.75 29.02,13.51 28.76,15.27 28.08,17.16 27.39,19.05 26.90,20.40 26.42,21.74 25.62,23.01 24.83,24.29 24.17,25.17 23.51,26.05 22.00,26.71 20.49,27.37 19.08,27.32 17.66,27.28 16.43,26.92 15.21,26.56 14.08,25.67 12.96,24.77 11.78,22.26 10.59,19.76 10.46,18.57 10.32,17.39 10.51,15.14 10.69,12.90 11.10,11.56 11.50,10.21 12.32,8.50 13.14,6.79 13.72,5.54 14.31,4.28 15.91,2.70 17.51,1.11 18.30,0.27 19.10,-0.57 20.65,-1.73 22.19,-2.90 24.03,-3.93 25.86,-4.96 28.13,-5.64 30.41,-6.32 31.74,-6.90 33.06,-7.48 35.11,-7.96 37.16,-8.44 39.05,-8.89 40.93,-9.33 43.38,-9.74 45.83,-10.14 47.12,-10.43 48.42,-10.72 50.15,-11.26 51.88,-11.80 54.20,-12.76 56.52,-13.71 57.69,-14.45 58.86,-15.19 60.14,-16.03 61.41,-16.88 62.37,-17.72 63.33,-18.57 64.14,-19.79 64.95,-21.01 65.53,-22.28 66.12,-23.55 66.29,-24.69 66.46,-25.82 66.27,-26.87 66.08,-27.92 65.12,-28.89 64.16,-29.85 62.94,-30.01 61.71,-30.16 60.40,-29.45 59.09,-28.74 58.26,-28.08 57.43,-27.42 56.64,-26.50 55.85,-25.59 55.25,-23.73 54.64,-21.88 54.16,-20.38 53.67,-18.89 53.69,-17.34 53.71,-15.78 54.58,-13.95 55.45,-12.12 56.72,-10.89 58.00,-9.65 60.15,-9.38 62.31,-9.11 63.45,-9.08 64.60,-9.04 66.21,-9.18 67.82,-9.32 69.46,-9.81 71.09,-10.30 72.54,-11.01 73.99,-11.72 75.75,-12.53 77.50,-13.34 78.74,-14.01 79.98,-14.68 80.87,-15.42 81.75,-16.15 82.78,-16.85 83.82,-17.56 84.79,-18.15 85.76,-18.73 86.72,-19.63 87.69,-20.53 88.98,-21.00 90.26,-21.46 91.56,-22.21 92.85,-22.96 93.98,-22.75 95.10,-22.54 96.45,-21.91 97.80,-21.28 99.20,-20.86 100.60,-20.43 101.44,-19.75 102.28,-19.07 102.78,-18.85 103.27,-18.64 103.47,-18.30 103.66,-17.96 103.77,-17.58 103.88,-17.20 103.90,-16.81 103.92,-16.41 103.84,-16.03 103.76,-15.64 103.59,-15.28 103.42,-14.93 103.17,-14.62 102.93,-14.32 102.61,-14.08 102.30,-13.84 101.93,-13.69 101.57,-13.53 101.18,-13.47 100.79,-13.41 100.40,-13.44 100.01,-13.47 99.63,-13.59 99.26,-13.72 98.93,-13.93 98.59,-14.14 98.32,-14.42 98.05,-14.70 96.12,-14.78 94.19,-14.86 92.34,-14.90 90.48,-14.94 89.38,-14.99 88.28,-15.04 86.66,-14.45 85.03,-13.86 84.28,-12.71 83.54,-11.56 83.36,-9.91 83.18,-8.25 83.79,-6.20 84.41,-4.16 85.34,-3.09 86.28,-2.02 87.96,-1.30 89.64,-0.58 91.38,-0.19 93.12,0.19 95.33,0.16 97.53,0.13 99.54,-0.09 101.54,-0.32 103.44,-0.69 105.35,-1.05 107.64,-1.92 109.93,-2.79 111.71,-3.51 113.49,-4.23 113.74,-4.29 114.00,-4.34 114.26,-4.31 114.51,-4.28 114.75,-4.17 114.98,-4.07 115.17,-3.89 115.36,-3.71 115.48,-3.48 115.60,-3.25 115.64,-2.99 115.68,-2.74 115.64,-2.48 115.60,-2.23 115.48,-2.00 115.36,-1.77 115.17,-1.59 114.98,-1.41 114.74,-1.30 114.51,-1.20 114.25,-1.17 113.99,-1.14 113.74,-1.20 113.49,-1.25 113.26,-1.39 113.04,-1.52 112.87,-1.72 112.71,-1.92 112.61,-2.16 112.52,-2.40 112.50,-2.66 112.49,-2.92 112.56,-3.17 112.63,-3.42 112.77,-3.63 112.92,-3.85 113.13,-4.00 113.33,-4.16 113.58,-4.24 113.83,-4.32 114.08,-4.32 114.34,-4.32 114.59,-4.24 114.84,-4.16 115.04,-4.00 115.25,-3.84 115.39,-3.63 115.54,-3.41 115.61,-3.16 115.68,-2.91 115.66,-2.65 115.65,-2.39 115.55,-2.15 115.45,-1.91 115.29,-1.71 115.12,-1.52 114.89,-1.38 114.67,-1.25 114.67,-1.25 114.67,-1.25 112.88,-0.56 111.10,0.13 108.56,1.18 106.02,2.22 104.03,2.64 102.05,3.07 99.87,3.45 97.70,3.84 95.05,4.03 92.41,4.23 90.21,3.89 88.01,3.56 85.39,2.58 82.77,1.60 81.06,-0.09 79.36,-1.79 78.57,-3.54 77.78,-5.30 77.65,-8.10 77.53,-10.90 77.97,-12.90 78.42,-14.89 79.23,-16.05 80.04,-17.21 82.25,-18.68 84.45,-20.16 86.30,-20.85 88.14,-21.54 89.39,-21.57 90.64,-21.61 92.60,-21.53 94.55,-21.45 96.52,-21.05 98.49,-20.64 99.73,-19.95 100.97,-19.26 102.12,-18.95 103.27,-18.64 103.47,-18.30 103.66,-17.96 103.77,-17.58 103.88,-17.20 103.90,-16.81 103.92,-16.41 103.84,-16.03 103.76,-15.64 103.59,-15.28 103.42,-14.93 103.18,-14.62 102.93,-14.32 102.61,-14.08 102.30,-13.84 101.93,-13.69 101.57,-13.53 101.18,-13.47 100.79,-13.41 100.40,-13.44 100.01,-13.47 99.63,-13.59 99.26,-13.72 98.93,-13.93 98.59,-14.14 98.32,-14.42 98.05,-14.70 98.16,-14.72 98.28,-14.74 97.12,-15.11 95.97,-15.47 94.87,-16.69 93.78,-17.90 92.40,-17.21 91.01,-16.51 89.55,-15.51 88.08,-14.50 86.23,-13.56 84.38,-12.61 83.13,-11.76 81.88,-10.91 80.60,-10.31 79.31,-9.72 77.61,-8.81 75.91,-7.90 74.22,-7.02 72.52,-6.14 70.48,-5.38 68.44,-4.62 66.39,-4.29 64.33,-3.96 63.07,-4.06 61.82,-4.15 60.00,-4.32 58.18,-4.49 56.53,-5.10 54.89,-5.71 53.61,-6.84 52.34,-7.98 51.76,-8.93 51.17,-9.88 50.43,-11.37 49.70,-12.87 49.41,-14.23 49.12,-15.59 48.99,-17.92 48.86,-20.26 49.28,-21.74 49.69,-23.21 50.19,-25.15 50.69,-27.09 51.28,-28.04 51.88,-28.98 53.03,-30.31 54.18,-31.64 55.42,-32.55 56.65,-33.46 58.16,-34.19 59.66,-34.92 61.06,-35.09 62.46,-35.26 63.66,-34.99 64.86,-34.71 66.12,-34.06 67.39,-33.42 68.58,-32.10 69.78,-30.79 70.14,-29.60 70.50,-28.41 70.59,-26.70 70.68,-25.00 70.26,-23.37 69.85,-21.74 69.06,-20.22 68.27,-18.70 67.08,-17.07 65.90,-15.44 64.67,-14.53 63.44,-13.62 62.04,-12.81 60.64,-11.99 59.26,-11.32 57.88,-10.64 55.44,-9.50 53.01,-8.35 51.00,-7.67 49.00,-6.99 47.74,-6.89 46.48,-6.78 44.17,-6.25 41.85,-5.73 39.99,-5.22 38.14,-4.72 36.36,-4.20 34.58,-3.68 33.13,-3.15 31.68,-2.61 29.90,-1.91 28.12,-1.20 26.64,-0.21 25.17,0.77 23.91,1.87 22.65,2.98 21.81,3.77 20.97,4.56 19.99,5.57 19.00,6.58 18.47,7.72 17.95,8.87 17.39,10.33 16.84,11.79 16.50,12.96 16.17,14.13 15.95,15.51 15.72,16.89 15.71,18.55 15.70,20.22 16.35,21.09 17.01,21.97 18.20,22.47 19.38,22.98 20.48,22.48 21.57,21.97 22.30,21.12 23.02,20.26 23.62,19.06 24.23,17.87 24.86,16.26 25.48,14.65 25.83,13.13 26.18,11.61 26.27,9.56 26.36,7.52 26.52,5.39 26.68,3.26 26.49,0.51 26.29,-2.24 25.89,-5.74 25.49,-9.25 25.31,-11.20 25.12,-13.16 24.70,-16.10 24.27,-19.03 24.08,-22.13 23.89,-25.22 23.99,-27.17 24.09,-29.12 23.10,-27.89 22.12,-26.65 21.19,-25.71 20.27,-24.77 18.87,-22.93 17.47,-21.10 16.09,-19.38 14.71,-17.67 13.16,-15.35 11.60,-13.04 10.44,-11.55 9.28,-10.05 7.73,-7.67 6.18,-5.29 4.73,-3.44 3.29,-1.60 2.46,-0.30 1.63,0.98 1.49,1.16 1.35,1.34 1.16,1.48 0.98,1.63 0.77,1.72 0.56,1.82 0.34,1.86 0.11,1.90 -0.11,1.89 -0.34,1.87 -0.56,1.80 -0.78,1.74 -0.97,1.62 -1.17,1.50 -1.33,1.34 -1.50,1.17 -1.61,0.98 -1.73,0.78 -1.80,0.56 -1.87,0.34 -1.88,0.11 -1.90,-0.11 -1.86,-0.33 -1.82,-0.56 -1.72,-0.77 -1.63,-0.98 -1.63,-0.98 L -1.63,-0.98 Z"></path>
</g>
<g 
    transform="translate(113.96634194685885 27.390891352847575) rotate(0 13.340813789641174 -5.03420539161425)" 
    class="text-indigo-300 group-hover:animate-draw"
    stroke-dasharray="115.90341186523438"
    stroke-dashoffset="115.90341186523438">
    <path d="M 1.66,1.67 Q 1.66,1.67 0.90,2.48 0.15,3.29 1.45,3.47 2.74,3.66 4.76,3.10 6.77,2.54 8.11,1.81 9.45,1.08 11.84,-0.89 14.24,-2.86 16.67,-5.02 19.10,-7.18 21.66,-10.35 24.23,-13.53 26.20,-15.96 28.16,-18.38 28.36,-18.56 28.55,-18.74 28.79,-18.84 29.03,-18.95 29.29,-18.97 29.55,-19.00 29.80,-18.94 30.05,-18.88 30.28,-18.74 30.50,-18.60 30.67,-18.40 30.83,-18.20 30.93,-17.96 31.02,-17.71 31.03,-17.45 31.04,-17.19 30.97,-16.94 30.89,-16.69 30.74,-16.47 30.59,-16.26 30.38,-16.10 30.17,-15.95 29.93,-15.87 29.68,-15.79 29.42,-15.79 29.15,-15.80 28.91,-15.88 28.66,-15.97 28.45,-16.13 28.25,-16.29 28.11,-16.51 27.96,-16.73 27.89,-16.98 27.83,-17.23 27.85,-17.49 27.86,-17.75 27.96,-18.00 28.06,-18.24 28.24,-18.43 28.41,-18.63 28.63,-18.76 28.86,-18.89 29.12,-18.95 29.37,-19.00 29.63,-18.97 29.89,-18.94 30.13,-18.82 30.36,-18.71 30.55,-18.53 30.74,-18.35 30.86,-18.11 30.97,-17.88 31.01,-17.62 31.05,-17.36 31.01,-17.11 30.96,-16.85 30.84,-16.62 30.71,-16.39 30.71,-16.39 30.71,-16.39 28.83,-13.90 26.95,-11.40 24.32,-7.93 21.69,-4.45 19.35,-2.09 17.01,0.25 14.41,2.70 11.82,5.16 10.12,6.17 8.42,7.19 5.78,8.27 3.14,9.34 1.33,9.24 -0.46,9.14 -1.54,8.49 -2.61,7.84 -3.60,6.12 -4.58,4.41 -4.57,3.20 -4.55,2.00 -3.94,0.93 -3.32,-0.13 -2.49,-0.90 -1.66,-1.67 -1.44,-1.84 -1.21,-2.02 -0.95,-2.13 -0.69,-2.25 -0.41,-2.30 -0.13,-2.35 0.14,-2.33 0.43,-2.32 0.70,-2.23 0.97,-2.14 1.21,-2.00 1.46,-1.85 1.66,-1.65 1.86,-1.45 2.00,-1.20 2.15,-0.96 2.23,-0.69 2.32,-0.41 2.33,-0.13 2.35,0.14 2.30,0.42 2.25,0.70 2.13,0.96 2.01,1.22 1.84,1.44 1.66,1.67 1.66,1.67 L 1.66,1.67 Z"></path>
</g></svg>