<svg 
    version="1.1" 
    xmlns="http://www.w3.org/2000/svg" 
    viewBox="0 0 286.01622698984636 105.00518531630496" 
    width="858.0486809695391" 
    height="315.0155559489149"
    class="group w-full max-w-md fill-indigo-300">
<!-- svg-source:excalidraw -->
<!-- 397.54571533203125, 543.7922973632812, 224.55459594726562, 78.40338897705078, 596.0614013671875, 201.4302215576172 -->
    <g 
        transform="translate(82.00439226792832 21.000671040933412) rotate(0 -35.50216563210358 32.50198262094045)" 
        stroke-dasharray="397.54571533203125"
        stroke-dashoffset="397.54571533203125"
        class="text-indigo-300 group-hover:animate-draw">
        <path d="M -2.01,0 Q -2.01,0 -2.08,-1.12 -2.14,-2.25 -3.03,-2.85 -3.91,-3.46 -5.08,-3.72 -6.25,-3.98 -7.82,-4.50 -9.39,-5.02 -11.24,-5.31 -13.10,-5.60 -15.75,-6.09 -18.39,-6.57 -21.15,-6.80 -23.90,-7.03 -26.72,-6.87 -29.54,-6.71 -32.40,-6.10 -35.27,-5.49 -37.60,-4.68 -39.93,-3.88 -41.38,-2.97 -42.84,-2.06 -43.58,-1.13 -44.33,-0.21 -44.95,1.03 -45.56,2.28 -44.97,3.57 -44.38,4.85 -43.03,7.54 -41.67,10.22 -40.74,12.22 -39.81,14.23 -38.42,15.77 -37.04,17.31 -36.17,18.76 -35.31,20.21 -32.89,23.26 -30.47,26.30 -29.53,27.66 -28.59,29.02 -27.10,30.58 -25.60,32.13 -24.58,33.87 -23.55,35.60 -22.87,36.44 -22.18,37.28 -21.10,38.86 -20.01,40.45 -19.16,41.73 -18.31,43.01 -17.42,44.39 -16.52,45.77 -15.99,46.77 -15.46,47.78 -14.96,49.07 -14.45,50.36 -13.98,52.13 -13.52,53.90 -13.30,55.75 -13.09,57.61 -14.36,60.20 -15.63,62.80 -16.74,64.38 -17.85,65.96 -18.59,67.00 -19.33,68.03 -22.90,69.74 -26.46,71.45 -29.07,72.35 -31.68,73.25 -35.19,73.92 -38.70,74.58 -40.75,74.86 -42.80,75.15 -44.27,75.36 -45.74,75.58 -47.54,75.65 -49.35,75.73 -52.78,75.40 -56.20,75.06 -59.45,74.31 -62.70,73.55 -65.34,72.30 -67.99,71.05 -69.56,69.56 -71.13,68.07 -72.36,65.93 -73.59,63.79 -73.67,63.51 -73.76,63.24 -73.75,62.95 -73.74,62.67 -73.64,62.40 -73.54,62.13 -73.36,61.90 -73.18,61.68 -72.94,61.52 -72.70,61.37 -72.42,61.30 -72.14,61.23 -71.86,61.25 -71.57,61.28 -71.31,61.39 -71.04,61.50 -70.83,61.69 -70.62,61.89 -70.48,62.14 -70.33,62.39 -70.28,62.67 -70.23,62.95 -70.26,63.23 -70.30,63.52 -70.43,63.78 -70.56,64.03 -70.76,64.24 -70.96,64.44 -71.22,64.57 -71.48,64.70 -71.76,64.73 -72.05,64.77 -72.33,64.72 -72.61,64.66 -72.86,64.52 -73.11,64.38 -73.30,64.17 -73.49,63.95 -73.61,63.69 -73.72,63.43 -73.74,63.14 -73.77,62.86 -73.70,62.58 -73.63,62.30 -73.48,62.06 -73.32,61.81 -73.10,61.63 -72.87,61.45 -72.60,61.36 -72.33,61.26 -72.05,61.25 -71.76,61.24 -71.49,61.32 -71.21,61.41 -70.98,61.58 -70.74,61.74 -70.58,61.98 -70.41,62.21 -70.41,62.21 -70.41,62.21 -69.65,64.07 -68.90,65.93 -67.78,67.14 -66.66,68.36 -64.34,69.42 -62.01,70.48 -58.97,71.10 -55.94,71.72 -52.69,71.92 -49.45,72.11 -47.75,72.08 -46.04,72.06 -44.65,72.02 -43.26,71.99 -41.31,71.69 -39.35,71.38 -36.13,70.68 -32.91,69.97 -30.52,68.99 -28.12,68.00 -24.61,65.85 -21.11,63.69 -20.16,62.33 -19.22,60.97 -18.36,59.35 -17.50,57.74 -17.70,56.44 -17.89,55.14 -18.38,53.56 -18.88,51.98 -19.51,50.05 -20.15,48.12 -21.07,46.73 -21.98,45.33 -22.69,44.15 -23.40,42.96 -24.62,41.44 -25.84,39.93 -26.52,38.87 -27.21,37.82 -28.05,36.47 -28.90,35.11 -29.76,34.08 -30.62,33.05 -31.25,32.10 -31.88,31.15 -32.61,29.92 -33.35,28.69 -35.45,26.31 -37.55,23.93 -38.11,22.95 -38.68,21.97 -39.16,20.84 -39.64,19.71 -41.42,17.89 -43.21,16.07 -44.32,14.22 -45.42,12.37 -47.05,9.55 -48.67,6.74 -49.05,5.61 -49.42,4.48 -49.49,2.80 -49.56,1.13 -48.18,-0.76 -46.80,-2.66 -45.62,-3.69 -44.43,-4.71 -42.68,-5.68 -40.93,-6.65 -38.44,-7.57 -35.94,-8.48 -32.87,-9.21 -29.79,-9.93 -26.75,-10.21 -23.71,-10.49 -20.78,-10.40 -17.86,-10.31 -15.27,-10.04 -12.69,-9.77 -10.34,-9.65 -8.00,-9.53 -6.46,-9.07 -4.91,-8.62 -2.82,-7.94 -0.72,-7.26 0.37,-6.02 1.47,-4.78 1.81,-3.56 2.14,-2.34 2.08,-1.17 2.01,0 1.98,0.24 1.95,0.48 1.87,0.70 1.78,0.93 1.64,1.13 1.50,1.33 1.32,1.49 1.14,1.65 0.92,1.77 0.71,1.88 0.47,1.94 0.24,2.00 -0.00,2.00 -0.24,2.00 -0.47,1.94 -0.71,1.88 -0.92,1.77 -1.14,1.65 -1.32,1.49 -1.50,1.33 -1.64,1.13 -1.78,0.93 -1.87,0.70 -1.95,0.48 -1.98,0.24 -2.01,-0.00 -2.01,-0.00 L -2.01,0 Z"></path>
    </g>
    <g 
        transform="translate(66.00341620838867 76.00402624560138) rotate(0 34.002074126521734 -20.001220074424964)"
        stroke-dasharray="543.7922973632812"
        stroke-dashoffset="543.7922973632812"
        class="text-indigo-300 group-hover:animate-draw">
        <path d="M 1.48,-1.48 Q 1.48,-1.48 2.11,-0.96 2.74,-0.44 4.48,0.29 6.23,1.02 7.53,1.16 8.83,1.30 10.91,0.96 12.98,0.62 14.70,-0.01 16.42,-0.65 17.23,-1.45 18.05,-2.25 19.74,-3.46 21.43,-4.67 24.12,-7.09 26.80,-9.52 29.92,-13.34 33.04,-17.17 35.51,-21.32 37.97,-25.47 40.18,-30.08 42.39,-34.70 43.60,-38.32 44.82,-41.94 45.03,-44.51 45.25,-47.08 45.25,-48.52 45.24,-49.97 44.89,-51.45 44.53,-52.93 44.03,-50.10 43.53,-47.27 42.74,-45.54 41.95,-43.80 41.62,-40.77 41.28,-37.74 40.80,-35.66 40.32,-33.58 40.10,-30.57 39.88,-27.55 39.76,-22.80 39.65,-18.05 39.29,-14.52 38.94,-10.99 39.07,-7.02 39.20,-3.05 39.25,0.40 39.30,3.87 39.32,6.20 39.33,8.54 39.39,10.41 39.45,12.28 39.07,13.52 38.68,14.75 38.75,14.64 38.83,14.52 38.73,14.71 38.64,14.90 38.50,15.06 38.36,15.22 38.19,15.34 38.02,15.46 37.82,15.54 37.63,15.62 37.42,15.65 37.21,15.68 37.00,15.66 36.79,15.64 36.59,15.57 36.39,15.49 36.21,15.38 36.04,15.26 35.89,15.10 35.75,14.95 35.65,14.76 35.55,14.58 35.49,14.37 35.44,14.17 35.43,13.96 35.43,13.75 35.48,13.54 35.52,13.33 34.80,11.97 34.07,10.60 33.88,8.24 33.68,5.89 34.41,3.36 35.14,0.83 36.06,-2.39 36.97,-5.63 38.29,-8.83 39.60,-12.02 41.06,-14.83 42.52,-17.64 43.04,-19.10 43.57,-20.57 45.18,-22.07 46.79,-23.57 47.84,-24.28 48.90,-24.98 50.61,-25.08 52.32,-25.18 53.57,-24.78 54.82,-24.38 55.96,-22.95 57.09,-21.51 57.23,-19.60 57.37,-17.69 56.32,-15.77 55.28,-13.85 54.16,-11.86 53.05,-9.86 51.97,-8.93 50.89,-7.99 49.29,-6.91 47.69,-5.83 46.94,-4.92 46.18,-4.01 45.47,-2.68 44.76,-1.35 46.69,0.01 48.63,1.38 50.77,2.20 52.92,3.02 56.02,3.07 59.13,3.12 61.15,2.62 63.17,2.11 65.14,1.09 67.11,0.08 67.44,-0.00 67.77,-0.09 68.11,-0.07 68.45,-0.05 68.77,0.06 69.09,0.19 69.35,0.41 69.61,0.63 69.78,0.92 69.96,1.21 70.03,1.55 70.10,1.88 70.07,2.22 70.03,2.56 69.89,2.87 69.74,3.18 69.51,3.43 69.28,3.67 68.97,3.83 68.67,3.99 68.34,4.05 68.00,4.10 67.66,4.05 67.33,3.99 67.02,3.83 66.72,3.67 66.49,3.43 66.25,3.18 66.11,2.87 65.97,2.56 65.93,2.22 65.89,1.88 65.97,1.55 66.04,1.21 66.22,0.92 66.39,0.63 66.65,0.41 66.91,0.19 67.23,0.06 67.55,-0.05 67.89,-0.07 68.23,-0.09 68.56,-0.00 68.88,0.08 69.17,0.27 69.45,0.46 69.66,0.74 69.86,1.01 69.97,1.33 70.08,1.65 70.08,2.00 70.08,2.34 69.97,2.66 69.86,2.98 69.66,3.25 69.45,3.53 69.17,3.72 68.88,3.91 68.88,3.91 68.88,3.91 66.59,4.87 64.29,5.83 61.89,6.64 59.50,7.45 56.70,7.78 53.90,8.11 52.56,7.81 51.22,7.50 49.84,6.95 48.45,6.40 47.29,5.79 46.14,5.17 43.91,3.75 41.68,2.33 40.75,0.19 39.83,-1.93 40.61,-3.60 41.39,-5.27 41.99,-6.20 42.58,-7.13 43.70,-8.36 44.82,-9.58 46.27,-10.81 47.73,-12.04 49.01,-13.16 50.30,-14.27 50.80,-15.29 51.29,-16.30 51.99,-17.20 52.68,-18.11 52.35,-19.56 52.02,-21.02 50.54,-20.95 49.07,-20.88 47.89,-20.00 46.70,-19.11 46.05,-17.65 45.41,-16.20 44.11,-13.48 42.82,-10.77 41.72,-7.74 40.61,-4.72 39.90,-1.43 39.18,1.84 38.78,3.84 38.39,5.84 38.37,7.05 38.36,8.26 38.31,9.74 38.27,11.22 38.55,12.87 38.83,14.52 38.73,14.71 38.64,14.90 38.50,15.06 38.36,15.22 38.19,15.34 38.02,15.46 37.82,15.54 37.63,15.62 37.42,15.65 37.21,15.68 37.00,15.66 36.79,15.64 36.59,15.57 36.39,15.49 36.21,15.38 36.04,15.26 35.89,15.10 35.75,14.95 35.65,14.76 35.55,14.58 35.49,14.37 35.44,14.17 35.43,13.96 35.43,13.75 35.48,13.54 35.52,13.33 36.02,12.78 36.51,12.24 36.54,10.40 36.58,8.57 36.54,6.24 36.50,3.92 36.42,0.48 36.34,-2.95 36.17,-7.10 36.00,-11.26 36.29,-14.68 36.57,-18.10 36.61,-22.92 36.64,-27.74 36.78,-31.02 36.92,-34.29 37.28,-36.19 37.65,-38.09 37.94,-41.71 38.24,-45.32 38.93,-47.06 39.62,-48.80 40.91,-52.03 42.21,-55.26 44.16,-55.72 46.11,-56.18 47.19,-55.21 48.26,-54.23 48.36,-51.99 48.46,-49.75 48.25,-48.29 48.05,-46.84 47.80,-43.95 47.55,-41.06 46.31,-37.25 45.08,-33.43 42.86,-28.67 40.65,-23.90 38.13,-19.52 35.61,-15.13 32.41,-11.04 29.22,-6.96 26.51,-4.29 23.79,-1.63 22.26,-0.34 20.72,0.94 19.36,1.96 18.00,2.98 15.94,3.92 13.89,4.87 11.15,5.54 8.40,6.21 6.48,6.02 4.56,5.83 3.40,5.38 2.24,4.93 0.89,3.84 -0.44,2.74 -0.96,2.11 -1.48,1.48 -1.64,1.28 -1.80,1.08 -1.90,0.85 -2.01,0.62 -2.05,0.37 -2.10,0.12 -2.08,-0.12 -2.07,-0.37 -1.99,-0.62 -1.92,-0.86 -1.78,-1.08 -1.65,-1.29 -1.47,-1.47 -1.29,-1.65 -1.08,-1.79 -0.86,-1.92 -0.62,-1.99 -0.37,-2.07 -0.12,-2.08 0.12,-2.10 0.37,-2.05 0.62,-2.01 0.85,-1.90 1.09,-1.80 1.29,-1.64 1.48,-1.48 1.48,-1.48 L 1.48,-1.48 Z"></path>
    </g>
    <g 
        transform="translate(134.00756446143214 77.00408724932277) rotate(0 21.50131158000636 -14.500884553958258)"
        stroke-dasharray="224.55459594726562"
        stroke-dashoffset="224.55459594726562"
        class="text-indigo-300 group-hover:animate-draw">
        <path d="M 0,-2.32 Q 0,-2.32 1.15,-2.37 2.30,-2.41 3.67,-3.21 5.05,-4.02 6.24,-5.07 7.44,-6.13 9.28,-7.42 11.12,-8.72 11.97,-9.74 12.82,-10.77 13.51,-11.60 14.20,-12.44 15.00,-13.54 15.79,-14.64 17.70,-17.07 19.62,-19.49 21.01,-21.59 22.40,-23.69 23.61,-25.27 24.83,-26.86 25.30,-28.42 25.77,-29.99 25.91,-30.21 26.06,-30.42 26.26,-30.60 26.45,-30.77 26.69,-30.89 26.92,-31.01 27.17,-31.08 27.42,-31.14 27.69,-31.14 27.95,-31.14 28.20,-31.08 28.46,-31.02 28.69,-30.90 28.92,-30.77 29.12,-30.60 29.31,-30.43 29.46,-30.21 29.61,-30.00 29.70,-29.75 29.80,-29.51 29.83,-29.25 29.86,-28.99 29.83,-28.73 29.80,-28.47 29.71,-28.23 29.61,-27.98 28.67,-26.53 27.72,-25.08 27.33,-24.00 26.94,-22.91 26.34,-20.28 25.73,-17.65 25.18,-15.62 24.62,-13.58 24.64,-11.24 24.67,-8.90 25.03,-7.72 25.39,-6.54 26.09,-5.50 26.79,-4.47 27.86,-4.45 28.93,-4.43 31.47,-5.32 34.01,-6.22 36.26,-7.64 38.51,-9.06 39.33,-9.93 40.15,-10.80 40.61,-13.17 41.07,-15.54 41.20,-15.83 41.34,-16.12 41.56,-16.36 41.79,-16.59 42.07,-16.74 42.36,-16.90 42.68,-16.95 43.00,-17.00 43.32,-16.95 43.64,-16.89 43.93,-16.74 44.21,-16.59 44.44,-16.35 44.66,-16.12 44.79,-15.82 44.93,-15.53 44.96,-15.21 45.00,-14.88 44.93,-14.57 44.86,-14.25 44.69,-13.97 44.52,-13.70 44.27,-13.49 44.03,-13.28 43.73,-13.16 43.42,-13.04 43.10,-13.02 42.78,-13.00 42.46,-13.09 42.15,-13.18 41.88,-13.36 41.62,-13.54 41.42,-13.80 41.23,-14.06 41.12,-14.37 41.02,-14.68 41.02,-15.00 41.02,-15.32 41.13,-15.63 41.23,-15.94 41.43,-16.20 41.62,-16.45 41.89,-16.63 42.16,-16.82 42.47,-16.90 42.79,-16.99 43.11,-16.97 43.43,-16.95 43.73,-16.83 44.03,-16.71 44.28,-16.50 44.53,-16.29 44.69,-16.01 44.86,-15.73 44.93,-15.42 45.00,-15.10 44.96,-14.78 44.93,-14.46 44.93,-14.46 44.93,-14.46 43.87,-11.41 42.81,-8.36 41.58,-7.31 40.36,-6.26 37.78,-4.52 35.20,-2.79 31.80,-1.66 28.40,-0.53 26.32,-1.17 24.24,-1.81 22.94,-3.68 21.63,-5.55 21.33,-7.15 21.03,-8.74 20.86,-11.58 20.69,-14.41 21.03,-16.43 21.36,-18.44 21.91,-21.56 22.46,-24.67 23.02,-26.00 23.59,-27.33 24.68,-28.66 25.77,-29.99 25.91,-30.21 26.06,-30.42 26.26,-30.60 26.45,-30.77 26.69,-30.89 26.92,-31.01 27.17,-31.08 27.42,-31.14 27.69,-31.14 27.95,-31.14 28.20,-31.08 28.46,-31.02 28.69,-30.90 28.92,-30.77 29.12,-30.60 29.31,-30.43 29.46,-30.21 29.61,-30.00 29.70,-29.75 29.80,-29.51 29.83,-29.25 29.86,-28.99 29.83,-28.73 29.80,-28.47 29.71,-28.23 29.61,-27.98 29.34,-27.34 29.07,-26.69 28.42,-25.67 27.77,-24.65 26.70,-23.19 25.62,-21.74 24.32,-19.39 23.02,-17.05 21.32,-14.44 19.61,-11.83 17.92,-9.82 16.22,-7.82 15.08,-6.54 13.94,-5.27 12.45,-3.85 10.95,-2.44 9.71,-1.17 8.47,0.08 7.34,0.93 6.21,1.78 4.25,2.10 2.30,2.41 1.15,2.37 0,2.32 -0.27,2.29 -0.55,2.26 -0.82,2.16 -1.08,2.06 -1.31,1.90 -1.54,1.74 -1.73,1.53 -1.91,1.32 -2.04,1.07 -2.17,0.82 -2.24,0.55 -2.31,0.28 -2.31,-0.00 -2.31,-0.28 -2.24,-0.55 -2.17,-0.82 -2.04,-1.07 -1.91,-1.32 -1.73,-1.53 -1.54,-1.74 -1.31,-1.90 -1.08,-2.06 -0.81,-2.16 -0.55,-2.26 -0.27,-2.29 0.00,-2.32 0.00,-2.32 L 0,-2.32 Z"></path>
    </g>
    <g 
        transform="translate(154.00878453585665 33.00140308558821) rotate(0 9.500579535351676 -5.500335520466706)" 
        stroke-dasharray="78.40338897705078"
        stroke-dashoffset="78.40338897705078"
        class="text-indigo-300 group-hover:animate-draw">
        <path d="M 0.73,-2.20 Q 0.73,-2.20 1.54,-1.97 2.35,-1.75 3.52,-2.12 4.69,-2.50 6.93,-3.55 9.17,-4.61 10.80,-5.51 12.43,-6.41 13.46,-6.91 14.49,-7.41 15.09,-8.39 15.68,-9.37 16.21,-11.10 16.74,-12.83 16.93,-13.17 17.12,-13.51 17.41,-13.77 17.70,-14.03 18.06,-14.18 18.42,-14.33 18.81,-14.36 19.20,-14.40 19.57,-14.30 19.95,-14.21 20.28,-14.00 20.61,-13.78 20.85,-13.48 21.09,-13.18 21.23,-12.81 21.36,-12.44 21.37,-12.06 21.38,-11.67 21.27,-11.29 21.15,-10.92 20.92,-10.61 20.70,-10.29 20.38,-10.06 20.06,-9.84 19.69,-9.72 19.32,-9.61 18.93,-9.62 18.54,-9.63 18.17,-9.77 17.81,-9.90 17.50,-10.15 17.20,-10.39 16.99,-10.72 16.78,-11.05 16.69,-11.43 16.60,-11.81 16.63,-12.19 16.66,-12.58 16.82,-12.94 16.97,-13.30 17.23,-13.59 17.49,-13.88 17.83,-14.07 18.17,-14.26 18.55,-14.33 18.94,-14.40 19.32,-14.35 19.71,-14.30 20.06,-14.12 20.40,-13.95 20.68,-13.67 20.95,-13.40 21.13,-13.05 21.30,-12.70 21.35,-12.31 21.40,-11.93 21.33,-11.54 21.25,-11.16 21.25,-11.16 21.25,-11.16 20.32,-8.92 19.38,-6.68 17.06,-4.65 14.74,-2.62 13.11,-1.53 11.48,-0.43 9.56,0.78 7.65,2.00 5.84,2.37 4.04,2.74 2.57,2.82 1.09,2.90 0.18,2.55 -0.73,2.20 -0.98,2.08 -1.24,1.96 -1.45,1.78 -1.67,1.61 -1.84,1.38 -2.01,1.16 -2.12,0.90 -2.23,0.64 -2.27,0.37 -2.32,0.09 -2.30,-0.18 -2.27,-0.46 -2.19,-0.73 -2.10,-0.99 -1.95,-1.23 -1.80,-1.47 -1.60,-1.66 -1.39,-1.85 -1.15,-1.99 -0.91,-2.14 -0.64,-2.21 -0.37,-2.29 -0.09,-2.30 0.18,-2.31 0.46,-2.26 0.73,-2.20 0.73,-2.20 L 0.73,-2.20 Z"></path>
    </g>
    <g 
        transform="translate(177.01018762144486 66.00341620838935) rotate(0 36.5022266358248 -24.001464089310048)" 
        stroke-dasharray="596.0614013671875"
        stroke-dashoffset="596.0614013671875"
        class="text-indigo-300 group-hover:animate-draw">
        <path d="M -1.44,-1.44 Q -1.44,-1.44 -0.62,-2.35 0.19,-3.26 1.52,-4.30 2.84,-5.35 4.33,-7.04 5.81,-8.74 7.17,-10.12 8.52,-11.50 9.99,-12.89 11.46,-14.28 12.87,-16.40 14.28,-18.52 15.55,-20.14 16.81,-21.76 17.52,-22.97 18.22,-24.19 19.12,-25.80 20.02,-27.40 20.64,-28.91 21.26,-30.41 22.16,-33.25 23.05,-36.09 23.45,-39.77 23.84,-43.46 23.99,-45.37 24.14,-47.27 23.84,-48.47 23.55,-49.66 23.17,-51.33 22.79,-53.00 22.15,-52.04 21.51,-51.07 20.52,-49.22 19.53,-47.37 19.14,-46.00 18.74,-44.62 18.27,-43.31 17.80,-42.00 17.64,-40.60 17.49,-39.20 17.00,-35.36 16.51,-31.53 16.55,-27.13 16.60,-22.73 17.16,-18.31 17.71,-13.89 18.22,-10.55 18.72,-7.21 19.48,-4.43 20.24,-1.64 21.06,-0.03 21.89,1.57 23.93,1.35 25.97,1.13 27.60,0.26 29.22,-0.61 31.51,-2.98 33.80,-5.35 36.08,-7.84 38.36,-10.33 40.47,-13.06 42.58,-15.80 44.65,-18.68 46.71,-21.55 48.74,-24.76 50.76,-27.96 52.17,-30.98 53.58,-34.00 54.46,-35.68 55.34,-37.35 56.26,-40.46 57.18,-43.57 57.52,-45.20 57.85,-46.83 57.48,-48.69 57.11,-50.54 56.84,-51.72 56.57,-52.90 55.00,-52.37 53.43,-51.84 52.37,-50.69 51.32,-49.54 50.66,-48.31 50.01,-47.07 49.06,-44.91 48.11,-42.76 47.41,-38.81 46.71,-34.86 46.95,-28.67 47.19,-22.48 47.84,-17.84 48.49,-13.20 50.15,-9.06 51.80,-4.91 52.78,-2.54 53.75,-0.18 56.29,1.75 58.82,3.69 60.46,4.52 62.10,5.35 63.30,5.59 64.49,5.82 65.60,5.59 66.72,5.37 67.88,4.78 69.05,4.19 70.32,2.83 71.59,1.47 71.87,1.29 72.15,1.10 72.48,1.01 72.80,0.93 73.14,0.95 73.47,0.97 73.78,1.10 74.09,1.23 74.34,1.45 74.60,1.67 74.77,1.96 74.94,2.25 75.01,2.58 75.07,2.91 75.03,3.24 74.99,3.58 74.85,3.88 74.70,4.18 74.47,4.42 74.23,4.66 73.94,4.82 73.64,4.97 73.31,5.02 72.97,5.07 72.64,5.01 72.31,4.95 72.02,4.79 71.72,4.63 71.49,4.38 71.27,4.14 71.13,3.83 70.99,3.52 70.96,3.19 70.93,2.86 71.00,2.53 71.08,2.20 71.26,1.92 71.43,1.63 71.69,1.42 71.95,1.20 72.27,1.08 72.58,0.96 72.91,0.95 73.25,0.93 73.57,1.03 73.89,1.12 74.17,1.31 74.45,1.51 74.65,1.78 74.85,2.05 74.95,2.37 75.05,2.69 75.05,3.02 75.04,3.36 74.93,3.67 74.82,3.99 74.61,4.26 74.41,4.52 74.41,4.52 74.41,4.52 72.51,6.09 70.61,7.65 68.85,8.32 67.08,8.98 65.35,8.99 63.63,9.01 62.19,8.46 60.76,7.91 58.92,6.90 57.09,5.88 54.15,3.48 51.22,1.07 50.14,-1.36 49.07,-3.81 47.26,-8.27 45.45,-12.73 44.70,-17.53 43.95,-22.33 43.62,-28.87 43.28,-35.41 43.93,-39.76 44.59,-44.12 45.47,-46.62 46.35,-49.12 47.29,-50.73 48.23,-52.34 49.58,-53.81 50.93,-55.29 52.97,-56.49 55.01,-57.69 56.53,-57.20 58.04,-56.71 58.99,-55.13 59.93,-53.55 60.01,-52.32 60.08,-51.10 60.51,-48.65 60.94,-46.20 60.47,-44.48 59.99,-42.75 59.00,-39.32 58.01,-35.89 57.09,-34.34 56.18,-32.80 54.72,-29.61 53.27,-26.41 51.25,-23.10 49.23,-19.79 47.20,-16.83 45.18,-13.86 43.07,-10.95 40.97,-8.05 38.73,-5.38 36.50,-2.72 32.95,0.37 29.39,3.48 28.22,3.96 27.04,4.45 24.90,4.91 22.75,5.37 21.06,4.24 19.38,3.12 18.37,1.15 17.36,-0.81 16.49,-3.75 15.63,-6.70 15.02,-10.06 14.42,-13.43 13.72,-18.03 13.01,-22.63 12.80,-27.27 12.59,-31.91 12.85,-35.82 13.11,-39.74 13.37,-41.68 13.63,-43.61 14.13,-44.75 14.63,-45.88 15.16,-47.56 15.70,-49.24 17.52,-52.38 19.35,-55.53 20.55,-56.24 21.76,-56.96 23.20,-56.67 24.63,-56.38 25.48,-55.11 26.33,-53.84 26.72,-52.03 27.10,-50.22 27.25,-48.63 27.39,-47.03 27.23,-45.09 27.07,-43.15 26.73,-39.14 26.39,-35.13 25.56,-32.03 24.74,-28.92 24.01,-27.28 23.28,-25.63 22.35,-23.88 21.43,-22.13 20.54,-20.87 19.65,-19.60 18.53,-18.08 17.41,-16.57 15.91,-14.01 14.40,-11.46 13.08,-9.98 11.77,-8.49 10.61,-7.16 9.46,-5.84 8.38,-4.53 7.30,-3.22 6.41,-2.54 5.51,-1.86 4.38,-1.02 3.25,-0.18 2.35,0.62 1.44,1.44 1.25,1.59 1.05,1.75 0.83,1.85 0.60,1.95 0.36,1.99 0.12,2.04 -0.12,2.02 -0.36,2.01 -0.60,1.93 -0.83,1.86 -1.05,1.73 -1.26,1.61 -1.43,1.43 -1.61,1.26 -1.73,1.05 -1.86,0.83 -1.93,0.60 -2.01,0.36 -2.02,0.12 -2.04,-0.12 -1.99,-0.36 -1.95,-0.60 -1.85,-0.83 -1.75,-1.05 -1.59,-1.25 -1.44,-1.44 -1.44,-1.44 L -1.44,-1.44 Z"></path>
    </g>
    <g 
        transform="translate(275.0161659861251 46.00219613396439) rotate(0 -15.50094555767896 10.500640539073174)" 
        stroke-dasharray="201.4302215576172"
        stroke-dashoffset="201.4302215576172"
        class="text-indigo-300 group-hover:animate-draw">
        <path d="M -2.53,0 Q -2.53,0 -2.52,-0.68 -2.50,-1.37 -4.21,-1.65 -5.92,-1.92 -7.10,-1.75 -8.28,-1.59 -9.61,-1.49 -10.94,-1.39 -12.09,-0.92 -13.23,-0.44 -12.67,0.74 -12.10,1.93 -11.45,3.24 -10.81,4.55 -9.73,5.89 -8.66,7.23 -6.93,9.18 -5.19,11.13 -4.31,12.01 -3.42,12.89 -2.40,13.94 -1.38,15.00 -0.29,16.33 0.79,17.67 1.97,19.30 3.15,20.92 3.21,22.36 3.28,23.81 2.21,25.36 1.14,26.91 -0.23,27.57 -1.62,28.23 -3.57,28.56 -5.52,28.90 -7.87,28.43 -10.23,27.96 -13.23,27.09 -16.23,26.22 -18.85,25.52 -21.48,24.83 -23.86,23.88 -26.24,22.93 -27.96,21.93 -29.67,20.93 -30.86,19.85 -32.05,18.76 -33.01,16.78 -33.98,14.80 -34.06,14.47 -34.13,14.13 -34.10,13.78 -34.06,13.44 -33.92,13.12 -33.78,12.81 -33.54,12.55 -33.31,12.30 -33.00,12.14 -32.70,11.97 -32.35,11.91 -32.01,11.86 -31.67,11.91 -31.33,11.96 -31.02,12.12 -30.71,12.28 -30.47,12.53 -30.23,12.78 -30.09,13.09 -29.94,13.41 -29.90,13.75 -29.86,14.10 -29.93,14.43 -30.00,14.77 -30.18,15.07 -30.36,15.37 -30.62,15.60 -30.88,15.82 -31.20,15.95 -31.52,16.08 -31.87,16.10 -32.21,16.13 -32.55,16.04 -32.88,15.95 -33.17,15.75 -33.46,15.56 -33.67,15.29 -33.88,15.01 -33.99,14.68 -34.11,14.36 -34.11,14.01 -34.11,13.66 -34.00,13.34 -33.90,13.01 -33.69,12.73 -33.48,12.45 -33.20,12.26 -32.91,12.06 -32.58,11.96 -32.24,11.87 -31.90,11.89 -31.55,11.90 -31.23,12.03 -30.91,12.15 -30.64,12.38 -30.38,12.60 -30.19,12.89 -30.01,13.19 -30.01,13.19 -30.01,13.19 -29.58,14.64 -29.15,16.09 -28.45,16.94 -27.75,17.79 -26.37,18.64 -24.99,19.49 -22.81,20.18 -20.62,20.88 -17.90,21.34 -15.18,21.80 -12.38,22.30 -9.58,22.80 -7.10,22.84 -4.61,22.87 -3.30,23.07 -1.98,23.27 -2.70,22.16 -3.41,21.06 -4.09,20.19 -4.78,19.31 -5.96,17.91 -7.15,16.50 -8.00,15.62 -8.85,14.74 -10.37,13.40 -11.88,12.07 -13.02,10.64 -14.17,9.20 -14.85,8.16 -15.53,7.12 -16.48,5.51 -17.42,3.89 -17.80,0.83 -18.18,-2.23 -17.35,-3.52 -16.52,-4.81 -15.34,-5.47 -14.17,-6.13 -12.77,-6.51 -11.38,-6.88 -10.21,-6.96 -9.05,-7.05 -7.08,-7.33 -5.11,-7.61 -3.82,-7.37 -2.54,-7.14 -1.33,-6.67 -0.12,-6.19 0.72,-5.12 1.58,-4.05 2.04,-3.06 2.50,-2.07 2.52,-1.03 2.53,0 2.49,0.30 2.46,0.60 2.35,0.89 2.24,1.17 2.07,1.42 1.89,1.68 1.66,1.88 1.44,2.08 1.16,2.22 0.89,2.37 0.60,2.44 0.30,2.51 -0.00,2.51 -0.30,2.51 -0.60,2.44 -0.89,2.37 -1.16,2.22 -1.44,2.08 -1.66,1.88 -1.89,1.68 -2.07,1.42 -2.24,1.17 -2.35,0.89 -2.46,0.60 -2.49,0.30 -2.53,-0.00 -2.53,-0.00 L -2.53,0 Z"></path>
    </g>
</svg>